<ttFont>
<head>
    <!-- Most of this table will be recalculated by the compiler -->
    <tableVersion value="1.0"/>
    <fontRevision value="1.0"/>
    <checkSumAdjustment value="0xc3fb2a2"/>
    <magicNumber value="0x5f0f3cf5"/>
    <flags value="00000000 00000000"/>
    <unitsPerEm value="1000"/>
    <created value="Sat Nov  3 17:09:55 2001"/>
    <modified value="Fri Sep 28 04:24:06 2001"/>
    <xMin value="0"/>
    <yMin value="-200"/>
    <xMax value="5118"/>
    <yMax value="801"/>
    <macStyle value="00000000 00000000"/>
    <lowestRecPPEM value="3"/>
    <fontDirectionHint value="2"/>
    <indexToLocFormat value="0"/>
    <glyphDataFormat value="0"/>
  </head>
    <TTGlyph name=".notdef" xMin="63" yMin="0" xMax="438" yMax="800">
      <contour>
        <pt x="63" y="0" on="1"/>
        <pt x="63" y="800" on="1"/>
        <pt x="438" y="800" on="1"/>
        <pt x="438" y="0" on="1"/>
      </contour>
      <contour>
        <pt x="125" y="63" on="1"/>
        <pt x="375" y="63" on="1"/>
        <pt x="375" y="738" on="1"/>
        <pt x="125" y="738" on="1"/>
      </contour>
    </TTGlyph>
    <TTGlyph name="A" xMin="0" yMin="-200" xMax="870" yMax="800">
      <contour>
        <pt x="7" y="-192" on="1"/>
        <pt x="39" y="-198" on="1"/>
        <pt x="71" y="-200" on="1"/>
        <pt x="104" y="-197" on="1"/>
        <pt x="139" y="-199" on="1"/>
        <pt x="171" y="-196" on="1"/>
        <pt x="205" y="-200" on="1"/>
        <pt x="240" y="-200" on="1"/>
        <pt x="273" y="-193" on="1"/>
        <pt x="308" y="-200" on="1"/>
        <pt x="340" y="-195" on="1"/>
        <pt x="374" y="-193" on="1"/>
        <pt x="406" y="-194" on="1"/>
        <pt x="440" y="-196" on="1"/>
        <pt x="471" y="-194" on="1"/>
        <pt x="505" y="-199" on="1"/>
        <pt x="536" y="-199" on="1"/>
        <pt x="570" y="-195" on="1"/>
        <pt x="601" y="-198" on="1"/>
        <pt x="636" y="-194" on="1"/>
        <pt x="668" y="-193" on="1"/>
        <pt x="699" y="-198" on="1"/>
        <pt x="727" y="-192" on="1"/>
        <pt x="791" y="-194" on="1"/>
        <pt x="822" y="-198" on="1"/>
        <pt x="844" y="-194" on="1"/>
        <pt x="866" y="-196" on="1"/>
        <pt x="862" y="-162" on="1"/>
        <pt x="860" y="-131" on="1"/>
        <pt x="865" y="-99" on="1"/>
        <pt x="869" y="-66" on="1"/>
        <pt x="866" y="-35" on="1"/>
        <pt x="870" y="-3" on="1"/>
        <pt x="862" y="30" on="1"/>
        <pt x="864" y="61" on="1"/>
        <pt x="868" y="93" on="1"/>
        <pt x="868" y="126" on="1"/>
        <pt x="864" y="157" on="1"/>
        <pt x="862" y="189" on="1"/>
        <pt x="867" y="223" on="1"/>
        <pt x="863" y="255" on="1"/>
        <pt x="868" y="288" on="1"/>
        <pt x="860" y="319" on="1"/>
        <pt x="864" y="352" on="1"/>
        <pt x="860" y="382" on="1"/>
        <pt x="864" y="414" on="1"/>
        <pt x="865" y="444" on="1"/>
        <pt x="860" y="475" on="1"/>
        <pt x="867" y="505" on="1"/>
        <pt x="865" y="537" on="1"/>
        <pt x="868" y="566" on="1"/>
        <pt x="869" y="599" on="1"/>
        <pt x="865" y="629" on="1"/>
        <pt x="861" y="690" on="1"/>
        <pt x="862" y="722" on="1"/>
        <pt x="869" y="753" on="1"/>
        <pt x="864" y="775" on="1"/>
        <pt x="865" y="795" on="1"/>
        <pt x="830" y="797" on="1"/>
        <pt x="798" y="791" on="1"/>
        <pt x="765" y="795" on="1"/>
        <pt x="731" y="800" on="1"/>
        <pt x="698" y="792" on="1"/>
        <pt x="664" y="791" on="1"/>
        <pt x="629" y="794" on="1"/>
        <pt x="596" y="794" on="1"/>
        <pt x="562" y="792" on="1"/>
        <pt x="529" y="794" on="1"/>
        <pt x="495" y="794" on="1"/>
        <pt x="463" y="794" on="1"/>
        <pt x="430" y="795" on="1"/>
        <pt x="398" y="791" on="1"/>
        <pt x="365" y="798" on="1"/>
        <pt x="333" y="794" on="1"/>
        <pt x="300" y="798" on="1"/>
        <pt x="268" y="797" on="1"/>
        <pt x="234" y="799" on="1"/>
        <pt x="201" y="792" on="1"/>
        <pt x="171" y="796" on="1"/>
        <pt x="110" y="792" on="1"/>
        <pt x="78" y="797" on="1"/>
        <pt x="48" y="794" on="1"/>
        <pt x="26" y="794" on="1"/>
        <pt x="6" y="795" on="1"/>
        <pt x="4" y="762" on="1"/>
        <pt x="2" y="731" on="1"/>
        <pt x="8" y="699" on="1"/>
        <pt x="0" y="666" on="1"/>
        <pt x="5" y="635" on="1"/>
        <pt x="4" y="603" on="1"/>
        <pt x="10" y="570" on="1"/>
        <pt x="1" y="539" on="1"/>
        <pt x="6" y="507" on="1"/>
        <pt x="1" y="474" on="1"/>
        <pt x="2" y="443" on="1"/>
        <pt x="8" y="410" on="1"/>
        <pt x="10" y="377" on="1"/>
        <pt x="8" y="345" on="1"/>
        <pt x="2" y="312" on="1"/>
        <pt x="4" y="281" on="1"/>
        <pt x="2" y="248" on="1"/>
        <pt x="9" y="218" on="1"/>
        <pt x="9" y="186" on="1"/>
        <pt x="3" y="156" on="1"/>
        <pt x="7" y="124" on="1"/>
        <pt x="9" y="95" on="1"/>
        <pt x="0" y="63" on="1"/>
        <pt x="2" y="33" on="1"/>
        <pt x="4" y="1" on="1"/>
        <pt x="8" y="-30" on="1"/>
        <pt x="5" y="-91" on="1"/>
        <pt x="8" y="-122" on="1"/>
        <pt x="5" y="-153" on="1"/>
        <pt x="5" y="-175" on="1"/>
      </contour>
      <contour>
        <pt x="343" y="616" on="1"/>
        <pt x="381" y="610" on="1"/>
        <pt x="416" y="607" on="1"/>
        <pt x="452" y="610" on="1"/>
        <pt x="481" y="613" on="1"/>
        <pt x="500" y="610" on="1"/>
        <pt x="510" y="582" on="1"/>
        <pt x="524" y="553" on="1"/>
        <pt x="538" y="522" on="1"/>
        <pt x="546" y="492" on="1"/>
        <pt x="560" y="462" on="1"/>
        <pt x="566" y="431" on="1"/>
        <pt x="577" y="401" on="1"/>
        <pt x="598" y="373" on="1"/>
        <pt x="609" y="343" on="1"/>
        <pt x="615" y="308" on="1"/>
        <pt x="631" y="280" on="1"/>
        <pt x="642" y="253" on="1"/>
        <pt x="652" y="222" on="1"/>
        <pt x="657" y="193" on="1"/>
        <pt x="672" y="163" on="1"/>
        <pt x="681" y="134" on="1"/>
        <pt x="695" y="109" on="1"/>
        <pt x="705" y="77" on="1"/>
        <pt x="714" y="47" on="1"/>
        <pt x="729" y="19" on="1"/>
        <pt x="735" y="-4" on="1"/>
        <pt x="743" y="-19" on="1"/>
        <pt x="707" y="-18" on="1"/>
        <pt x="672" y="-21" on="1"/>
        <pt x="637" y="-15" on="1"/>
        <pt x="610" y="-16" on="1"/>
        <pt x="582" y="-21" on="1"/>
        <pt x="568" y="11" on="1"/>
        <pt x="561" y="40" on="1"/>
        <pt x="550" y="71" on="1"/>
        <pt x="541" y="103" on="1"/>
        <pt x="528" y="120" on="1"/>
        <pt x="492" y="120" on="1"/>
        <pt x="455" y="125" on="1"/>
        <pt x="420" y="127" on="1"/>
        <pt x="384" y="126" on="1"/>
        <pt x="355" y="120" on="1"/>
        <pt x="334" y="123" on="1"/>
        <pt x="322" y="90" on="1"/>
        <pt x="314" y="56" on="1"/>
        <pt x="303" y="26" on="1"/>
        <pt x="297" y="2" on="1"/>
        <pt x="285" y="-17" on="1"/>
        <pt x="250" y="-18" on="1"/>
        <pt x="214" y="-14" on="1"/>
        <pt x="179" y="-15" on="1"/>
        <pt x="152" y="-14" on="1"/>
        <pt x="128" y="-17" on="1"/>
        <pt x="139" y="14" on="1"/>
        <pt x="146" y="46" on="1"/>
        <pt x="159" y="78" on="1"/>
        <pt x="172" y="107" on="1"/>
        <pt x="177" y="141" on="1"/>
        <pt x="192" y="169" on="1"/>
        <pt x="205" y="200" on="1"/>
        <pt x="223" y="266" on="1"/>
        <pt x="236" y="294" on="1"/>
        <pt x="248" y="325" on="1"/>
        <pt x="257" y="354" on="1"/>
        <pt x="269" y="386" on="1"/>
        <pt x="276" y="417" on="1"/>
        <pt x="288" y="450" on="1"/>
        <pt x="303" y="481" on="1"/>
        <pt x="310" y="513" on="1"/>
        <pt x="317" y="543" on="1"/>
        <pt x="341" y="591" on="1"/>
      </contour>
      <contour>
        <pt x="427" y="389" on="1"/>
        <pt x="417" y="359" on="1"/>
        <pt x="406" y="330" on="1"/>
        <pt x="389" y="280" on="1"/>
        <pt x="418" y="279" on="1"/>
        <pt x="469" y="280" on="1"/>
        <pt x="457" y="310" on="1"/>
        <pt x="447" y="338" on="1"/>
        <pt x="435" y="367" on="1"/>
      </contour>
    </TTGlyph>
    <TTGlyph name="B" xMin="0" yMin="-200" xMax="870" yMax="800">
      <contour>
        <pt x="525" y="417" on="1"/>
        <pt x="512" y="446" on="1"/>
        <pt x="488" y="455" on="1"/>
        <pt x="452" y="454" on="1"/>
        <pt x="410" y="454" on="1"/>
        <pt x="380" y="454" on="1"/>
        <pt x="380" y="380" on="1"/>
        <pt x="417" y="380" on="1"/>
        <pt x="455" y="379" on="1"/>
        <pt x="488" y="380" on="1"/>
        <pt x="517" y="394" on="1"/>
      </contour>
      <contour>
        <pt x="564" y="175" on="1"/>
        <pt x="550" y="204" on="1"/>
        <pt x="527" y="212" on="1"/>
        <pt x="461" y="213" on="1"/>
        <pt x="430" y="212" on="1"/>
        <pt x="381" y="212" on="1"/>
        <pt x="379" y="173" on="1"/>
        <pt x="381" y="138" on="1"/>
        <pt x="412" y="138" on="1"/>
        <pt x="447" y="139" on="1"/>
        <pt x="479" y="137" on="1"/>
        <pt x="504" y="139" on="1"/>
        <pt x="527" y="138" on="1"/>
        <pt x="555" y="152" on="1"/>
      </contour>
      <contour>
        <pt x="6" y="-194" on="1"/>
        <pt x="39" y="-199" on="1"/>
        <pt x="71" y="-195" on="1"/>
        <pt x="104" y="-194" on="1"/>
        <pt x="139" y="-195" on="1"/>
        <pt x="171" y="-197" on="1"/>
        <pt x="205" y="-199" on="1"/>
        <pt x="240" y="-200" on="1"/>
        <pt x="274" y="-196" on="1"/>
        <pt x="308" y="-194" on="1"/>
        <pt x="341" y="-195" on="1"/>
        <pt x="375" y="-196" on="1"/>
        <pt x="407" y="-191" on="1"/>
        <pt x="440" y="-200" on="1"/>
        <pt x="472" y="-191" on="1"/>
        <pt x="505" y="-193" on="1"/>
        <pt x="537" y="-197" on="1"/>
        <pt x="570" y="-199" on="1"/>
        <pt x="602" y="-192" on="1"/>
        <pt x="637" y="-196" on="1"/>
        <pt x="669" y="-192" on="1"/>
        <pt x="700" y="-199" on="1"/>
        <pt x="728" y="-197" on="1"/>
        <pt x="761" y="-196" on="1"/>
        <pt x="792" y="-192" on="1"/>
        <pt x="823" y="-199" on="1"/>
        <pt x="845" y="-193" on="1"/>
        <pt x="866" y="-196" on="1"/>
        <pt x="861" y="-162" on="1"/>
        <pt x="861" y="-131" on="1"/>
        <pt x="868" y="-35" on="1"/>
        <pt x="865" y="-3" on="1"/>
        <pt x="861" y="30" on="1"/>
        <pt x="870" y="61" on="1"/>
        <pt x="863" y="93" on="1"/>
        <pt x="862" y="126" on="1"/>
        <pt x="864" y="157" on="1"/>
        <pt x="870" y="190" on="1"/>
        <pt x="865" y="223" on="1"/>
        <pt x="863" y="255" on="1"/>
        <pt x="868" y="288" on="1"/>
        <pt x="870" y="319" on="1"/>
        <pt x="863" y="352" on="1"/>
        <pt x="868" y="382" on="1"/>
        <pt x="861" y="414" on="1"/>
        <pt x="865" y="444" on="1"/>
        <pt x="866" y="476" on="1"/>
        <pt x="867" y="505" on="1"/>
        <pt x="870" y="537" on="1"/>
        <pt x="863" y="567" on="1"/>
        <pt x="862" y="600" on="1"/>
        <pt x="869" y="630" on="1"/>
        <pt x="865" y="659" on="1"/>
        <pt x="868" y="691" on="1"/>
        <pt x="861" y="723" on="1"/>
        <pt x="870" y="753" on="1"/>
        <pt x="864" y="775" on="1"/>
        <pt x="866" y="797" on="1"/>
        <pt x="831" y="795" on="1"/>
        <pt x="799" y="798" on="1"/>
        <pt x="766" y="797" on="1"/>
        <pt x="731" y="797" on="1"/>
        <pt x="699" y="800" on="1"/>
        <pt x="665" y="793" on="1"/>
        <pt x="630" y="799" on="1"/>
        <pt x="597" y="792" on="1"/>
        <pt x="562" y="798" on="1"/>
        <pt x="530" y="794" on="1"/>
        <pt x="464" y="793" on="1"/>
        <pt x="430" y="794" on="1"/>
        <pt x="399" y="796" on="1"/>
        <pt x="365" y="797" on="1"/>
        <pt x="334" y="800" on="1"/>
        <pt x="300" y="798" on="1"/>
        <pt x="269" y="799" on="1"/>
        <pt x="234" y="792" on="1"/>
        <pt x="201" y="794" on="1"/>
        <pt x="171" y="799" on="1"/>
        <pt x="142" y="794" on="1"/>
        <pt x="110" y="793" on="1"/>
        <pt x="48" y="797" on="1"/>
        <pt x="26" y="797" on="1"/>
        <pt x="1" y="799" on="1"/>
        <pt x="8" y="763" on="1"/>
        <pt x="4" y="732" on="1"/>
        <pt x="2" y="700" on="1"/>
        <pt x="9" y="666" on="1"/>
        <pt x="9" y="636" on="1"/>
        <pt x="5" y="604" on="1"/>
        <pt x="9" y="571" on="1"/>
        <pt x="3" y="540" on="1"/>
        <pt x="7" y="508" on="1"/>
        <pt x="0" y="474" on="1"/>
        <pt x="7" y="443" on="1"/>
        <pt x="7" y="411" on="1"/>
        <pt x="6" y="377" on="1"/>
        <pt x="0" y="345" on="1"/>
        <pt x="8" y="312" on="1"/>
        <pt x="7" y="281" on="1"/>
        <pt x="8" y="248" on="1"/>
        <pt x="1" y="218" on="1"/>
        <pt x="4" y="186" on="1"/>
        <pt x="10" y="156" on="1"/>
        <pt x="3" y="124" on="1"/>
        <pt x="8" y="95" on="1"/>
        <pt x="1" y="63" on="1"/>
        <pt x="2" y="33" on="1"/>
        <pt x="1" y="1" on="1"/>
        <pt x="6" y="-30" on="1"/>
        <pt x="5" y="-58" on="1"/>
        <pt x="5" y="-91" on="1"/>
        <pt x="7" y="-122" on="1"/>
        <pt x="7" y="-153" on="1"/>
        <pt x="5" y="-175" on="1"/>
      </contour>
      <contour>
        <pt x="221" y="612" on="1"/>
        <pt x="245" y="614" on="1"/>
        <pt x="276" y="610" on="1"/>
        <pt x="311" y="614" on="1"/>
        <pt x="346" y="613" on="1"/>
        <pt x="377" y="615" on="1"/>
        <pt x="410" y="613" on="1"/>
        <pt x="444" y="607" on="1"/>
        <pt x="469" y="610" on="1"/>
        <pt x="488" y="610" on="1"/>
        <pt x="522" y="608" on="1"/>
        <pt x="552" y="596" on="1"/>
        <pt x="612" y="570" on="1"/>
        <pt x="635" y="547" on="1"/>
        <pt x="650" y="519" on="1"/>
        <pt x="663" y="490" on="1"/>
        <pt x="672" y="466" on="1"/>
        <pt x="676" y="440" on="1"/>
        <pt x="683" y="417" on="1"/>
        <pt x="668" y="348" on="1"/>
        <pt x="654" y="320" on="1"/>
        <pt x="677" y="297" on="1"/>
        <pt x="698" y="265" on="1"/>
        <pt x="713" y="236" on="1"/>
        <pt x="717" y="203" on="1"/>
        <pt x="716" y="175" on="1"/>
        <pt x="717" y="142" on="1"/>
        <pt x="710" y="109" on="1"/>
        <pt x="694" y="81" on="1"/>
        <pt x="675" y="55" on="1"/>
        <pt x="653" y="33" on="1"/>
        <pt x="633" y="7" on="1"/>
        <pt x="602" y="-4" on="1"/>
        <pt x="577" y="-15" on="1"/>
        <pt x="550" y="-18" on="1"/>
        <pt x="527" y="-17" on="1"/>
        <pt x="496" y="-17" on="1"/>
        <pt x="462" y="-15" on="1"/>
        <pt x="431" y="-19" on="1"/>
        <pt x="395" y="-17" on="1"/>
        <pt x="361" y="-22" on="1"/>
        <pt x="329" y="-19" on="1"/>
        <pt x="298" y="-20" on="1"/>
        <pt x="267" y="-15" on="1"/>
        <pt x="238" y="-19" on="1"/>
        <pt x="222" y="-18" on="1"/>
        <pt x="219" y="49" on="1"/>
        <pt x="222" y="81" on="1"/>
        <pt x="220" y="115" on="1"/>
        <pt x="218" y="180" on="1"/>
        <pt x="227" y="211" on="1"/>
        <pt x="223" y="245" on="1"/>
        <pt x="221" y="275" on="1"/>
        <pt x="224" y="309" on="1"/>
        <pt x="225" y="340" on="1"/>
        <pt x="228" y="374" on="1"/>
        <pt x="224" y="405" on="1"/>
        <pt x="223" y="435" on="1"/>
        <pt x="220" y="468" on="1"/>
        <pt x="225" y="500" on="1"/>
        <pt x="219" y="530" on="1"/>
        <pt x="226" y="559" on="1"/>
        <pt x="225" y="587" on="1"/>
      </contour>
    </TTGlyph>
    <TTGlyph name="C" xMin="0" yMin="-200" xMax="870" yMax="800">
      <contour>
        <pt x="3" y="-198" on="1"/>
        <pt x="39" y="-193" on="1"/>
        <pt x="71" y="-200" on="1"/>
        <pt x="104" y="-198" on="1"/>
        <pt x="139" y="-195" on="1"/>
        <pt x="171" y="-199" on="1"/>
        <pt x="205" y="-197" on="1"/>
        <pt x="240" y="-200" on="1"/>
        <pt x="273" y="-197" on="1"/>
        <pt x="308" y="-193" on="1"/>
        <pt x="340" y="-199" on="1"/>
        <pt x="374" y="-192" on="1"/>
        <pt x="406" y="-194" on="1"/>
        <pt x="440" y="-192" on="1"/>
        <pt x="471" y="-195" on="1"/>
        <pt x="505" y="-195" on="1"/>
        <pt x="536" y="-197" on="1"/>
        <pt x="570" y="-192" on="1"/>
        <pt x="636" y="-193" on="1"/>
        <pt x="669" y="-200" on="1"/>
        <pt x="699" y="-194" on="1"/>
        <pt x="728" y="-192" on="1"/>
        <pt x="760" y="-196" on="1"/>
        <pt x="792" y="-199" on="1"/>
        <pt x="822" y="-192" on="1"/>
        <pt x="844" y="-193" on="1"/>
        <pt x="867" y="-197" on="1"/>
        <pt x="861" y="-163" on="1"/>
        <pt x="868" y="-132" on="1"/>
        <pt x="868" y="-100" on="1"/>
        <pt x="868" y="-67" on="1"/>
        <pt x="868" y="-36" on="1"/>
        <pt x="861" y="-4" on="1"/>
        <pt x="865" y="29" on="1"/>
        <pt x="862" y="60" on="1"/>
        <pt x="862" y="92" on="1"/>
        <pt x="867" y="125" on="1"/>
        <pt x="862" y="156" on="1"/>
        <pt x="866" y="189" on="1"/>
        <pt x="866" y="254" on="1"/>
        <pt x="870" y="288" on="1"/>
        <pt x="870" y="318" on="1"/>
        <pt x="868" y="351" on="1"/>
        <pt x="862" y="381" on="1"/>
        <pt x="865" y="414" on="1"/>
        <pt x="862" y="475" on="1"/>
        <pt x="862" y="505" on="1"/>
        <pt x="864" y="537" on="1"/>
        <pt x="863" y="566" on="1"/>
        <pt x="870" y="599" on="1"/>
        <pt x="866" y="629" on="1"/>
        <pt x="868" y="658" on="1"/>
        <pt x="870" y="690" on="1"/>
        <pt x="865" y="722" on="1"/>
        <pt x="869" y="753" on="1"/>
        <pt x="863" y="775" on="1"/>
        <pt x="864" y="792" on="1"/>
        <pt x="831" y="796" on="1"/>
        <pt x="799" y="799" on="1"/>
        <pt x="766" y="797" on="1"/>
        <pt x="731" y="800" on="1"/>
        <pt x="699" y="796" on="1"/>
        <pt x="665" y="792" on="1"/>
        <pt x="630" y="791" on="1"/>
        <pt x="597" y="793" on="1"/>
        <pt x="562" y="792" on="1"/>
        <pt x="530" y="792" on="1"/>
        <pt x="495" y="799" on="1"/>
        <pt x="464" y="792" on="1"/>
        <pt x="430" y="800" on="1"/>
        <pt x="398" y="790" on="1"/>
        <pt x="365" y="799" on="1"/>
        <pt x="334" y="796" on="1"/>
        <pt x="300" y="793" on="1"/>
        <pt x="268" y="796" on="1"/>
        <pt x="201" y="798" on="1"/>
        <pt x="170" y="796" on="1"/>
        <pt x="142" y="793" on="1"/>
        <pt x="110" y="794" on="1"/>
        <pt x="78" y="799" on="1"/>
        <pt x="47" y="792" on="1"/>
        <pt x="26" y="799" on="1"/>
        <pt x="8" y="793" on="1"/>
        <pt x="2" y="762" on="1"/>
        <pt x="5" y="731" on="1"/>
        <pt x="7" y="699" on="1"/>
        <pt x="9" y="666" on="1"/>
        <pt x="1" y="635" on="1"/>
        <pt x="9" y="570" on="1"/>
        <pt x="2" y="539" on="1"/>
        <pt x="6" y="507" on="1"/>
        <pt x="3" y="474" on="1"/>
        <pt x="0" y="442" on="1"/>
        <pt x="9" y="410" on="1"/>
        <pt x="8" y="376" on="1"/>
        <pt x="1" y="345" on="1"/>
        <pt x="0" y="311" on="1"/>
        <pt x="3" y="280" on="1"/>
        <pt x="6" y="248" on="1"/>
        <pt x="4" y="217" on="1"/>
        <pt x="9" y="185" on="1"/>
        <pt x="1" y="156" on="1"/>
        <pt x="9" y="124" on="1"/>
        <pt x="6" y="94" on="1"/>
        <pt x="1" y="62" on="1"/>
        <pt x="1" y="33" on="1"/>
        <pt x="2" y="0" on="1"/>
        <pt x="9" y="-59" on="1"/>
        <pt x="8" y="-92" on="1"/>
        <pt x="2" y="-123" on="1"/>
        <pt x="5" y="-154" on="1"/>
        <pt x="3" y="-176" on="1"/>
      </contour>
      <contour>
        <pt x="476" y="624" on="1"/>
        <pt x="509" y="621" on="1"/>
        <pt x="540" y="609" on="1"/>
        <pt x="568" y="594" on="1"/>
        <pt x="600" y="586" on="1"/>
        <pt x="628" y="569" on="1"/>
        <pt x="650" y="545" on="1"/>
        <pt x="678" y="528" on="1"/>
        <pt x="697" y="509" on="1"/>
        <pt x="708" y="483" on="1"/>
        <pt x="726" y="463" on="1"/>
        <pt x="738" y="445" on="1"/>
        <pt x="749" y="413" on="1"/>
        <pt x="719" y="415" on="1"/>
        <pt x="689" y="407" on="1"/>
        <pt x="653" y="409" on="1"/>
        <pt x="625" y="407" on="1"/>
        <pt x="590" y="416" on="1"/>
        <pt x="569" y="414" on="1"/>
        <pt x="566" y="421" on="1"/>
        <pt x="534" y="444" on="1"/>
        <pt x="503" y="456" on="1"/>
        <pt x="472" y="466" on="1"/>
        <pt x="442" y="466" on="1"/>
        <pt x="408" y="468" on="1"/>
        <pt x="377" y="453" on="1"/>
        <pt x="349" y="438" on="1"/>
        <pt x="321" y="422" on="1"/>
        <pt x="285" y="368" on="1"/>
        <pt x="277" y="342" on="1"/>
        <pt x="268" y="316" on="1"/>
        <pt x="271" y="295" on="1"/>
        <pt x="271" y="261" on="1"/>
        <pt x="287" y="231" on="1"/>
        <pt x="294" y="199" on="1"/>
        <pt x="319" y="177" on="1"/>
        <pt x="342" y="155" on="1"/>
        <pt x="370" y="139" on="1"/>
        <pt x="442" y="118" on="1"/>
        <pt x="474" y="130" on="1"/>
        <pt x="505" y="137" on="1"/>
        <pt x="530" y="147" on="1"/>
        <pt x="549" y="166" on="1"/>
        <pt x="573" y="177" on="1"/>
        <pt x="577" y="186" on="1"/>
        <pt x="609" y="189" on="1"/>
        <pt x="641" y="189" on="1"/>
        <pt x="699" y="187" on="1"/>
        <pt x="733" y="189" on="1"/>
        <pt x="755" y="187" on="1"/>
        <pt x="743" y="155" on="1"/>
        <pt x="725" y="127" on="1"/>
        <pt x="705" y="101" on="1"/>
        <pt x="683" y="76" on="1"/>
        <pt x="660" y="54" on="1"/>
        <pt x="638" y="29" on="1"/>
        <pt x="608" y="17" on="1"/>
        <pt x="583" y="-4" on="1"/>
        <pt x="551" y="-13" on="1"/>
        <pt x="520" y="-22" on="1"/>
        <pt x="495" y="-32" on="1"/>
        <pt x="468" y="-34" on="1"/>
        <pt x="442" y="-38" on="1"/>
        <pt x="408" y="-33" on="1"/>
        <pt x="375" y="-29" on="1"/>
        <pt x="342" y="-24" on="1"/>
        <pt x="312" y="-9" on="1"/>
        <pt x="283" y="6" on="1"/>
        <pt x="257" y="25" on="1"/>
        <pt x="230" y="42" on="1"/>
        <pt x="207" y="66" on="1"/>
        <pt x="184" y="88" on="1"/>
        <pt x="164" y="113" on="1"/>
        <pt x="148" y="141" on="1"/>
        <pt x="135" y="170" on="1"/>
        <pt x="127" y="201" on="1"/>
        <pt x="121" y="233" on="1"/>
        <pt x="115" y="265" on="1"/>
        <pt x="117" y="295" on="1"/>
        <pt x="111" y="329" on="1"/>
        <pt x="122" y="361" on="1"/>
        <pt x="125" y="395" on="1"/>
        <pt x="137" y="426" on="1"/>
        <pt x="156" y="453" on="1"/>
        <pt x="170" y="481" on="1"/>
        <pt x="191" y="506" on="1"/>
        <pt x="215" y="528" on="1"/>
        <pt x="239" y="548" on="1"/>
        <pt x="260" y="573" on="1"/>
        <pt x="289" y="586" on="1"/>
        <pt x="320" y="596" on="1"/>
        <pt x="347" y="614" on="1"/>
        <pt x="380" y="619" on="1"/>
        <pt x="412" y="621" on="1"/>
      </contour>
    </TTGlyph>
    <TTGlyph name="D" xMin="0" yMin="-200" xMax="870" yMax="800">
      <contour>
        <pt x="7" y="-191" on="1"/>
        <pt x="39" y="-192" on="1"/>
        <pt x="71" y="-193" on="1"/>
        <pt x="139" y="-197" on="1"/>
        <pt x="171" y="-196" on="1"/>
        <pt x="205" y="-197" on="1"/>
        <pt x="240" y="-195" on="1"/>
        <pt x="308" y="-192" on="1"/>
        <pt x="340" y="-197" on="1"/>
        <pt x="374" y="-191" on="1"/>
        <pt x="406" y="-192" on="1"/>
        <pt x="440" y="-195" on="1"/>
        <pt x="505" y="-196" on="1"/>
        <pt x="536" y="-200" on="1"/>
        <pt x="570" y="-200" on="1"/>
        <pt x="601" y="-192" on="1"/>
        <pt x="636" y="-194" on="1"/>
        <pt x="669" y="-192" on="1"/>
        <pt x="699" y="-191" on="1"/>
        <pt x="728" y="-198" on="1"/>
        <pt x="760" y="-195" on="1"/>
        <pt x="792" y="-191" on="1"/>
        <pt x="822" y="-193" on="1"/>
        <pt x="844" y="-198" on="1"/>
        <pt x="867" y="-196" on="1"/>
        <pt x="865" y="-162" on="1"/>
        <pt x="865" y="-131" on="1"/>
        <pt x="868" y="-99" on="1"/>
        <pt x="868" y="-66" on="1"/>
        <pt x="860" y="-35" on="1"/>
        <pt x="867" y="-3" on="1"/>
        <pt x="862" y="30" on="1"/>
        <pt x="860" y="61" on="1"/>
        <pt x="863" y="93" on="1"/>
        <pt x="862" y="126" on="1"/>
        <pt x="864" y="157" on="1"/>
        <pt x="864" y="190" on="1"/>
        <pt x="868" y="224" on="1"/>
        <pt x="861" y="255" on="1"/>
        <pt x="870" y="289" on="1"/>
        <pt x="867" y="319" on="1"/>
        <pt x="861" y="352" on="1"/>
        <pt x="861" y="382" on="1"/>
        <pt x="865" y="414" on="1"/>
        <pt x="862" y="444" on="1"/>
        <pt x="864" y="476" on="1"/>
        <pt x="867" y="505" on="1"/>
        <pt x="861" y="537" on="1"/>
        <pt x="862" y="567" on="1"/>
        <pt x="861" y="600" on="1"/>
        <pt x="866" y="630" on="1"/>
        <pt x="868" y="658" on="1"/>
        <pt x="863" y="691" on="1"/>
        <pt x="862" y="723" on="1"/>
        <pt x="866" y="753" on="1"/>
        <pt x="863" y="775" on="1"/>
        <pt x="866" y="797" on="1"/>
        <pt x="831" y="793" on="1"/>
        <pt x="799" y="796" on="1"/>
        <pt x="765" y="791" on="1"/>
        <pt x="731" y="800" on="1"/>
        <pt x="698" y="795" on="1"/>
        <pt x="665" y="797" on="1"/>
        <pt x="629" y="792" on="1"/>
        <pt x="596" y="795" on="1"/>
        <pt x="529" y="795" on="1"/>
        <pt x="495" y="792" on="1"/>
        <pt x="463" y="798" on="1"/>
        <pt x="430" y="797" on="1"/>
        <pt x="398" y="795" on="1"/>
        <pt x="365" y="794" on="1"/>
        <pt x="334" y="800" on="1"/>
        <pt x="300" y="791" on="1"/>
        <pt x="268" y="793" on="1"/>
        <pt x="234" y="797" on="1"/>
        <pt x="201" y="799" on="1"/>
        <pt x="171" y="792" on="1"/>
        <pt x="142" y="793" on="1"/>
        <pt x="110" y="795" on="1"/>
        <pt x="78" y="798" on="1"/>
        <pt x="48" y="793" on="1"/>
        <pt x="26" y="793" on="1"/>
        <pt x="3" y="797" on="1"/>
        <pt x="9" y="763" on="1"/>
        <pt x="4" y="699" on="1"/>
        <pt x="1" y="666" on="1"/>
        <pt x="1" y="635" on="1"/>
        <pt x="2" y="604" on="1"/>
        <pt x="0" y="570" on="1"/>
        <pt x="7" y="540" on="1"/>
        <pt x="9" y="508" on="1"/>
        <pt x="5" y="474" on="1"/>
        <pt x="4" y="443" on="1"/>
        <pt x="5" y="411" on="1"/>
        <pt x="9" y="377" on="1"/>
        <pt x="9" y="345" on="1"/>
        <pt x="7" y="312" on="1"/>
        <pt x="4" y="281" on="1"/>
        <pt x="4" y="249" on="1"/>
        <pt x="4" y="218" on="1"/>
        <pt x="1" y="186" on="1"/>
        <pt x="2" y="157" on="1"/>
        <pt x="7" y="125" on="1"/>
        <pt x="6" y="95" on="1"/>
        <pt x="4" y="63" on="1"/>
        <pt x="4" y="34" on="1"/>
        <pt x="9" y="1" on="1"/>
        <pt x="7" y="-29" on="1"/>
        <pt x="2" y="-58" on="1"/>
        <pt x="2" y="-90" on="1"/>
        <pt x="6" y="-122" on="1"/>
        <pt x="2" y="-153" on="1"/>
        <pt x="9" y="-174" on="1"/>
      </contour>
      <contour>
        <pt x="153" y="611" on="1"/>
        <pt x="187" y="610" on="1"/>
        <pt x="218" y="613" on="1"/>
        <pt x="248" y="612" on="1"/>
        <pt x="282" y="613" on="1"/>
        <pt x="314" y="608" on="1"/>
        <pt x="344" y="614" on="1"/>
        <pt x="374" y="609" on="1"/>
        <pt x="402" y="609" on="1"/>
        <pt x="423" y="611" on="1"/>
        <pt x="458" y="614" on="1"/>
        <pt x="492" y="607" on="1"/>
        <pt x="523" y="594" on="1"/>
        <pt x="556" y="587" on="1"/>
        <pt x="586" y="574" on="1"/>
        <pt x="611" y="554" on="1"/>
        <pt x="635" y="533" on="1"/>
        <pt x="659" y="512" on="1"/>
        <pt x="678" y="487" on="1"/>
        <pt x="692" y="459" on="1"/>
        <pt x="714" y="435" on="1"/>
        <pt x="722" y="404" on="1"/>
        <pt x="730" y="373" on="1"/>
        <pt x="736" y="347" on="1"/>
        <pt x="742" y="320" on="1"/>
        <pt x="735" y="297" on="1"/>
        <pt x="739" y="263" on="1"/>
        <pt x="734" y="230" on="1"/>
        <pt x="708" y="169" on="1"/>
        <pt x="692" y="141" on="1"/>
        <pt x="677" y="113" on="1"/>
        <pt x="659" y="87" on="1"/>
        <pt x="638" y="62" on="1"/>
        <pt x="613" y="42" on="1"/>
        <pt x="587" y="23" on="1"/>
        <pt x="556" y="12" on="1"/>
        <pt x="526" y="2" on="1"/>
        <pt x="503" y="-14" on="1"/>
        <pt x="476" y="-18" on="1"/>
        <pt x="449" y="-18" on="1"/>
        <pt x="422" y="-23" on="1"/>
        <pt x="388" y="-21" on="1"/>
        <pt x="357" y="-22" on="1"/>
        <pt x="327" y="-23" on="1"/>
        <pt x="293" y="-19" on="1"/>
        <pt x="261" y="-20" on="1"/>
        <pt x="231" y="-19" on="1"/>
        <pt x="201" y="-13" on="1"/>
        <pt x="173" y="-13" on="1"/>
        <pt x="149" y="-20" on="1"/>
        <pt x="152" y="15" on="1"/>
        <pt x="154" y="50" on="1"/>
        <pt x="157" y="82" on="1"/>
        <pt x="148" y="116" on="1"/>
        <pt x="156" y="147" on="1"/>
        <pt x="148" y="181" on="1"/>
        <pt x="149" y="212" on="1"/>
        <pt x="149" y="245" on="1"/>
        <pt x="150" y="276" on="1"/>
        <pt x="150" y="309" on="1"/>
        <pt x="150" y="340" on="1"/>
        <pt x="155" y="374" on="1"/>
        <pt x="152" y="405" on="1"/>
        <pt x="148" y="435" on="1"/>
        <pt x="157" y="468" on="1"/>
        <pt x="157" y="500" on="1"/>
        <pt x="149" y="559" on="1"/>
        <pt x="153" y="588" on="1"/>
      </contour>
      <contour>
        <pt x="582" y="297" on="1"/>
        <pt x="578" y="332" on="1"/>
        <pt x="570" y="363" on="1"/>
        <pt x="554" y="394" on="1"/>
        <pt x="531" y="418" on="1"/>
        <pt x="504" y="436" on="1"/>
        <pt x="474" y="448" on="1"/>
        <pt x="447" y="454" on="1"/>
        <pt x="423" y="454" on="1"/>
        <pt x="393" y="453" on="1"/>
        <pt x="365" y="454" on="1"/>
        <pt x="335" y="453" on="1"/>
        <pt x="309" y="454" on="1"/>
        <pt x="310" y="419" on="1"/>
        <pt x="310" y="350" on="1"/>
        <pt x="311" y="315" on="1"/>
        <pt x="311" y="282" on="1"/>
        <pt x="310" y="250" on="1"/>
        <pt x="311" y="220" on="1"/>
        <pt x="309" y="164" on="1"/>
        <pt x="311" y="138" on="1"/>
        <pt x="339" y="139" on="1"/>
        <pt x="368" y="137" on="1"/>
        <pt x="400" y="137" on="1"/>
        <pt x="423" y="137" on="1"/>
        <pt x="456" y="143" on="1"/>
        <pt x="487" y="151" on="1"/>
        <pt x="515" y="168" on="1"/>
        <pt x="540" y="189" on="1"/>
        <pt x="558" y="215" on="1"/>
        <pt x="573" y="243" on="1"/>
        <pt x="581" y="275" on="1"/>
      </contour>
    </TTGlyph>
    <TTGlyph name="E" xMin="0" yMin="-200" xMax="870" yMax="800">
      <contour>
        <pt x="6" y="-193" on="1"/>
        <pt x="39" y="-193" on="1"/>
        <pt x="71" y="-196" on="1"/>
        <pt x="104" y="-191" on="1"/>
        <pt x="139" y="-199" on="1"/>
        <pt x="171" y="-194" on="1"/>
        <pt x="205" y="-195" on="1"/>
        <pt x="240" y="-198" on="1"/>
        <pt x="273" y="-192" on="1"/>
        <pt x="308" y="-197" on="1"/>
        <pt x="340" y="-198" on="1"/>
        <pt x="374" y="-195" on="1"/>
        <pt x="406" y="-199" on="1"/>
        <pt x="440" y="-199" on="1"/>
        <pt x="471" y="-197" on="1"/>
        <pt x="505" y="-197" on="1"/>
        <pt x="536" y="-200" on="1"/>
        <pt x="570" y="-199" on="1"/>
        <pt x="601" y="-199" on="1"/>
        <pt x="636" y="-192" on="1"/>
        <pt x="669" y="-193" on="1"/>
        <pt x="699" y="-199" on="1"/>
        <pt x="728" y="-192" on="1"/>
        <pt x="760" y="-191" on="1"/>
        <pt x="792" y="-196" on="1"/>
        <pt x="822" y="-195" on="1"/>
        <pt x="844" y="-198" on="1"/>
        <pt x="868" y="-198" on="1"/>
        <pt x="866" y="-163" on="1"/>
        <pt x="862" y="-132" on="1"/>
        <pt x="863" y="-99" on="1"/>
        <pt x="870" y="-66" on="1"/>
        <pt x="867" y="-35" on="1"/>
        <pt x="865" y="-4" on="1"/>
        <pt x="866" y="30" on="1"/>
        <pt x="870" y="60" on="1"/>
        <pt x="861" y="92" on="1"/>
        <pt x="864" y="126" on="1"/>
        <pt x="866" y="157" on="1"/>
        <pt x="870" y="189" on="1"/>
        <pt x="861" y="223" on="1"/>
        <pt x="863" y="255" on="1"/>
        <pt x="860" y="288" on="1"/>
        <pt x="869" y="319" on="1"/>
        <pt x="863" y="352" on="1"/>
        <pt x="864" y="382" on="1"/>
        <pt x="870" y="414" on="1"/>
        <pt x="862" y="444" on="1"/>
        <pt x="866" y="476" on="1"/>
        <pt x="867" y="505" on="1"/>
        <pt x="870" y="567" on="1"/>
        <pt x="861" y="599" on="1"/>
        <pt x="869" y="630" on="1"/>
        <pt x="870" y="658" on="1"/>
        <pt x="862" y="691" on="1"/>
        <pt x="865" y="722" on="1"/>
        <pt x="861" y="753" on="1"/>
        <pt x="865" y="775" on="1"/>
        <pt x="867" y="799" on="1"/>
        <pt x="831" y="794" on="1"/>
        <pt x="799" y="791" on="1"/>
        <pt x="766" y="792" on="1"/>
        <pt x="731" y="791" on="1"/>
        <pt x="699" y="796" on="1"/>
        <pt x="665" y="795" on="1"/>
        <pt x="630" y="795" on="1"/>
        <pt x="597" y="800" on="1"/>
        <pt x="562" y="796" on="1"/>
        <pt x="529" y="793" on="1"/>
        <pt x="495" y="797" on="1"/>
        <pt x="463" y="798" on="1"/>
        <pt x="430" y="793" on="1"/>
        <pt x="398" y="792" on="1"/>
        <pt x="365" y="793" on="1"/>
        <pt x="333" y="793" on="1"/>
        <pt x="300" y="797" on="1"/>
        <pt x="268" y="793" on="1"/>
        <pt x="234" y="791" on="1"/>
        <pt x="201" y="794" on="1"/>
        <pt x="170" y="800" on="1"/>
        <pt x="142" y="797" on="1"/>
        <pt x="109" y="794" on="1"/>
        <pt x="78" y="798" on="1"/>
        <pt x="47" y="800" on="1"/>
        <pt x="25" y="793" on="1"/>
        <pt x="1" y="798" on="1"/>
        <pt x="3" y="762" on="1"/>
        <pt x="0" y="731" on="1"/>
        <pt x="8" y="699" on="1"/>
        <pt x="4" y="666" on="1"/>
        <pt x="9" y="635" on="1"/>
        <pt x="1" y="603" on="1"/>
        <pt x="6" y="570" on="1"/>
        <pt x="6" y="507" on="1"/>
        <pt x="9" y="474" on="1"/>
        <pt x="1" y="443" on="1"/>
        <pt x="3" y="411" on="1"/>
        <pt x="9" y="377" on="1"/>
        <pt x="3" y="345" on="1"/>
        <pt x="3" y="312" on="1"/>
        <pt x="8" y="281" on="1"/>
        <pt x="7" y="248" on="1"/>
        <pt x="2" y="218" on="1"/>
        <pt x="8" y="186" on="1"/>
        <pt x="4" y="156" on="1"/>
        <pt x="5" y="124" on="1"/>
        <pt x="0" y="95" on="1"/>
        <pt x="2" y="63" on="1"/>
        <pt x="7" y="33" on="1"/>
        <pt x="1" y="0" on="1"/>
        <pt x="8" y="-30" on="1"/>
        <pt x="6" y="-58" on="1"/>
        <pt x="7" y="-91" on="1"/>
        <pt x="7" y="-123" on="1"/>
        <pt x="8" y="-153" on="1"/>
        <pt x="2" y="-175" on="1"/>
      </contour>
      <contour>
        <pt x="194" y="612" on="1"/>
        <pt x="262" y="612" on="1"/>
        <pt x="297" y="606" on="1"/>
        <pt x="329" y="608" on="1"/>
        <pt x="364" y="614" on="1"/>
        <pt x="397" y="606" on="1"/>
        <pt x="428" y="606" on="1"/>
        <pt x="463" y="608" on="1"/>
        <pt x="496" y="608" on="1"/>
        <pt x="527" y="615" on="1"/>
        <pt x="556" y="613" on="1"/>
        <pt x="592" y="607" on="1"/>
        <pt x="620" y="612" on="1"/>
        <pt x="642" y="607" on="1"/>
        <pt x="663" y="609" on="1"/>
        <pt x="664" y="574" on="1"/>
        <pt x="662" y="538" on="1"/>
        <pt x="666" y="502" on="1"/>
        <pt x="662" y="474" on="1"/>
        <pt x="664" y="454" on="1"/>
        <pt x="633" y="456" on="1"/>
        <pt x="598" y="451" on="1"/>
        <pt x="562" y="453" on="1"/>
        <pt x="529" y="454" on="1"/>
        <pt x="494" y="457" on="1"/>
        <pt x="465" y="450" on="1"/>
        <pt x="435" y="455" on="1"/>
        <pt x="406" y="455" on="1"/>
        <pt x="378" y="452" on="1"/>
        <pt x="351" y="454" on="1"/>
        <pt x="353" y="424" on="1"/>
        <pt x="351" y="396" on="1"/>
        <pt x="357" y="376" on="1"/>
        <pt x="388" y="373" on="1"/>
        <pt x="458" y="375" on="1"/>
        <pt x="488" y="370" on="1"/>
        <pt x="520" y="377" on="1"/>
        <pt x="554" y="378" on="1"/>
        <pt x="588" y="370" on="1"/>
        <pt x="614" y="372" on="1"/>
        <pt x="637" y="374" on="1"/>
        <pt x="637" y="338" on="1"/>
        <pt x="636" y="302" on="1"/>
        <pt x="640" y="266" on="1"/>
        <pt x="637" y="238" on="1"/>
        <pt x="636" y="218" on="1"/>
        <pt x="604" y="220" on="1"/>
        <pt x="567" y="220" on="1"/>
        <pt x="530" y="219" on="1"/>
        <pt x="497" y="213" on="1"/>
        <pt x="461" y="218" on="1"/>
        <pt x="432" y="222" on="1"/>
        <pt x="403" y="221" on="1"/>
        <pt x="376" y="222" on="1"/>
        <pt x="351" y="218" on="1"/>
        <pt x="355" y="188" on="1"/>
        <pt x="355" y="160" on="1"/>
        <pt x="356" y="139" on="1"/>
        <pt x="386" y="137" on="1"/>
        <pt x="419" y="133" on="1"/>
        <pt x="452" y="136" on="1"/>
        <pt x="489" y="137" on="1"/>
        <pt x="520" y="135" on="1"/>
        <pt x="553" y="140" on="1"/>
        <pt x="588" y="135" on="1"/>
        <pt x="614" y="140" on="1"/>
        <pt x="640" y="135" on="1"/>
        <pt x="663" y="137" on="1"/>
        <pt x="668" y="101" on="1"/>
        <pt x="661" y="66" on="1"/>
        <pt x="660" y="30" on="1"/>
        <pt x="667" y="-23" on="1"/>
        <pt x="631" y="-20" on="1"/>
        <pt x="596" y="-23" on="1"/>
        <pt x="563" y="-21" on="1"/>
        <pt x="532" y="-18" on="1"/>
        <pt x="499" y="-18" on="1"/>
        <pt x="468" y="-22" on="1"/>
        <pt x="434" y="-15" on="1"/>
        <pt x="403" y="-20" on="1"/>
        <pt x="368" y="-19" on="1"/>
        <pt x="334" y="-17" on="1"/>
        <pt x="301" y="-17" on="1"/>
        <pt x="270" y="-16" on="1"/>
        <pt x="239" y="-23" on="1"/>
        <pt x="210" y="-21" on="1"/>
        <pt x="195" y="-19" on="1"/>
        <pt x="199" y="14" on="1"/>
        <pt x="192" y="49" on="1"/>
        <pt x="193" y="81" on="1"/>
        <pt x="196" y="115" on="1"/>
        <pt x="200" y="147" on="1"/>
        <pt x="192" y="180" on="1"/>
        <pt x="199" y="211" on="1"/>
        <pt x="200" y="244" on="1"/>
        <pt x="195" y="275" on="1"/>
        <pt x="192" y="308" on="1"/>
        <pt x="191" y="339" on="1"/>
        <pt x="193" y="373" on="1"/>
        <pt x="191" y="405" on="1"/>
        <pt x="192" y="434" on="1"/>
        <pt x="195" y="468" on="1"/>
        <pt x="198" y="499" on="1"/>
        <pt x="197" y="530" on="1"/>
        <pt x="191" y="559" on="1"/>
      </contour>
    </TTGlyph>
    <TTGlyph name="F" xMin="0" yMin="-200" xMax="869" yMax="800">
      <contour>
        <pt x="3" y="-199" on="1"/>
        <pt x="39" y="-196" on="1"/>
        <pt x="71" y="-197" on="1"/>
        <pt x="104" y="-197" on="1"/>
        <pt x="139" y="-196" on="1"/>
        <pt x="171" y="-197" on="1"/>
        <pt x="205" y="-196" on="1"/>
        <pt x="240" y="-199" on="1"/>
        <pt x="273" y="-200" on="1"/>
        <pt x="308" y="-197" on="1"/>
        <pt x="340" y="-193" on="1"/>
        <pt x="374" y="-199" on="1"/>
        <pt x="406" y="-197" on="1"/>
        <pt x="440" y="-198" on="1"/>
        <pt x="471" y="-192" on="1"/>
        <pt x="505" y="-191" on="1"/>
        <pt x="536" y="-199" on="1"/>
        <pt x="570" y="-195" on="1"/>
        <pt x="601" y="-200" on="1"/>
        <pt x="636" y="-191" on="1"/>
        <pt x="668" y="-197" on="1"/>
        <pt x="699" y="-191" on="1"/>
        <pt x="727" y="-199" on="1"/>
        <pt x="760" y="-198" on="1"/>
        <pt x="791" y="-197" on="1"/>
        <pt x="822" y="-191" on="1"/>
        <pt x="844" y="-198" on="1"/>
        <pt x="866" y="-196" on="1"/>
        <pt x="866" y="-162" on="1"/>
        <pt x="866" y="-131" on="1"/>
        <pt x="862" y="-99" on="1"/>
        <pt x="868" y="-66" on="1"/>
        <pt x="864" y="-35" on="1"/>
        <pt x="868" y="-3" on="1"/>
        <pt x="865" y="30" on="1"/>
        <pt x="862" y="61" on="1"/>
        <pt x="860" y="93" on="1"/>
        <pt x="868" y="126" on="1"/>
        <pt x="868" y="157" on="1"/>
        <pt x="863" y="189" on="1"/>
        <pt x="869" y="223" on="1"/>
        <pt x="861" y="255" on="1"/>
        <pt x="862" y="288" on="1"/>
        <pt x="860" y="319" on="1"/>
        <pt x="863" y="352" on="1"/>
        <pt x="869" y="382" on="1"/>
        <pt x="869" y="414" on="1"/>
        <pt x="863" y="444" on="1"/>
        <pt x="861" y="475" on="1"/>
        <pt x="864" y="505" on="1"/>
        <pt x="868" y="537" on="1"/>
        <pt x="864" y="599" on="1"/>
        <pt x="869" y="629" on="1"/>
        <pt x="863" y="658" on="1"/>
        <pt x="860" y="690" on="1"/>
        <pt x="861" y="722" on="1"/>
        <pt x="868" y="753" on="1"/>
        <pt x="861" y="775" on="1"/>
        <pt x="864" y="794" on="1"/>
        <pt x="830" y="797" on="1"/>
        <pt x="798" y="797" on="1"/>
        <pt x="765" y="800" on="1"/>
        <pt x="730" y="796" on="1"/>
        <pt x="698" y="797" on="1"/>
        <pt x="664" y="791" on="1"/>
        <pt x="629" y="797" on="1"/>
        <pt x="596" y="796" on="1"/>
        <pt x="562" y="794" on="1"/>
        <pt x="529" y="793" on="1"/>
        <pt x="495" y="790" on="1"/>
        <pt x="463" y="796" on="1"/>
        <pt x="430" y="793" on="1"/>
        <pt x="398" y="795" on="1"/>
        <pt x="365" y="792" on="1"/>
        <pt x="333" y="790" on="1"/>
        <pt x="300" y="796" on="1"/>
        <pt x="268" y="799" on="1"/>
        <pt x="234" y="795" on="1"/>
        <pt x="201" y="797" on="1"/>
        <pt x="170" y="800" on="1"/>
        <pt x="142" y="800" on="1"/>
        <pt x="110" y="795" on="1"/>
        <pt x="78" y="793" on="1"/>
        <pt x="47" y="800" on="1"/>
        <pt x="25" y="795" on="1"/>
        <pt x="1" y="797" on="1"/>
        <pt x="1" y="762" on="1"/>
        <pt x="8" y="731" on="1"/>
        <pt x="4" y="666" on="1"/>
        <pt x="6" y="635" on="1"/>
        <pt x="6" y="603" on="1"/>
        <pt x="4" y="570" on="1"/>
        <pt x="7" y="539" on="1"/>
        <pt x="6" y="507" on="1"/>
        <pt x="1" y="474" on="1"/>
        <pt x="3" y="443" on="1"/>
        <pt x="1" y="410" on="1"/>
        <pt x="7" y="376" on="1"/>
        <pt x="6" y="345" on="1"/>
        <pt x="8" y="312" on="1"/>
        <pt x="1" y="281" on="1"/>
        <pt x="5" y="248" on="1"/>
        <pt x="5" y="218" on="1"/>
        <pt x="1" y="186" on="1"/>
        <pt x="8" y="156" on="1"/>
        <pt x="8" y="124" on="1"/>
        <pt x="0" y="95" on="1"/>
        <pt x="2" y="63" on="1"/>
        <pt x="9" y="33" on="1"/>
        <pt x="7" y="1" on="1"/>
        <pt x="3" y="-30" on="1"/>
        <pt x="2" y="-58" on="1"/>
        <pt x="2" y="-91" on="1"/>
        <pt x="7" y="-122" on="1"/>
        <pt x="7" y="-153" on="1"/>
        <pt x="5" y="-175" on="1"/>
      </contour>
      <contour>
        <pt x="221" y="611" on="1"/>
        <pt x="257" y="611" on="1"/>
        <pt x="289" y="610" on="1"/>
        <pt x="323" y="614" on="1"/>
        <pt x="356" y="608" on="1"/>
        <pt x="391" y="609" on="1"/>
        <pt x="455" y="606" on="1"/>
        <pt x="489" y="608" on="1"/>
        <pt x="522" y="607" on="1"/>
        <pt x="553" y="609" on="1"/>
        <pt x="618" y="606" on="1"/>
        <pt x="646" y="609" on="1"/>
        <pt x="669" y="614" on="1"/>
        <pt x="692" y="611" on="1"/>
        <pt x="692" y="574" on="1"/>
        <pt x="694" y="538" on="1"/>
        <pt x="694" y="502" on="1"/>
        <pt x="688" y="474" on="1"/>
        <pt x="687" y="455" on="1"/>
        <pt x="659" y="454" on="1"/>
        <pt x="624" y="455" on="1"/>
        <pt x="588" y="448" on="1"/>
        <pt x="556" y="449" on="1"/>
        <pt x="521" y="451" on="1"/>
        <pt x="492" y="452" on="1"/>
        <pt x="462" y="452" on="1"/>
        <pt x="433" y="450" on="1"/>
        <pt x="405" y="449" on="1"/>
        <pt x="378" y="453" on="1"/>
        <pt x="381" y="424" on="1"/>
        <pt x="374" y="395" on="1"/>
        <pt x="382" y="375" on="1"/>
        <pt x="414" y="373" on="1"/>
        <pt x="450" y="379" on="1"/>
        <pt x="484" y="378" on="1"/>
        <pt x="514" y="375" on="1"/>
        <pt x="547" y="372" on="1"/>
        <pt x="580" y="376" on="1"/>
        <pt x="614" y="379" on="1"/>
        <pt x="640" y="371" on="1"/>
        <pt x="666" y="375" on="1"/>
        <pt x="664" y="338" on="1"/>
        <pt x="660" y="302" on="1"/>
        <pt x="669" y="266" on="1"/>
        <pt x="662" y="238" on="1"/>
        <pt x="662" y="219" on="1"/>
        <pt x="630" y="214" on="1"/>
        <pt x="594" y="221" on="1"/>
        <pt x="557" y="222" on="1"/>
        <pt x="523" y="215" on="1"/>
        <pt x="459" y="219" on="1"/>
        <pt x="430" y="222" on="1"/>
        <pt x="402" y="213" on="1"/>
        <pt x="379" y="217" on="1"/>
        <pt x="381" y="183" on="1"/>
        <pt x="379" y="152" on="1"/>
        <pt x="377" y="117" on="1"/>
        <pt x="380" y="85" on="1"/>
        <pt x="382" y="26" on="1"/>
        <pt x="381" y="1" on="1"/>
        <pt x="379" y="-16" on="1"/>
        <pt x="343" y="-16" on="1"/>
        <pt x="307" y="-19" on="1"/>
        <pt x="271" y="-18" on="1"/>
        <pt x="243" y="-16" on="1"/>
        <pt x="219" y="-20" on="1"/>
        <pt x="224" y="15" on="1"/>
        <pt x="223" y="49" on="1"/>
        <pt x="218" y="81" on="1"/>
        <pt x="220" y="115" on="1"/>
        <pt x="225" y="147" on="1"/>
        <pt x="223" y="180" on="1"/>
        <pt x="219" y="211" on="1"/>
        <pt x="218" y="244" on="1"/>
        <pt x="217" y="275" on="1"/>
        <pt x="226" y="308" on="1"/>
        <pt x="225" y="339" on="1"/>
        <pt x="218" y="373" on="1"/>
        <pt x="225" y="405" on="1"/>
        <pt x="222" y="434" on="1"/>
        <pt x="223" y="467" on="1"/>
        <pt x="220" y="499" on="1"/>
        <pt x="218" y="529" on="1"/>
        <pt x="223" y="558" on="1"/>
        <pt x="222" y="586" on="1"/>
      </contour>
    </TTGlyph>
    <TTGlyph name="G" xMin="0" yMin="-200" xMax="870" yMax="800">
      <contour>
        <pt x="2" y="-199" on="1"/>
        <pt x="39" y="-195" on="1"/>
        <pt x="71" y="-195" on="1"/>
        <pt x="104" y="-194" on="1"/>
        <pt x="139" y="-190" on="1"/>
        <pt x="171" y="-199" on="1"/>
        <pt x="205" y="-197" on="1"/>
        <pt x="240" y="-192" on="1"/>
        <pt x="273" y="-194" on="1"/>
        <pt x="308" y="-191" on="1"/>
        <pt x="340" y="-196" on="1"/>
        <pt x="374" y="-192" on="1"/>
        <pt x="406" y="-195" on="1"/>
        <pt x="440" y="-200" on="1"/>
        <pt x="471" y="-191" on="1"/>
        <pt x="505" y="-193" on="1"/>
        <pt x="536" y="-198" on="1"/>
        <pt x="570" y="-196" on="1"/>
        <pt x="601" y="-191" on="1"/>
        <pt x="636" y="-199" on="1"/>
        <pt x="668" y="-196" on="1"/>
        <pt x="699" y="-195" on="1"/>
        <pt x="727" y="-196" on="1"/>
        <pt x="760" y="-194" on="1"/>
        <pt x="791" y="-195" on="1"/>
        <pt x="822" y="-200" on="1"/>
        <pt x="844" y="-191" on="1"/>
        <pt x="862" y="-194" on="1"/>
        <pt x="867" y="-162" on="1"/>
        <pt x="868" y="-131" on="1"/>
        <pt x="866" y="-99" on="1"/>
        <pt x="866" y="-66" on="1"/>
        <pt x="869" y="-35" on="1"/>
        <pt x="867" y="-3" on="1"/>
        <pt x="862" y="30" on="1"/>
        <pt x="868" y="61" on="1"/>
        <pt x="863" y="93" on="1"/>
        <pt x="863" y="126" on="1"/>
        <pt x="861" y="157" on="1"/>
        <pt x="868" y="189" on="1"/>
        <pt x="870" y="223" on="1"/>
        <pt x="861" y="255" on="1"/>
        <pt x="868" y="288" on="1"/>
        <pt x="869" y="319" on="1"/>
        <pt x="863" y="352" on="1"/>
        <pt x="863" y="382" on="1"/>
        <pt x="865" y="414" on="1"/>
        <pt x="864" y="444" on="1"/>
        <pt x="864" y="476" on="1"/>
        <pt x="864" y="505" on="1"/>
        <pt x="867" y="537" on="1"/>
        <pt x="863" y="566" on="1"/>
        <pt x="862" y="599" on="1"/>
        <pt x="868" y="630" on="1"/>
        <pt x="867" y="658" on="1"/>
        <pt x="863" y="691" on="1"/>
        <pt x="868" y="753" on="1"/>
        <pt x="861" y="775" on="1"/>
        <pt x="863" y="792" on="1"/>
        <pt x="830" y="796" on="1"/>
        <pt x="798" y="793" on="1"/>
        <pt x="765" y="800" on="1"/>
        <pt x="731" y="795" on="1"/>
        <pt x="698" y="791" on="1"/>
        <pt x="664" y="795" on="1"/>
        <pt x="629" y="794" on="1"/>
        <pt x="596" y="795" on="1"/>
        <pt x="562" y="797" on="1"/>
        <pt x="529" y="798" on="1"/>
        <pt x="495" y="797" on="1"/>
        <pt x="463" y="794" on="1"/>
        <pt x="430" y="792" on="1"/>
        <pt x="398" y="797" on="1"/>
        <pt x="365" y="792" on="1"/>
        <pt x="333" y="792" on="1"/>
        <pt x="300" y="793" on="1"/>
        <pt x="268" y="798" on="1"/>
        <pt x="234" y="797" on="1"/>
        <pt x="201" y="791" on="1"/>
        <pt x="170" y="794" on="1"/>
        <pt x="110" y="791" on="1"/>
        <pt x="78" y="796" on="1"/>
        <pt x="48" y="793" on="1"/>
        <pt x="26" y="794" on="1"/>
        <pt x="4" y="796" on="1"/>
        <pt x="6" y="762" on="1"/>
        <pt x="3" y="731" on="1"/>
        <pt x="2" y="699" on="1"/>
        <pt x="5" y="666" on="1"/>
        <pt x="1" y="635" on="1"/>
        <pt x="8" y="539" on="1"/>
        <pt x="3" y="507" on="1"/>
        <pt x="0" y="474" on="1"/>
        <pt x="8" y="443" on="1"/>
        <pt x="2" y="411" on="1"/>
        <pt x="9" y="377" on="1"/>
        <pt x="10" y="345" on="1"/>
        <pt x="2" y="312" on="1"/>
        <pt x="3" y="281" on="1"/>
        <pt x="9" y="218" on="1"/>
        <pt x="5" y="186" on="1"/>
        <pt x="7" y="156" on="1"/>
        <pt x="3" y="124" on="1"/>
        <pt x="4" y="95" on="1"/>
        <pt x="6" y="63" on="1"/>
        <pt x="2" y="34" on="1"/>
        <pt x="8" y="1" on="1"/>
        <pt x="9" y="-30" on="1"/>
        <pt x="7" y="-58" on="1"/>
        <pt x="3" y="-91" on="1"/>
        <pt x="3" y="-153" on="1"/>
        <pt x="4" y="-175" on="1"/>
      </contour>
      <contour>
        <pt x="431" y="627" on="1"/>
        <pt x="464" y="624" on="1"/>
        <pt x="497" y="621" on="1"/>
        <pt x="527" y="606" on="1"/>
        <pt x="559" y="599" on="1"/>
        <pt x="589" y="587" on="1"/>
        <pt x="617" y="570" on="1"/>
        <pt x="639" y="546" on="1"/>
        <pt x="665" y="527" on="1"/>
        <pt x="680" y="505" on="1"/>
        <pt x="696" y="483" on="1"/>
        <pt x="712" y="461" on="1"/>
        <pt x="723" y="443" on="1"/>
        <pt x="737" y="414" on="1"/>
        <pt x="708" y="410" on="1"/>
        <pt x="677" y="409" on="1"/>
        <pt x="642" y="416" on="1"/>
        <pt x="613" y="408" on="1"/>
        <pt x="579" y="412" on="1"/>
        <pt x="557" y="409" on="1"/>
        <pt x="548" y="416" on="1"/>
        <pt x="522" y="443" on="1"/>
        <pt x="492" y="457" on="1"/>
        <pt x="461" y="468" on="1"/>
        <pt x="431" y="470" on="1"/>
        <pt x="398" y="461" on="1"/>
        <pt x="364" y="459" on="1"/>
        <pt x="340" y="436" on="1"/>
        <pt x="309" y="422" on="1"/>
        <pt x="292" y="395" on="1"/>
        <pt x="271" y="370" on="1"/>
        <pt x="268" y="342" on="1"/>
        <pt x="264" y="316" on="1"/>
        <pt x="257" y="295" on="1"/>
        <pt x="264" y="262" on="1"/>
        <pt x="275" y="232" on="1"/>
        <pt x="289" y="203" on="1"/>
        <pt x="304" y="174" on="1"/>
        <pt x="330" y="154" on="1"/>
        <pt x="358" y="137" on="1"/>
        <pt x="384" y="131" on="1"/>
        <pt x="410" y="127" on="1"/>
        <pt x="431" y="128" on="1"/>
        <pt x="464" y="123" on="1"/>
        <pt x="495" y="136" on="1"/>
        <pt x="517" y="152" on="1"/>
        <pt x="538" y="163" on="1"/>
        <pt x="508" y="161" on="1"/>
        <pt x="438" y="160" on="1"/>
        <pt x="414" y="165" on="1"/>
        <pt x="411" y="201" on="1"/>
        <pt x="411" y="236" on="1"/>
        <pt x="412" y="272" on="1"/>
        <pt x="413" y="301" on="1"/>
        <pt x="415" y="317" on="1"/>
        <pt x="447" y="323" on="1"/>
        <pt x="484" y="321" on="1"/>
        <pt x="520" y="321" on="1"/>
        <pt x="554" y="323" on="1"/>
        <pt x="586" y="317" on="1"/>
        <pt x="617" y="323" on="1"/>
        <pt x="653" y="325" on="1"/>
        <pt x="689" y="320" on="1"/>
        <pt x="717" y="322" on="1"/>
        <pt x="737" y="320" on="1"/>
        <pt x="758" y="320" on="1"/>
        <pt x="757" y="288" on="1"/>
        <pt x="761" y="252" on="1"/>
        <pt x="764" y="187" on="1"/>
        <pt x="757" y="157" on="1"/>
        <pt x="754" y="124" on="1"/>
        <pt x="760" y="92" on="1"/>
        <pt x="758" y="62" on="1"/>
        <pt x="755" y="33" on="1"/>
        <pt x="760" y="5" on="1"/>
        <pt x="760" y="-21" on="1"/>
        <pt x="722" y="-20" on="1"/>
        <pt x="686" y="-15" on="1"/>
        <pt x="650" y="-14" on="1"/>
        <pt x="622" y="-18" on="1"/>
        <pt x="602" y="-18" on="1"/>
        <pt x="601" y="16" on="1"/>
        <pt x="573" y="0" on="1"/>
        <pt x="542" y="-12" on="1"/>
        <pt x="513" y="-27" on="1"/>
        <pt x="485" y="-29" on="1"/>
        <pt x="458" y="-34" on="1"/>
        <pt x="431" y="-31" on="1"/>
        <pt x="397" y="-32" on="1"/>
        <pt x="364" y="-27" on="1"/>
        <pt x="332" y="-18" on="1"/>
        <pt x="302" y="-6" on="1"/>
        <pt x="273" y="9" on="1"/>
        <pt x="246" y="26" on="1"/>
        <pt x="218" y="43" on="1"/>
        <pt x="198" y="67" on="1"/>
        <pt x="173" y="88" on="1"/>
        <pt x="158" y="117" on="1"/>
        <pt x="142" y="144" on="1"/>
        <pt x="122" y="170" on="1"/>
        <pt x="119" y="203" on="1"/>
        <pt x="106" y="233" on="1"/>
        <pt x="101" y="265" on="1"/>
        <pt x="99" y="295" on="1"/>
        <pt x="107" y="329" on="1"/>
        <pt x="112" y="362" on="1"/>
        <pt x="122" y="393" on="1"/>
        <pt x="132" y="423" on="1"/>
        <pt x="146" y="452" on="1"/>
        <pt x="163" y="480" on="1"/>
        <pt x="177" y="509" on="1"/>
        <pt x="203" y="528" on="1"/>
        <pt x="228" y="548" on="1"/>
        <pt x="251" y="571" on="1"/>
        <pt x="280" y="584" on="1"/>
        <pt x="308" y="599" on="1"/>
        <pt x="339" y="606" on="1"/>
        <pt x="369" y="617" on="1"/>
        <pt x="401" y="624" on="1"/>
      </contour>
    </TTGlyph>
    <TTGlyph name="H" xMin="0" yMin="-200" xMax="871" yMax="800">
      <contour>
        <pt x="2" y="-200" on="1"/>
        <pt x="39" y="-192" on="1"/>
        <pt x="71" y="-194" on="1"/>
        <pt x="139" y="-196" on="1"/>
        <pt x="172" y="-195" on="1"/>
        <pt x="205" y="-191" on="1"/>
        <pt x="241" y="-196" on="1"/>
        <pt x="274" y="-193" on="1"/>
        <pt x="308" y="-198" on="1"/>
        <pt x="341" y="-194" on="1"/>
        <pt x="375" y="-199" on="1"/>
        <pt x="407" y="-196" on="1"/>
        <pt x="441" y="-198" on="1"/>
        <pt x="472" y="-193" on="1"/>
        <pt x="506" y="-200" on="1"/>
        <pt x="537" y="-192" on="1"/>
        <pt x="571" y="-194" on="1"/>
        <pt x="602" y="-198" on="1"/>
        <pt x="670" y="-194" on="1"/>
        <pt x="700" y="-199" on="1"/>
        <pt x="728" y="-198" on="1"/>
        <pt x="761" y="-191" on="1"/>
        <pt x="793" y="-191" on="1"/>
        <pt x="823" y="-200" on="1"/>
        <pt x="845" y="-197" on="1"/>
        <pt x="865" y="-195" on="1"/>
        <pt x="871" y="-163" on="1"/>
        <pt x="866" y="-132" on="1"/>
        <pt x="869" y="-99" on="1"/>
        <pt x="869" y="-66" on="1"/>
        <pt x="864" y="-35" on="1"/>
        <pt x="866" y="-3" on="1"/>
        <pt x="869" y="30" on="1"/>
        <pt x="863" y="60" on="1"/>
        <pt x="869" y="93" on="1"/>
        <pt x="868" y="126" on="1"/>
        <pt x="871" y="157" on="1"/>
        <pt x="870" y="189" on="1"/>
        <pt x="869" y="223" on="1"/>
        <pt x="868" y="255" on="1"/>
        <pt x="867" y="288" on="1"/>
        <pt x="863" y="319" on="1"/>
        <pt x="867" y="352" on="1"/>
        <pt x="862" y="414" on="1"/>
        <pt x="869" y="444" on="1"/>
        <pt x="862" y="476" on="1"/>
        <pt x="865" y="505" on="1"/>
        <pt x="864" y="537" on="1"/>
        <pt x="868" y="567" on="1"/>
        <pt x="864" y="600" on="1"/>
        <pt x="868" y="630" on="1"/>
        <pt x="863" y="659" on="1"/>
        <pt x="863" y="691" on="1"/>
        <pt x="870" y="723" on="1"/>
        <pt x="870" y="754" on="1"/>
        <pt x="868" y="776" on="1"/>
        <pt x="866" y="795" on="1"/>
        <pt x="832" y="797" on="1"/>
        <pt x="800" y="795" on="1"/>
        <pt x="766" y="796" on="1"/>
        <pt x="732" y="794" on="1"/>
        <pt x="699" y="800" on="1"/>
        <pt x="666" y="798" on="1"/>
        <pt x="630" y="793" on="1"/>
        <pt x="597" y="795" on="1"/>
        <pt x="563" y="792" on="1"/>
        <pt x="530" y="800" on="1"/>
        <pt x="496" y="799" on="1"/>
        <pt x="464" y="794" on="1"/>
        <pt x="430" y="793" on="1"/>
        <pt x="399" y="794" on="1"/>
        <pt x="365" y="794" on="1"/>
        <pt x="334" y="797" on="1"/>
        <pt x="300" y="797" on="1"/>
        <pt x="269" y="792" on="1"/>
        <pt x="234" y="800" on="1"/>
        <pt x="201" y="799" on="1"/>
        <pt x="171" y="791" on="1"/>
        <pt x="143" y="798" on="1"/>
        <pt x="110" y="798" on="1"/>
        <pt x="78" y="797" on="1"/>
        <pt x="48" y="800" on="1"/>
        <pt x="26" y="795" on="1"/>
        <pt x="7" y="795" on="1"/>
        <pt x="0" y="763" on="1"/>
        <pt x="4" y="732" on="1"/>
        <pt x="9" y="700" on="1"/>
        <pt x="0" y="667" on="1"/>
        <pt x="6" y="636" on="1"/>
        <pt x="4" y="604" on="1"/>
        <pt x="9" y="571" on="1"/>
        <pt x="9" y="540" on="1"/>
        <pt x="5" y="508" on="1"/>
        <pt x="5" y="474" on="1"/>
        <pt x="7" y="443" on="1"/>
        <pt x="1" y="411" on="1"/>
        <pt x="1" y="377" on="1"/>
        <pt x="3" y="345" on="1"/>
        <pt x="0" y="312" on="1"/>
        <pt x="1" y="281" on="1"/>
        <pt x="7" y="248" on="1"/>
        <pt x="5" y="186" on="1"/>
        <pt x="0" y="156" on="1"/>
        <pt x="3" y="124" on="1"/>
        <pt x="2" y="95" on="1"/>
        <pt x="3" y="63" on="1"/>
        <pt x="0" y="33" on="1"/>
        <pt x="1" y="1" on="1"/>
        <pt x="7" y="-30" on="1"/>
        <pt x="4" y="-58" on="1"/>
        <pt x="6" y="-91" on="1"/>
        <pt x="8" y="-123" on="1"/>
        <pt x="1" y="-153" on="1"/>
        <pt x="5" y="-175" on="1"/>
      </contour>
      <contour>
        <pt x="181" y="613" on="1"/>
        <pt x="219" y="613" on="1"/>
        <pt x="255" y="610" on="1"/>
        <pt x="339" y="610" on="1"/>
        <pt x="342" y="578" on="1"/>
        <pt x="336" y="546" on="1"/>
        <pt x="339" y="515" on="1"/>
        <pt x="341" y="481" on="1"/>
        <pt x="336" y="453" on="1"/>
        <pt x="339" y="425" on="1"/>
        <pt x="341" y="398" on="1"/>
        <pt x="340" y="379" on="1"/>
        <pt x="372" y="378" on="1"/>
        <pt x="402" y="372" on="1"/>
        <pt x="438" y="372" on="1"/>
        <pt x="474" y="371" on="1"/>
        <pt x="503" y="377" on="1"/>
        <pt x="524" y="374" on="1"/>
        <pt x="522" y="409" on="1"/>
        <pt x="521" y="440" on="1"/>
        <pt x="528" y="476" on="1"/>
        <pt x="523" y="507" on="1"/>
        <pt x="521" y="540" on="1"/>
        <pt x="528" y="566" on="1"/>
        <pt x="524" y="591" on="1"/>
        <pt x="524" y="608" on="1"/>
        <pt x="560" y="612" on="1"/>
        <pt x="595" y="615" on="1"/>
        <pt x="660" y="607" on="1"/>
        <pt x="680" y="610" on="1"/>
        <pt x="680" y="578" on="1"/>
        <pt x="676" y="543" on="1"/>
        <pt x="682" y="511" on="1"/>
        <pt x="681" y="477" on="1"/>
        <pt x="685" y="446" on="1"/>
        <pt x="682" y="412" on="1"/>
        <pt x="683" y="381" on="1"/>
        <pt x="679" y="348" on="1"/>
        <pt x="677" y="317" on="1"/>
        <pt x="684" y="284" on="1"/>
        <pt x="682" y="253" on="1"/>
        <pt x="678" y="219" on="1"/>
        <pt x="677" y="187" on="1"/>
        <pt x="679" y="158" on="1"/>
        <pt x="676" y="124" on="1"/>
        <pt x="677" y="93" on="1"/>
        <pt x="683" y="62" on="1"/>
        <pt x="680" y="33" on="1"/>
        <pt x="681" y="5" on="1"/>
        <pt x="680" y="-18" on="1"/>
        <pt x="644" y="-19" on="1"/>
        <pt x="608" y="-17" on="1"/>
        <pt x="572" y="-20" on="1"/>
        <pt x="544" y="-17" on="1"/>
        <pt x="521" y="-22" on="1"/>
        <pt x="525" y="14" on="1"/>
        <pt x="521" y="46" on="1"/>
        <pt x="520" y="77" on="1"/>
        <pt x="521" y="111" on="1"/>
        <pt x="524" y="139" on="1"/>
        <pt x="522" y="167" on="1"/>
        <pt x="525" y="194" on="1"/>
        <pt x="524" y="222" on="1"/>
        <pt x="491" y="217" on="1"/>
        <pt x="461" y="213" on="1"/>
        <pt x="425" y="216" on="1"/>
        <pt x="389" y="217" on="1"/>
        <pt x="360" y="213" on="1"/>
        <pt x="339" y="221" on="1"/>
        <pt x="345" y="183" on="1"/>
        <pt x="335" y="152" on="1"/>
        <pt x="345" y="117" on="1"/>
        <pt x="336" y="85" on="1"/>
        <pt x="337" y="52" on="1"/>
        <pt x="340" y="26" on="1"/>
        <pt x="336" y="1" on="1"/>
        <pt x="339" y="-15" on="1"/>
        <pt x="303" y="-21" on="1"/>
        <pt x="268" y="-19" on="1"/>
        <pt x="232" y="-22" on="1"/>
        <pt x="203" y="-22" on="1"/>
        <pt x="186" y="-16" on="1"/>
        <pt x="180" y="14" on="1"/>
        <pt x="181" y="49" on="1"/>
        <pt x="179" y="81" on="1"/>
        <pt x="186" y="115" on="1"/>
        <pt x="187" y="147" on="1"/>
        <pt x="187" y="180" on="1"/>
        <pt x="181" y="211" on="1"/>
        <pt x="185" y="244" on="1"/>
        <pt x="187" y="275" on="1"/>
        <pt x="179" y="309" on="1"/>
        <pt x="185" y="339" on="1"/>
        <pt x="186" y="373" on="1"/>
        <pt x="179" y="405" on="1"/>
        <pt x="181" y="435" on="1"/>
        <pt x="186" y="468" on="1"/>
        <pt x="178" y="500" on="1"/>
        <pt x="180" y="530" on="1"/>
        <pt x="179" y="559" on="1"/>
        <pt x="187" y="587" on="1"/>
      </contour>
    </TTGlyph>
    <TTGlyph name="I" xMin="0" yMin="-200" xMax="869" yMax="800">
      <contour>
        <pt x="4" y="-197" on="1"/>
        <pt x="39" y="-200" on="1"/>
        <pt x="71" y="-191" on="1"/>
        <pt x="104" y="-198" on="1"/>
        <pt x="139" y="-195" on="1"/>
        <pt x="171" y="-193" on="1"/>
        <pt x="240" y="-193" on="1"/>
        <pt x="308" y="-191" on="1"/>
        <pt x="340" y="-192" on="1"/>
        <pt x="374" y="-196" on="1"/>
        <pt x="406" y="-193" on="1"/>
        <pt x="440" y="-195" on="1"/>
        <pt x="471" y="-197" on="1"/>
        <pt x="505" y="-193" on="1"/>
        <pt x="536" y="-198" on="1"/>
        <pt x="570" y="-195" on="1"/>
        <pt x="601" y="-191" on="1"/>
        <pt x="636" y="-198" on="1"/>
        <pt x="668" y="-199" on="1"/>
        <pt x="791" y="-193" on="1"/>
        <pt x="822" y="-194" on="1"/>
        <pt x="844" y="-200" on="1"/>
        <pt x="868" y="-198" on="1"/>
        <pt x="862" y="-162" on="1"/>
        <pt x="869" y="-131" on="1"/>
        <pt x="866" y="-99" on="1"/>
        <pt x="866" y="-66" on="1"/>
        <pt x="864" y="-35" on="1"/>
        <pt x="865" y="-3" on="1"/>
        <pt x="865" y="30" on="1"/>
        <pt x="867" y="61" on="1"/>
        <pt x="864" y="93" on="1"/>
        <pt x="860" y="126" on="1"/>
        <pt x="862" y="157" on="1"/>
        <pt x="861" y="189" on="1"/>
        <pt x="866" y="223" on="1"/>
        <pt x="866" y="255" on="1"/>
        <pt x="862" y="288" on="1"/>
        <pt x="867" y="319" on="1"/>
        <pt x="860" y="352" on="1"/>
        <pt x="862" y="382" on="1"/>
        <pt x="868" y="414" on="1"/>
        <pt x="862" y="444" on="1"/>
        <pt x="866" y="476" on="1"/>
        <pt x="865" y="505" on="1"/>
        <pt x="868" y="537" on="1"/>
        <pt x="866" y="566" on="1"/>
        <pt x="866" y="599" on="1"/>
        <pt x="862" y="630" on="1"/>
        <pt x="860" y="658" on="1"/>
        <pt x="860" y="690" on="1"/>
        <pt x="865" y="722" on="1"/>
        <pt x="864" y="753" on="1"/>
        <pt x="862" y="775" on="1"/>
        <pt x="865" y="797" on="1"/>
        <pt x="830" y="798" on="1"/>
        <pt x="798" y="792" on="1"/>
        <pt x="765" y="800" on="1"/>
        <pt x="730" y="790" on="1"/>
        <pt x="698" y="794" on="1"/>
        <pt x="664" y="795" on="1"/>
        <pt x="629" y="793" on="1"/>
        <pt x="596" y="795" on="1"/>
        <pt x="561" y="794" on="1"/>
        <pt x="529" y="795" on="1"/>
        <pt x="495" y="794" on="1"/>
        <pt x="463" y="795" on="1"/>
        <pt x="429" y="798" on="1"/>
        <pt x="398" y="795" on="1"/>
        <pt x="364" y="799" on="1"/>
        <pt x="333" y="793" on="1"/>
        <pt x="299" y="791" on="1"/>
        <pt x="268" y="793" on="1"/>
        <pt x="233" y="793" on="1"/>
        <pt x="201" y="792" on="1"/>
        <pt x="170" y="799" on="1"/>
        <pt x="142" y="795" on="1"/>
        <pt x="109" y="797" on="1"/>
        <pt x="78" y="796" on="1"/>
        <pt x="47" y="791" on="1"/>
        <pt x="25" y="795" on="1"/>
        <pt x="3" y="796" on="1"/>
        <pt x="5" y="762" on="1"/>
        <pt x="7" y="731" on="1"/>
        <pt x="8" y="699" on="1"/>
        <pt x="6" y="666" on="1"/>
        <pt x="0" y="635" on="1"/>
        <pt x="3" y="603" on="1"/>
        <pt x="1" y="570" on="1"/>
        <pt x="2" y="539" on="1"/>
        <pt x="8" y="507" on="1"/>
        <pt x="1" y="474" on="1"/>
        <pt x="2" y="443" on="1"/>
        <pt x="1" y="410" on="1"/>
        <pt x="1" y="377" on="1"/>
        <pt x="8" y="345" on="1"/>
        <pt x="4" y="312" on="1"/>
        <pt x="0" y="281" on="1"/>
        <pt x="5" y="248" on="1"/>
        <pt x="3" y="218" on="1"/>
        <pt x="6" y="186" on="1"/>
        <pt x="1" y="156" on="1"/>
        <pt x="9" y="124" on="1"/>
        <pt x="9" y="95" on="1"/>
        <pt x="4" y="63" on="1"/>
        <pt x="5" y="33" on="1"/>
        <pt x="9" y="1" on="1"/>
        <pt x="7" y="-30" on="1"/>
        <pt x="8" y="-58" on="1"/>
        <pt x="7" y="-91" on="1"/>
        <pt x="1" y="-122" on="1"/>
        <pt x="4" y="-153" on="1"/>
        <pt x="8" y="-175" on="1"/>
      </contour>
      <contour>
        <pt x="340" y="610" on="1"/>
        <pt x="374" y="607" on="1"/>
        <pt x="405" y="606" on="1"/>
        <pt x="435" y="607" on="1"/>
        <pt x="463" y="613" on="1"/>
        <pt x="499" y="609" on="1"/>
        <pt x="518" y="610" on="1"/>
        <pt x="523" y="543" on="1"/>
        <pt x="515" y="511" on="1"/>
        <pt x="517" y="477" on="1"/>
        <pt x="517" y="445" on="1"/>
        <pt x="517" y="412" on="1"/>
        <pt x="518" y="381" on="1"/>
        <pt x="519" y="348" on="1"/>
        <pt x="522" y="317" on="1"/>
        <pt x="517" y="284" on="1"/>
        <pt x="518" y="253" on="1"/>
        <pt x="516" y="187" on="1"/>
        <pt x="522" y="158" on="1"/>
        <pt x="513" y="124" on="1"/>
        <pt x="519" y="93" on="1"/>
        <pt x="513" y="63" on="1"/>
        <pt x="515" y="34" on="1"/>
        <pt x="516" y="6" on="1"/>
        <pt x="519" y="-20" on="1"/>
        <pt x="485" y="-14" on="1"/>
        <pt x="453" y="-14" on="1"/>
        <pt x="423" y="-17" on="1"/>
        <pt x="395" y="-17" on="1"/>
        <pt x="360" y="-16" on="1"/>
        <pt x="339" y="-19" on="1"/>
        <pt x="342" y="15" on="1"/>
        <pt x="341" y="49" on="1"/>
        <pt x="345" y="81" on="1"/>
        <pt x="340" y="115" on="1"/>
        <pt x="340" y="147" on="1"/>
        <pt x="337" y="180" on="1"/>
        <pt x="339" y="211" on="1"/>
        <pt x="341" y="244" on="1"/>
        <pt x="336" y="275" on="1"/>
        <pt x="345" y="308" on="1"/>
        <pt x="339" y="339" on="1"/>
        <pt x="342" y="373" on="1"/>
        <pt x="345" y="405" on="1"/>
        <pt x="345" y="434" on="1"/>
        <pt x="341" y="499" on="1"/>
        <pt x="345" y="529" on="1"/>
        <pt x="337" y="558" on="1"/>
        <pt x="342" y="586" on="1"/>
      </contour>
    </TTGlyph>
    <TTGlyph name="J" xMin="0" yMin="-200" xMax="869" yMax="800">
      <contour>
        <pt x="2" y="-199" on="1"/>
        <pt x="39" y="-193" on="1"/>
        <pt x="71" y="-199" on="1"/>
        <pt x="104" y="-200" on="1"/>
        <pt x="139" y="-199" on="1"/>
        <pt x="171" y="-197" on="1"/>
        <pt x="205" y="-196" on="1"/>
        <pt x="308" y="-191" on="1"/>
        <pt x="340" y="-195" on="1"/>
        <pt x="374" y="-191" on="1"/>
        <pt x="406" y="-196" on="1"/>
        <pt x="440" y="-193" on="1"/>
        <pt x="505" y="-197" on="1"/>
        <pt x="536" y="-195" on="1"/>
        <pt x="570" y="-192" on="1"/>
        <pt x="601" y="-195" on="1"/>
        <pt x="636" y="-200" on="1"/>
        <pt x="669" y="-200" on="1"/>
        <pt x="699" y="-195" on="1"/>
        <pt x="727" y="-198" on="1"/>
        <pt x="760" y="-199" on="1"/>
        <pt x="791" y="-198" on="1"/>
        <pt x="822" y="-195" on="1"/>
        <pt x="844" y="-194" on="1"/>
        <pt x="866" y="-196" on="1"/>
        <pt x="869" y="-162" on="1"/>
        <pt x="863" y="-131" on="1"/>
        <pt x="868" y="-99" on="1"/>
        <pt x="865" y="-66" on="1"/>
        <pt x="867" y="-35" on="1"/>
        <pt x="867" y="-3" on="1"/>
        <pt x="864" y="30" on="1"/>
        <pt x="866" y="61" on="1"/>
        <pt x="869" y="93" on="1"/>
        <pt x="868" y="126" on="1"/>
        <pt x="866" y="157" on="1"/>
        <pt x="867" y="190" on="1"/>
        <pt x="869" y="223" on="1"/>
        <pt x="862" y="255" on="1"/>
        <pt x="862" y="288" on="1"/>
        <pt x="867" y="319" on="1"/>
        <pt x="867" y="352" on="1"/>
        <pt x="860" y="382" on="1"/>
        <pt x="868" y="414" on="1"/>
        <pt x="860" y="444" on="1"/>
        <pt x="864" y="476" on="1"/>
        <pt x="864" y="505" on="1"/>
        <pt x="868" y="537" on="1"/>
        <pt x="862" y="567" on="1"/>
        <pt x="863" y="599" on="1"/>
        <pt x="864" y="630" on="1"/>
        <pt x="864" y="658" on="1"/>
        <pt x="864" y="691" on="1"/>
        <pt x="866" y="722" on="1"/>
        <pt x="861" y="753" on="1"/>
        <pt x="865" y="775" on="1"/>
        <pt x="864" y="794" on="1"/>
        <pt x="831" y="798" on="1"/>
        <pt x="799" y="799" on="1"/>
        <pt x="765" y="799" on="1"/>
        <pt x="731" y="795" on="1"/>
        <pt x="698" y="792" on="1"/>
        <pt x="665" y="794" on="1"/>
        <pt x="629" y="800" on="1"/>
        <pt x="596" y="799" on="1"/>
        <pt x="562" y="797" on="1"/>
        <pt x="529" y="795" on="1"/>
        <pt x="495" y="799" on="1"/>
        <pt x="463" y="796" on="1"/>
        <pt x="430" y="799" on="1"/>
        <pt x="398" y="791" on="1"/>
        <pt x="365" y="792" on="1"/>
        <pt x="333" y="798" on="1"/>
        <pt x="300" y="792" on="1"/>
        <pt x="234" y="796" on="1"/>
        <pt x="201" y="794" on="1"/>
        <pt x="170" y="799" on="1"/>
        <pt x="142" y="793" on="1"/>
        <pt x="109" y="792" on="1"/>
        <pt x="78" y="797" on="1"/>
        <pt x="47" y="796" on="1"/>
        <pt x="25" y="791" on="1"/>
        <pt x="3" y="796" on="1"/>
        <pt x="7" y="762" on="1"/>
        <pt x="4" y="731" on="1"/>
        <pt x="8" y="699" on="1"/>
        <pt x="2" y="666" on="1"/>
        <pt x="8" y="635" on="1"/>
        <pt x="7" y="603" on="1"/>
        <pt x="8" y="570" on="1"/>
        <pt x="0" y="540" on="1"/>
        <pt x="6" y="508" on="1"/>
        <pt x="6" y="474" on="1"/>
        <pt x="8" y="443" on="1"/>
        <pt x="4" y="411" on="1"/>
        <pt x="9" y="377" on="1"/>
        <pt x="1" y="345" on="1"/>
        <pt x="4" y="312" on="1"/>
        <pt x="4" y="281" on="1"/>
        <pt x="9" y="248" on="1"/>
        <pt x="4" y="218" on="1"/>
        <pt x="4" y="186" on="1"/>
        <pt x="8" y="156" on="1"/>
        <pt x="2" y="124" on="1"/>
        <pt x="1" y="95" on="1"/>
        <pt x="6" y="63" on="1"/>
        <pt x="2" y="34" on="1"/>
        <pt x="6" y="1" on="1"/>
        <pt x="3" y="-30" on="1"/>
        <pt x="5" y="-58" on="1"/>
        <pt x="4" y="-91" on="1"/>
        <pt x="3" y="-153" on="1"/>
        <pt x="3" y="-175" on="1"/>
      </contour>
      <contour>
        <pt x="311" y="246" on="1"/>
        <pt x="316" y="231" on="1"/>
        <pt x="322" y="191" on="1"/>
        <pt x="338" y="161" on="1"/>
        <pt x="363" y="136" on="1"/>
        <pt x="399" y="123" on="1"/>
        <pt x="427" y="125" on="1"/>
        <pt x="457" y="132" on="1"/>
        <pt x="486" y="146" on="1"/>
        <pt x="518" y="166" on="1"/>
        <pt x="530" y="196" on="1"/>
        <pt x="536" y="228" on="1"/>
        <pt x="541" y="284" on="1"/>
        <pt x="536" y="318" on="1"/>
        <pt x="543" y="355" on="1"/>
        <pt x="542" y="391" on="1"/>
        <pt x="543" y="424" on="1"/>
        <pt x="537" y="456" on="1"/>
        <pt x="541" y="493" on="1"/>
        <pt x="544" y="529" on="1"/>
        <pt x="542" y="558" on="1"/>
        <pt x="538" y="586" on="1"/>
        <pt x="542" y="609" on="1"/>
        <pt x="577" y="611" on="1"/>
        <pt x="613" y="610" on="1"/>
        <pt x="649" y="611" on="1"/>
        <pt x="677" y="607" on="1"/>
        <pt x="696" y="610" on="1"/>
        <pt x="700" y="577" on="1"/>
        <pt x="693" y="539" on="1"/>
        <pt x="693" y="504" on="1"/>
        <pt x="701" y="470" on="1"/>
        <pt x="699" y="438" on="1"/>
        <pt x="701" y="336" on="1"/>
        <pt x="694" y="309" on="1"/>
        <pt x="696" y="284" on="1"/>
        <pt x="697" y="251" on="1"/>
        <pt x="697" y="219" on="1"/>
        <pt x="685" y="183" on="1"/>
        <pt x="675" y="149" on="1"/>
        <pt x="667" y="115" on="1"/>
        <pt x="647" y="88" on="1"/>
        <pt x="627" y="62" on="1"/>
        <pt x="605" y="40" on="1"/>
        <pt x="584" y="16" on="1"/>
        <pt x="556" y="3" on="1"/>
        <pt x="528" y="-10" on="1"/>
        <pt x="499" y="-21" on="1"/>
        <pt x="474" y="-25" on="1"/>
        <pt x="447" y="-29" on="1"/>
        <pt x="427" y="-32" on="1"/>
        <pt x="391" y="-34" on="1"/>
        <pt x="358" y="-30" on="1"/>
        <pt x="327" y="-18" on="1"/>
        <pt x="294" y="-3" on="1"/>
        <pt x="264" y="16" on="1"/>
        <pt x="239" y="40" on="1"/>
        <pt x="221" y="63" on="1"/>
        <pt x="204" y="87" on="1"/>
        <pt x="189" y="113" on="1"/>
        <pt x="178" y="141" on="1"/>
        <pt x="173" y="172" on="1"/>
        <pt x="159" y="202" on="1"/>
        <pt x="162" y="226" on="1"/>
        <pt x="155" y="252" on="1"/>
        <pt x="193" y="245" on="1"/>
        <pt x="229" y="252" on="1"/>
        <pt x="265" y="247" on="1"/>
        <pt x="293" y="252" on="1"/>
      </contour>
    </TTGlyph>
    <TTGlyph name="K" xMin="0" yMin="-200" xMax="869" yMax="800">
      <contour>
        <pt x="6" y="-192" on="1"/>
        <pt x="38" y="-192" on="1"/>
        <pt x="104" y="-198" on="1"/>
        <pt x="138" y="-198" on="1"/>
        <pt x="171" y="-190" on="1"/>
        <pt x="204" y="-196" on="1"/>
        <pt x="239" y="-198" on="1"/>
        <pt x="272" y="-191" on="1"/>
        <pt x="307" y="-193" on="1"/>
        <pt x="339" y="-193" on="1"/>
        <pt x="374" y="-190" on="1"/>
        <pt x="405" y="-198" on="1"/>
        <pt x="439" y="-191" on="1"/>
        <pt x="504" y="-191" on="1"/>
        <pt x="535" y="-193" on="1"/>
        <pt x="569" y="-193" on="1"/>
        <pt x="600" y="-196" on="1"/>
        <pt x="635" y="-200" on="1"/>
        <pt x="668" y="-196" on="1"/>
        <pt x="698" y="-190" on="1"/>
        <pt x="726" y="-190" on="1"/>
        <pt x="759" y="-200" on="1"/>
        <pt x="790" y="-196" on="1"/>
        <pt x="821" y="-198" on="1"/>
        <pt x="843" y="-192" on="1"/>
        <pt x="860" y="-193" on="1"/>
        <pt x="859" y="-162" on="1"/>
        <pt x="859" y="-131" on="1"/>
        <pt x="868" y="-99" on="1"/>
        <pt x="861" y="-66" on="1"/>
        <pt x="863" y="-35" on="1"/>
        <pt x="868" y="-3" on="1"/>
        <pt x="863" y="30" on="1"/>
        <pt x="863" y="61" on="1"/>
        <pt x="860" y="93" on="1"/>
        <pt x="865" y="126" on="1"/>
        <pt x="862" y="157" on="1"/>
        <pt x="869" y="189" on="1"/>
        <pt x="864" y="223" on="1"/>
        <pt x="860" y="255" on="1"/>
        <pt x="861" y="288" on="1"/>
        <pt x="861" y="319" on="1"/>
        <pt x="866" y="352" on="1"/>
        <pt x="862" y="382" on="1"/>
        <pt x="861" y="414" on="1"/>
        <pt x="859" y="444" on="1"/>
        <pt x="864" y="476" on="1"/>
        <pt x="864" y="505" on="1"/>
        <pt x="864" y="537" on="1"/>
        <pt x="863" y="566" on="1"/>
        <pt x="860" y="599" on="1"/>
        <pt x="864" y="630" on="1"/>
        <pt x="860" y="658" on="1"/>
        <pt x="867" y="690" on="1"/>
        <pt x="862" y="775" on="1"/>
        <pt x="863" y="794" on="1"/>
        <pt x="829" y="800" on="1"/>
        <pt x="797" y="800" on="1"/>
        <pt x="730" y="791" on="1"/>
        <pt x="697" y="798" on="1"/>
        <pt x="664" y="792" on="1"/>
        <pt x="628" y="798" on="1"/>
        <pt x="595" y="796" on="1"/>
        <pt x="561" y="794" on="1"/>
        <pt x="528" y="798" on="1"/>
        <pt x="494" y="799" on="1"/>
        <pt x="463" y="792" on="1"/>
        <pt x="429" y="798" on="1"/>
        <pt x="397" y="792" on="1"/>
        <pt x="364" y="795" on="1"/>
        <pt x="333" y="792" on="1"/>
        <pt x="299" y="799" on="1"/>
        <pt x="267" y="795" on="1"/>
        <pt x="233" y="799" on="1"/>
        <pt x="200" y="798" on="1"/>
        <pt x="170" y="791" on="1"/>
        <pt x="141" y="796" on="1"/>
        <pt x="109" y="797" on="1"/>
        <pt x="77" y="796" on="1"/>
        <pt x="47" y="791" on="1"/>
        <pt x="25" y="800" on="1"/>
        <pt x="2" y="796" on="1"/>
        <pt x="8" y="731" on="1"/>
        <pt x="7" y="699" on="1"/>
        <pt x="3" y="666" on="1"/>
        <pt x="4" y="635" on="1"/>
        <pt x="7" y="603" on="1"/>
        <pt x="4" y="570" on="1"/>
        <pt x="8" y="539" on="1"/>
        <pt x="5" y="474" on="1"/>
        <pt x="8" y="443" on="1"/>
        <pt x="2" y="411" on="1"/>
        <pt x="6" y="345" on="1"/>
        <pt x="2" y="312" on="1"/>
        <pt x="7" y="281" on="1"/>
        <pt x="2" y="248" on="1"/>
        <pt x="5" y="218" on="1"/>
        <pt x="0" y="186" on="1"/>
        <pt x="2" y="156" on="1"/>
        <pt x="5" y="124" on="1"/>
        <pt x="5" y="95" on="1"/>
        <pt x="8" y="63" on="1"/>
        <pt x="8" y="34" on="1"/>
        <pt x="6" y="1" on="1"/>
        <pt x="5" y="-30" on="1"/>
        <pt x="8" y="-58" on="1"/>
        <pt x="1" y="-90" on="1"/>
        <pt x="5" y="-122" on="1"/>
        <pt x="1" y="-153" on="1"/>
        <pt x="9" y="-174" on="1"/>
      </contour>
      <contour>
        <pt x="198" y="607" on="1"/>
        <pt x="232" y="613" on="1"/>
        <pt x="268" y="611" on="1"/>
        <pt x="304" y="612" on="1"/>
        <pt x="332" y="614" on="1"/>
        <pt x="350" y="606" on="1"/>
        <pt x="353" y="574" on="1"/>
        <pt x="356" y="539" on="1"/>
        <pt x="355" y="506" on="1"/>
        <pt x="350" y="472" on="1"/>
        <pt x="348" y="443" on="1"/>
        <pt x="353" y="418" on="1"/>
        <pt x="372" y="449" on="1"/>
        <pt x="394" y="477" on="1"/>
        <pt x="411" y="502" on="1"/>
        <pt x="437" y="523" on="1"/>
        <pt x="456" y="552" on="1"/>
        <pt x="468" y="575" on="1"/>
        <pt x="486" y="593" on="1"/>
        <pt x="496" y="612" on="1"/>
        <pt x="530" y="610" on="1"/>
        <pt x="561" y="612" on="1"/>
        <pt x="592" y="606" on="1"/>
        <pt x="621" y="613" on="1"/>
        <pt x="649" y="607" on="1"/>
        <pt x="672" y="611" on="1"/>
        <pt x="654" y="579" on="1"/>
        <pt x="630" y="560" on="1"/>
        <pt x="609" y="530" on="1"/>
        <pt x="588" y="505" on="1"/>
        <pt x="570" y="474" on="1"/>
        <pt x="552" y="450" on="1"/>
        <pt x="530" y="428" on="1"/>
        <pt x="517" y="398" on="1"/>
        <pt x="493" y="379" on="1"/>
        <pt x="482" y="352" on="1"/>
        <pt x="471" y="340" on="1"/>
        <pt x="488" y="315" on="1"/>
        <pt x="509" y="289" on="1"/>
        <pt x="524" y="256" on="1"/>
        <pt x="542" y="229" on="1"/>
        <pt x="565" y="201" on="1"/>
        <pt x="578" y="173" on="1"/>
        <pt x="596" y="147" on="1"/>
        <pt x="616" y="120" on="1"/>
        <pt x="637" y="93" on="1"/>
        <pt x="646" y="67" on="1"/>
        <pt x="666" y="48" on="1"/>
        <pt x="682" y="26" on="1"/>
        <pt x="697" y="5" on="1"/>
        <pt x="709" y="-22" on="1"/>
        <pt x="674" y="-15" on="1"/>
        <pt x="600" y="-13" on="1"/>
        <pt x="566" y="-18" on="1"/>
        <pt x="538" y="-19" on="1"/>
        <pt x="518" y="7" on="1"/>
        <pt x="498" y="36" on="1"/>
        <pt x="479" y="65" on="1"/>
        <pt x="464" y="94" on="1"/>
        <pt x="443" y="121" on="1"/>
        <pt x="419" y="146" on="1"/>
        <pt x="403" y="169" on="1"/>
        <pt x="388" y="198" on="1"/>
        <pt x="377" y="212" on="1"/>
        <pt x="350" y="186" on="1"/>
        <pt x="348" y="150" on="1"/>
        <pt x="352" y="111" on="1"/>
        <pt x="349" y="73" on="1"/>
        <pt x="349" y="41" on="1"/>
        <pt x="357" y="8" on="1"/>
        <pt x="353" y="-18" on="1"/>
        <pt x="316" y="-22" on="1"/>
        <pt x="281" y="-18" on="1"/>
        <pt x="245" y="-21" on="1"/>
        <pt x="216" y="-15" on="1"/>
        <pt x="195" y="-18" on="1"/>
        <pt x="199" y="15" on="1"/>
        <pt x="198" y="49" on="1"/>
        <pt x="192" y="115" on="1"/>
        <pt x="198" y="147" on="1"/>
        <pt x="195" y="180" on="1"/>
        <pt x="199" y="211" on="1"/>
        <pt x="193" y="244" on="1"/>
        <pt x="194" y="275" on="1"/>
        <pt x="194" y="308" on="1"/>
        <pt x="193" y="339" on="1"/>
        <pt x="191" y="373" on="1"/>
        <pt x="193" y="434" on="1"/>
        <pt x="197" y="468" on="1"/>
        <pt x="196" y="499" on="1"/>
        <pt x="192" y="529" on="1"/>
        <pt x="196" y="558" on="1"/>
        <pt x="192" y="586" on="1"/>
      </contour>
    </TTGlyph>
    <TTGlyph name="L" xMin="0" yMin="-200" xMax="869" yMax="800">
      <contour>
        <pt x="5" y="-195" on="1"/>
        <pt x="39" y="-199" on="1"/>
        <pt x="71" y="-191" on="1"/>
        <pt x="104" y="-193" on="1"/>
        <pt x="139" y="-192" on="1"/>
        <pt x="171" y="-191" on="1"/>
        <pt x="205" y="-199" on="1"/>
        <pt x="240" y="-200" on="1"/>
        <pt x="273" y="-195" on="1"/>
        <pt x="308" y="-193" on="1"/>
        <pt x="340" y="-192" on="1"/>
        <pt x="374" y="-197" on="1"/>
        <pt x="406" y="-197" on="1"/>
        <pt x="439" y="-193" on="1"/>
        <pt x="471" y="-193" on="1"/>
        <pt x="504" y="-194" on="1"/>
        <pt x="536" y="-193" on="1"/>
        <pt x="569" y="-197" on="1"/>
        <pt x="601" y="-194" on="1"/>
        <pt x="635" y="-196" on="1"/>
        <pt x="668" y="-196" on="1"/>
        <pt x="699" y="-195" on="1"/>
        <pt x="727" y="-194" on="1"/>
        <pt x="759" y="-193" on="1"/>
        <pt x="791" y="-197" on="1"/>
        <pt x="821" y="-192" on="1"/>
        <pt x="843" y="-194" on="1"/>
        <pt x="868" y="-198" on="1"/>
        <pt x="868" y="-162" on="1"/>
        <pt x="863" y="-131" on="1"/>
        <pt x="863" y="-99" on="1"/>
        <pt x="868" y="-66" on="1"/>
        <pt x="861" y="-35" on="1"/>
        <pt x="868" y="-3" on="1"/>
        <pt x="867" y="30" on="1"/>
        <pt x="864" y="61" on="1"/>
        <pt x="866" y="93" on="1"/>
        <pt x="862" y="126" on="1"/>
        <pt x="859" y="189" on="1"/>
        <pt x="859" y="223" on="1"/>
        <pt x="869" y="255" on="1"/>
        <pt x="863" y="288" on="1"/>
        <pt x="867" y="319" on="1"/>
        <pt x="867" y="352" on="1"/>
        <pt x="860" y="382" on="1"/>
        <pt x="860" y="414" on="1"/>
        <pt x="864" y="444" on="1"/>
        <pt x="865" y="476" on="1"/>
        <pt x="868" y="505" on="1"/>
        <pt x="863" y="566" on="1"/>
        <pt x="860" y="599" on="1"/>
        <pt x="865" y="630" on="1"/>
        <pt x="864" y="658" on="1"/>
        <pt x="864" y="690" on="1"/>
        <pt x="867" y="722" on="1"/>
        <pt x="861" y="753" on="1"/>
        <pt x="865" y="775" on="1"/>
        <pt x="866" y="797" on="1"/>
        <pt x="830" y="794" on="1"/>
        <pt x="765" y="799" on="1"/>
        <pt x="730" y="795" on="1"/>
        <pt x="698" y="793" on="1"/>
        <pt x="629" y="793" on="1"/>
        <pt x="596" y="799" on="1"/>
        <pt x="561" y="795" on="1"/>
        <pt x="529" y="792" on="1"/>
        <pt x="495" y="794" on="1"/>
        <pt x="463" y="799" on="1"/>
        <pt x="429" y="791" on="1"/>
        <pt x="398" y="795" on="1"/>
        <pt x="364" y="800" on="1"/>
        <pt x="333" y="792" on="1"/>
        <pt x="299" y="794" on="1"/>
        <pt x="268" y="798" on="1"/>
        <pt x="233" y="798" on="1"/>
        <pt x="201" y="792" on="1"/>
        <pt x="170" y="794" on="1"/>
        <pt x="142" y="793" on="1"/>
        <pt x="109" y="794" on="1"/>
        <pt x="78" y="791" on="1"/>
        <pt x="47" y="799" on="1"/>
        <pt x="25" y="797" on="1"/>
        <pt x="8" y="793" on="1"/>
        <pt x="3" y="762" on="1"/>
        <pt x="4" y="731" on="1"/>
        <pt x="5" y="699" on="1"/>
        <pt x="8" y="666" on="1"/>
        <pt x="2" y="635" on="1"/>
        <pt x="2" y="603" on="1"/>
        <pt x="0" y="570" on="1"/>
        <pt x="3" y="539" on="1"/>
        <pt x="8" y="507" on="1"/>
        <pt x="1" y="474" on="1"/>
        <pt x="0" y="443" on="1"/>
        <pt x="1" y="411" on="1"/>
        <pt x="4" y="377" on="1"/>
        <pt x="2" y="345" on="1"/>
        <pt x="7" y="312" on="1"/>
        <pt x="3" y="281" on="1"/>
        <pt x="6" y="248" on="1"/>
        <pt x="4" y="218" on="1"/>
        <pt x="6" y="186" on="1"/>
        <pt x="0" y="156" on="1"/>
        <pt x="9" y="124" on="1"/>
        <pt x="3" y="95" on="1"/>
        <pt x="2" y="63" on="1"/>
        <pt x="5" y="34" on="1"/>
        <pt x="9" y="1" on="1"/>
        <pt x="4" y="-30" on="1"/>
        <pt x="8" y="-58" on="1"/>
        <pt x="4" y="-90" on="1"/>
        <pt x="4" y="-122" on="1"/>
        <pt x="1" y="-153" on="1"/>
        <pt x="1" y="-175" on="1"/>
      </contour>
      <contour>
        <pt x="231" y="611" on="1"/>
        <pt x="267" y="609" on="1"/>
        <pt x="339" y="614" on="1"/>
        <pt x="368" y="612" on="1"/>
        <pt x="390" y="613" on="1"/>
        <pt x="386" y="576" on="1"/>
        <pt x="384" y="539" on="1"/>
        <pt x="388" y="507" on="1"/>
        <pt x="391" y="470" on="1"/>
        <pt x="387" y="438" on="1"/>
        <pt x="387" y="403" on="1"/>
        <pt x="392" y="367" on="1"/>
        <pt x="390" y="337" on="1"/>
        <pt x="392" y="306" on="1"/>
        <pt x="387" y="243" on="1"/>
        <pt x="390" y="212" on="1"/>
        <pt x="390" y="181" on="1"/>
        <pt x="388" y="138" on="1"/>
        <pt x="421" y="139" on="1"/>
        <pt x="455" y="138" on="1"/>
        <pt x="488" y="134" on="1"/>
        <pt x="524" y="136" on="1"/>
        <pt x="556" y="134" on="1"/>
        <pt x="589" y="138" on="1"/>
        <pt x="623" y="141" on="1"/>
        <pt x="649" y="137" on="1"/>
        <pt x="675" y="134" on="1"/>
        <pt x="696" y="137" on="1"/>
        <pt x="704" y="102" on="1"/>
        <pt x="704" y="66" on="1"/>
        <pt x="699" y="30" on="1"/>
        <pt x="698" y="2" on="1"/>
        <pt x="697" y="-15" on="1"/>
        <pt x="666" y="-19" on="1"/>
        <pt x="631" y="-21" on="1"/>
        <pt x="598" y="-22" on="1"/>
        <pt x="567" y="-22" on="1"/>
        <pt x="534" y="-22" on="1"/>
        <pt x="503" y="-19" on="1"/>
        <pt x="470" y="-21" on="1"/>
        <pt x="438" y="-22" on="1"/>
        <pt x="403" y="-19" on="1"/>
        <pt x="369" y="-21" on="1"/>
        <pt x="336" y="-14" on="1"/>
        <pt x="305" y="-17" on="1"/>
        <pt x="275" y="-21" on="1"/>
        <pt x="245" y="-13" on="1"/>
        <pt x="228" y="-19" on="1"/>
        <pt x="230" y="15" on="1"/>
        <pt x="231" y="49" on="1"/>
        <pt x="230" y="147" on="1"/>
        <pt x="233" y="180" on="1"/>
        <pt x="235" y="211" on="1"/>
        <pt x="230" y="245" on="1"/>
        <pt x="230" y="275" on="1"/>
        <pt x="232" y="308" on="1"/>
        <pt x="230" y="339" on="1"/>
        <pt x="233" y="373" on="1"/>
        <pt x="229" y="405" on="1"/>
        <pt x="227" y="434" on="1"/>
        <pt x="227" y="468" on="1"/>
        <pt x="229" y="499" on="1"/>
        <pt x="236" y="530" on="1"/>
        <pt x="235" y="559" on="1"/>
        <pt x="235" y="587" on="1"/>
      </contour>
    </TTGlyph>
    <TTGlyph name="M" xMin="0" yMin="-200" xMax="870" yMax="800">
      <contour>
        <pt x="4" y="-198" on="1"/>
        <pt x="39" y="-195" on="1"/>
        <pt x="71" y="-192" on="1"/>
        <pt x="104" y="-197" on="1"/>
        <pt x="139" y="-195" on="1"/>
        <pt x="171" y="-198" on="1"/>
        <pt x="205" y="-194" on="1"/>
        <pt x="240" y="-198" on="1"/>
        <pt x="273" y="-196" on="1"/>
        <pt x="308" y="-198" on="1"/>
        <pt x="340" y="-198" on="1"/>
        <pt x="375" y="-200" on="1"/>
        <pt x="406" y="-195" on="1"/>
        <pt x="440" y="-200" on="1"/>
        <pt x="472" y="-193" on="1"/>
        <pt x="536" y="-194" on="1"/>
        <pt x="570" y="-199" on="1"/>
        <pt x="602" y="-194" on="1"/>
        <pt x="636" y="-199" on="1"/>
        <pt x="669" y="-193" on="1"/>
        <pt x="699" y="-194" on="1"/>
        <pt x="728" y="-193" on="1"/>
        <pt x="760" y="-192" on="1"/>
        <pt x="792" y="-200" on="1"/>
        <pt x="822" y="-193" on="1"/>
        <pt x="844" y="-196" on="1"/>
        <pt x="867" y="-197" on="1"/>
        <pt x="869" y="-163" on="1"/>
        <pt x="867" y="-132" on="1"/>
        <pt x="864" y="-100" on="1"/>
        <pt x="870" y="-67" on="1"/>
        <pt x="865" y="-36" on="1"/>
        <pt x="867" y="-4" on="1"/>
        <pt x="870" y="29" on="1"/>
        <pt x="866" y="60" on="1"/>
        <pt x="869" y="156" on="1"/>
        <pt x="862" y="189" on="1"/>
        <pt x="865" y="223" on="1"/>
        <pt x="866" y="254" on="1"/>
        <pt x="866" y="287" on="1"/>
        <pt x="867" y="318" on="1"/>
        <pt x="862" y="351" on="1"/>
        <pt x="869" y="381" on="1"/>
        <pt x="861" y="413" on="1"/>
        <pt x="863" y="443" on="1"/>
        <pt x="869" y="475" on="1"/>
        <pt x="870" y="505" on="1"/>
        <pt x="867" y="536" on="1"/>
        <pt x="866" y="566" on="1"/>
        <pt x="860" y="599" on="1"/>
        <pt x="864" y="629" on="1"/>
        <pt x="863" y="658" on="1"/>
        <pt x="867" y="690" on="1"/>
        <pt x="870" y="722" on="1"/>
        <pt x="864" y="752" on="1"/>
        <pt x="866" y="775" on="1"/>
        <pt x="867" y="798" on="1"/>
        <pt x="831" y="790" on="1"/>
        <pt x="799" y="795" on="1"/>
        <pt x="766" y="798" on="1"/>
        <pt x="731" y="794" on="1"/>
        <pt x="699" y="791" on="1"/>
        <pt x="665" y="791" on="1"/>
        <pt x="630" y="793" on="1"/>
        <pt x="597" y="798" on="1"/>
        <pt x="562" y="797" on="1"/>
        <pt x="530" y="793" on="1"/>
        <pt x="495" y="792" on="1"/>
        <pt x="464" y="800" on="1"/>
        <pt x="430" y="799" on="1"/>
        <pt x="398" y="793" on="1"/>
        <pt x="365" y="791" on="1"/>
        <pt x="334" y="796" on="1"/>
        <pt x="300" y="793" on="1"/>
        <pt x="268" y="798" on="1"/>
        <pt x="234" y="798" on="1"/>
        <pt x="201" y="792" on="1"/>
        <pt x="170" y="792" on="1"/>
        <pt x="142" y="791" on="1"/>
        <pt x="78" y="791" on="1"/>
        <pt x="47" y="796" on="1"/>
        <pt x="26" y="799" on="1"/>
        <pt x="7" y="793" on="1"/>
        <pt x="9" y="762" on="1"/>
        <pt x="4" y="731" on="1"/>
        <pt x="0" y="699" on="1"/>
        <pt x="7" y="666" on="1"/>
        <pt x="1" y="635" on="1"/>
        <pt x="9" y="603" on="1"/>
        <pt x="0" y="539" on="1"/>
        <pt x="5" y="507" on="1"/>
        <pt x="2" y="473" on="1"/>
        <pt x="8" y="442" on="1"/>
        <pt x="5" y="410" on="1"/>
        <pt x="4" y="376" on="1"/>
        <pt x="3" y="344" on="1"/>
        <pt x="7" y="311" on="1"/>
        <pt x="4" y="280" on="1"/>
        <pt x="3" y="248" on="1"/>
        <pt x="2" y="217" on="1"/>
        <pt x="4" y="185" on="1"/>
        <pt x="5" y="155" on="1"/>
        <pt x="0" y="124" on="1"/>
        <pt x="2" y="94" on="1"/>
        <pt x="6" y="62" on="1"/>
        <pt x="4" y="33" on="1"/>
        <pt x="1" y="0" on="1"/>
        <pt x="1" y="-31" on="1"/>
        <pt x="3" y="-59" on="1"/>
        <pt x="4" y="-92" on="1"/>
        <pt x="8" y="-123" on="1"/>
        <pt x="6" y="-154" on="1"/>
        <pt x="7" y="-176" on="1"/>
      </contour>
      <contour>
        <pt x="146" y="589" on="1"/>
        <pt x="154" y="608" on="1"/>
        <pt x="194" y="605" on="1"/>
        <pt x="228" y="608" on="1"/>
        <pt x="262" y="604" on="1"/>
        <pt x="286" y="606" on="1"/>
        <pt x="298" y="578" on="1"/>
        <pt x="309" y="546" on="1"/>
        <pt x="333" y="480" on="1"/>
        <pt x="342" y="445" on="1"/>
        <pt x="358" y="417" on="1"/>
        <pt x="369" y="385" on="1"/>
        <pt x="384" y="355" on="1"/>
        <pt x="395" y="323" on="1"/>
        <pt x="404" y="296" on="1"/>
        <pt x="411" y="270" on="1"/>
        <pt x="421" y="238" on="1"/>
        <pt x="434" y="216" on="1"/>
        <pt x="440" y="188" on="1"/>
        <pt x="445" y="226" on="1"/>
        <pt x="462" y="254" on="1"/>
        <pt x="471" y="283" on="1"/>
        <pt x="483" y="315" on="1"/>
        <pt x="491" y="350" on="1"/>
        <pt x="508" y="377" on="1"/>
        <pt x="519" y="408" on="1"/>
        <pt x="532" y="438" on="1"/>
        <pt x="542" y="472" on="1"/>
        <pt x="545" y="499" on="1"/>
        <pt x="560" y="522" on="1"/>
        <pt x="569" y="548" on="1"/>
        <pt x="579" y="572" on="1"/>
        <pt x="584" y="595" on="1"/>
        <pt x="592" y="607" on="1"/>
        <pt x="632" y="605" on="1"/>
        <pt x="666" y="609" on="1"/>
        <pt x="700" y="605" on="1"/>
        <pt x="726" y="610" on="1"/>
        <pt x="729" y="576" on="1"/>
        <pt x="727" y="541" on="1"/>
        <pt x="728" y="509" on="1"/>
        <pt x="730" y="475" on="1"/>
        <pt x="732" y="444" on="1"/>
        <pt x="736" y="410" on="1"/>
        <pt x="735" y="379" on="1"/>
        <pt x="736" y="346" on="1"/>
        <pt x="744" y="315" on="1"/>
        <pt x="747" y="282" on="1"/>
        <pt x="744" y="251" on="1"/>
        <pt x="748" y="217" on="1"/>
        <pt x="749" y="186" on="1"/>
        <pt x="748" y="156" on="1"/>
        <pt x="755" y="91" on="1"/>
        <pt x="760" y="61" on="1"/>
        <pt x="757" y="32" on="1"/>
        <pt x="764" y="4" on="1"/>
        <pt x="762" y="-16" on="1"/>
        <pt x="732" y="-23" on="1"/>
        <pt x="701" y="-21" on="1"/>
        <pt x="672" y="-18" on="1"/>
        <pt x="644" y="-21" on="1"/>
        <pt x="621" y="-21" on="1"/>
        <pt x="624" y="16" on="1"/>
        <pt x="616" y="46" on="1"/>
        <pt x="617" y="76" on="1"/>
        <pt x="616" y="109" on="1"/>
        <pt x="612" y="142" on="1"/>
        <pt x="607" y="171" on="1"/>
        <pt x="606" y="199" on="1"/>
        <pt x="603" y="228" on="1"/>
        <pt x="607" y="253" on="1"/>
        <pt x="594" y="219" on="1"/>
        <pt x="569" y="150" on="1"/>
        <pt x="554" y="120" on="1"/>
        <pt x="543" y="89" on="1"/>
        <pt x="530" y="57" on="1"/>
        <pt x="522" y="31" on="1"/>
        <pt x="509" y="0" on="1"/>
        <pt x="506" y="-20" on="1"/>
        <pt x="465" y="-23" on="1"/>
        <pt x="431" y="-18" on="1"/>
        <pt x="397" y="-16" on="1"/>
        <pt x="370" y="-23" on="1"/>
        <pt x="358" y="12" on="1"/>
        <pt x="336" y="78" on="1"/>
        <pt x="324" y="109" on="1"/>
        <pt x="311" y="140" on="1"/>
        <pt x="304" y="174" on="1"/>
        <pt x="290" y="200" on="1"/>
        <pt x="276" y="231" on="1"/>
        <pt x="274" y="252" on="1"/>
        <pt x="268" y="223" on="1"/>
        <pt x="267" y="188" on="1"/>
        <pt x="263" y="125" on="1"/>
        <pt x="263" y="91" on="1"/>
        <pt x="261" y="57" on="1"/>
        <pt x="259" y="30" on="1"/>
        <pt x="255" y="5" on="1"/>
        <pt x="254" y="-18" on="1"/>
        <pt x="222" y="-15" on="1"/>
        <pt x="192" y="-21" on="1"/>
        <pt x="162" y="-17" on="1"/>
        <pt x="134" y="-20" on="1"/>
        <pt x="109" y="-21" on="1"/>
        <pt x="116" y="15" on="1"/>
        <pt x="113" y="51" on="1"/>
        <pt x="118" y="84" on="1"/>
        <pt x="124" y="119" on="1"/>
        <pt x="122" y="152" on="1"/>
        <pt x="128" y="187" on="1"/>
        <pt x="127" y="220" on="1"/>
        <pt x="128" y="289" on="1"/>
        <pt x="134" y="354" on="1"/>
        <pt x="140" y="386" on="1"/>
        <pt x="135" y="416" on="1"/>
        <pt x="138" y="449" on="1"/>
        <pt x="141" y="481" on="1"/>
        <pt x="150" y="512" on="1"/>
        <pt x="152" y="542" on="1"/>
        <pt x="150" y="572" on="1"/>
      </contour>
    </TTGlyph>
    <TTGlyph name="N" xMin="0" yMin="-200" xMax="869" yMax="800">
      <contour>
        <pt x="4" y="-196" on="1"/>
        <pt x="39" y="-198" on="1"/>
        <pt x="71" y="-191" on="1"/>
        <pt x="104" y="-193" on="1"/>
        <pt x="139" y="-198" on="1"/>
        <pt x="171" y="-200" on="1"/>
        <pt x="205" y="-192" on="1"/>
        <pt x="240" y="-192" on="1"/>
        <pt x="273" y="-194" on="1"/>
        <pt x="308" y="-194" on="1"/>
        <pt x="340" y="-197" on="1"/>
        <pt x="374" y="-191" on="1"/>
        <pt x="406" y="-198" on="1"/>
        <pt x="440" y="-199" on="1"/>
        <pt x="471" y="-190" on="1"/>
        <pt x="505" y="-200" on="1"/>
        <pt x="536" y="-194" on="1"/>
        <pt x="570" y="-193" on="1"/>
        <pt x="601" y="-194" on="1"/>
        <pt x="636" y="-190" on="1"/>
        <pt x="669" y="-195" on="1"/>
        <pt x="699" y="-200" on="1"/>
        <pt x="727" y="-196" on="1"/>
        <pt x="760" y="-197" on="1"/>
        <pt x="791" y="-193" on="1"/>
        <pt x="822" y="-194" on="1"/>
        <pt x="844" y="-195" on="1"/>
        <pt x="863" y="-194" on="1"/>
        <pt x="868" y="-162" on="1"/>
        <pt x="865" y="-131" on="1"/>
        <pt x="861" y="-99" on="1"/>
        <pt x="866" y="-66" on="1"/>
        <pt x="863" y="-35" on="1"/>
        <pt x="863" y="-3" on="1"/>
        <pt x="864" y="30" on="1"/>
        <pt x="866" y="61" on="1"/>
        <pt x="867" y="93" on="1"/>
        <pt x="865" y="126" on="1"/>
        <pt x="866" y="157" on="1"/>
        <pt x="862" y="190" on="1"/>
        <pt x="865" y="224" on="1"/>
        <pt x="868" y="255" on="1"/>
        <pt x="869" y="288" on="1"/>
        <pt x="866" y="319" on="1"/>
        <pt x="862" y="352" on="1"/>
        <pt x="866" y="382" on="1"/>
        <pt x="860" y="414" on="1"/>
        <pt x="865" y="476" on="1"/>
        <pt x="861" y="505" on="1"/>
        <pt x="866" y="537" on="1"/>
        <pt x="862" y="567" on="1"/>
        <pt x="863" y="599" on="1"/>
        <pt x="869" y="630" on="1"/>
        <pt x="869" y="658" on="1"/>
        <pt x="869" y="691" on="1"/>
        <pt x="864" y="722" on="1"/>
        <pt x="868" y="753" on="1"/>
        <pt x="869" y="775" on="1"/>
        <pt x="863" y="792" on="1"/>
        <pt x="831" y="793" on="1"/>
        <pt x="798" y="797" on="1"/>
        <pt x="765" y="797" on="1"/>
        <pt x="731" y="793" on="1"/>
        <pt x="698" y="800" on="1"/>
        <pt x="665" y="799" on="1"/>
        <pt x="629" y="793" on="1"/>
        <pt x="596" y="792" on="1"/>
        <pt x="562" y="797" on="1"/>
        <pt x="529" y="794" on="1"/>
        <pt x="495" y="800" on="1"/>
        <pt x="463" y="792" on="1"/>
        <pt x="430" y="798" on="1"/>
        <pt x="398" y="793" on="1"/>
        <pt x="365" y="794" on="1"/>
        <pt x="334" y="793" on="1"/>
        <pt x="300" y="797" on="1"/>
        <pt x="268" y="797" on="1"/>
        <pt x="234" y="798" on="1"/>
        <pt x="201" y="794" on="1"/>
        <pt x="171" y="799" on="1"/>
        <pt x="110" y="794" on="1"/>
        <pt x="78" y="797" on="1"/>
        <pt x="48" y="793" on="1"/>
        <pt x="26" y="795" on="1"/>
        <pt x="9" y="793" on="1"/>
        <pt x="9" y="762" on="1"/>
        <pt x="5" y="699" on="1"/>
        <pt x="5" y="666" on="1"/>
        <pt x="4" y="635" on="1"/>
        <pt x="2" y="603" on="1"/>
        <pt x="8" y="570" on="1"/>
        <pt x="8" y="539" on="1"/>
        <pt x="6" y="507" on="1"/>
        <pt x="9" y="474" on="1"/>
        <pt x="3" y="443" on="1"/>
        <pt x="7" y="411" on="1"/>
        <pt x="1" y="377" on="1"/>
        <pt x="1" y="345" on="1"/>
        <pt x="6" y="312" on="1"/>
        <pt x="5" y="281" on="1"/>
        <pt x="8" y="248" on="1"/>
        <pt x="7" y="218" on="1"/>
        <pt x="0" y="186" on="1"/>
        <pt x="2" y="156" on="1"/>
        <pt x="4" y="125" on="1"/>
        <pt x="4" y="95" on="1"/>
        <pt x="5" y="63" on="1"/>
        <pt x="1" y="34" on="1"/>
        <pt x="6" y="1" on="1"/>
        <pt x="5" y="-29" on="1"/>
        <pt x="6" y="-58" on="1"/>
        <pt x="3" y="-90" on="1"/>
        <pt x="4" y="-122" on="1"/>
        <pt x="1" y="-153" on="1"/>
        <pt x="5" y="-175" on="1"/>
      </contour>
      <contour>
        <pt x="158" y="587" on="1"/>
        <pt x="165" y="606" on="1"/>
        <pt x="198" y="606" on="1"/>
        <pt x="231" y="612" on="1"/>
        <pt x="272" y="607" on="1"/>
        <pt x="331" y="610" on="1"/>
        <pt x="351" y="585" on="1"/>
        <pt x="383" y="527" on="1"/>
        <pt x="404" y="502" on="1"/>
        <pt x="419" y="471" on="1"/>
        <pt x="438" y="447" on="1"/>
        <pt x="456" y="422" on="1"/>
        <pt x="471" y="394" on="1"/>
        <pt x="508" y="341" on="1"/>
        <pt x="519" y="310" on="1"/>
        <pt x="536" y="291" on="1"/>
        <pt x="549" y="265" on="1"/>
        <pt x="565" y="249" on="1"/>
        <pt x="566" y="287" on="1"/>
        <pt x="567" y="325" on="1"/>
        <pt x="558" y="360" on="1"/>
        <pt x="562" y="397" on="1"/>
        <pt x="564" y="429" on="1"/>
        <pt x="561" y="462" on="1"/>
        <pt x="566" y="497" on="1"/>
        <pt x="559" y="532" on="1"/>
        <pt x="558" y="558" on="1"/>
        <pt x="565" y="584" on="1"/>
        <pt x="563" y="607" on="1"/>
        <pt x="599" y="611" on="1"/>
        <pt x="635" y="604" on="1"/>
        <pt x="670" y="605" on="1"/>
        <pt x="699" y="613" on="1"/>
        <pt x="715" y="606" on="1"/>
        <pt x="715" y="575" on="1"/>
        <pt x="722" y="539" on="1"/>
        <pt x="717" y="506" on="1"/>
        <pt x="722" y="470" on="1"/>
        <pt x="722" y="437" on="1"/>
        <pt x="723" y="402" on="1"/>
        <pt x="717" y="368" on="1"/>
        <pt x="719" y="338" on="1"/>
        <pt x="717" y="304" on="1"/>
        <pt x="718" y="273" on="1"/>
        <pt x="717" y="239" on="1"/>
        <pt x="717" y="207" on="1"/>
        <pt x="718" y="178" on="1"/>
        <pt x="718" y="144" on="1"/>
        <pt x="715" y="112" on="1"/>
        <pt x="717" y="81" on="1"/>
        <pt x="715" y="52" on="1"/>
        <pt x="722" y="23" on="1"/>
        <pt x="719" y="4" on="1"/>
        <pt x="718" y="-18" on="1"/>
        <pt x="684" y="-15" on="1"/>
        <pt x="650" y="-20" on="1"/>
        <pt x="610" y="-17" on="1"/>
        <pt x="576" y="-17" on="1"/>
        <pt x="551" y="-18" on="1"/>
        <pt x="537" y="10" on="1"/>
        <pt x="517" y="36" on="1"/>
        <pt x="496" y="63" on="1"/>
        <pt x="483" y="93" on="1"/>
        <pt x="461" y="119" on="1"/>
        <pt x="445" y="145" on="1"/>
        <pt x="429" y="172" on="1"/>
        <pt x="412" y="199" on="1"/>
        <pt x="395" y="226" on="1"/>
        <pt x="356" y="277" on="1"/>
        <pt x="345" y="307" on="1"/>
        <pt x="326" y="322" on="1"/>
        <pt x="315" y="344" on="1"/>
        <pt x="322" y="305" on="1"/>
        <pt x="323" y="268" on="1"/>
        <pt x="315" y="233" on="1"/>
        <pt x="314" y="196" on="1"/>
        <pt x="321" y="164" on="1"/>
        <pt x="317" y="131" on="1"/>
        <pt x="318" y="96" on="1"/>
        <pt x="317" y="61" on="1"/>
        <pt x="318" y="35" on="1"/>
        <pt x="321" y="1" on="1"/>
        <pt x="317" y="-14" on="1"/>
        <pt x="282" y="-16" on="1"/>
        <pt x="246" y="-16" on="1"/>
        <pt x="210" y="-22" on="1"/>
        <pt x="181" y="-15" on="1"/>
        <pt x="161" y="-18" on="1"/>
        <pt x="160" y="16" on="1"/>
        <pt x="162" y="52" on="1"/>
        <pt x="158" y="85" on="1"/>
        <pt x="165" y="121" on="1"/>
        <pt x="157" y="154" on="1"/>
        <pt x="159" y="189" on="1"/>
        <pt x="162" y="223" on="1"/>
        <pt x="163" y="254" on="1"/>
        <pt x="162" y="287" on="1"/>
        <pt x="162" y="318" on="1"/>
        <pt x="166" y="352" on="1"/>
        <pt x="165" y="384" on="1"/>
        <pt x="157" y="447" on="1"/>
        <pt x="160" y="479" on="1"/>
        <pt x="157" y="510" on="1"/>
        <pt x="160" y="540" on="1"/>
        <pt x="156" y="568" on="1"/>
      </contour>
    </TTGlyph>
    <TTGlyph name="O" xMin="0" yMin="-200" xMax="870" yMax="800">
      <contour>
        <pt x="7" y="-192" on="1"/>
        <pt x="39" y="-196" on="1"/>
        <pt x="71" y="-198" on="1"/>
        <pt x="104" y="-196" on="1"/>
        <pt x="139" y="-191" on="1"/>
        <pt x="171" y="-199" on="1"/>
        <pt x="205" y="-200" on="1"/>
        <pt x="240" y="-200" on="1"/>
        <pt x="273" y="-197" on="1"/>
        <pt x="308" y="-195" on="1"/>
        <pt x="340" y="-200" on="1"/>
        <pt x="374" y="-195" on="1"/>
        <pt x="406" y="-194" on="1"/>
        <pt x="440" y="-199" on="1"/>
        <pt x="471" y="-193" on="1"/>
        <pt x="505" y="-194" on="1"/>
        <pt x="536" y="-193" on="1"/>
        <pt x="570" y="-194" on="1"/>
        <pt x="601" y="-197" on="1"/>
        <pt x="636" y="-200" on="1"/>
        <pt x="668" y="-193" on="1"/>
        <pt x="699" y="-196" on="1"/>
        <pt x="727" y="-193" on="1"/>
        <pt x="760" y="-193" on="1"/>
        <pt x="791" y="-198" on="1"/>
        <pt x="822" y="-200" on="1"/>
        <pt x="844" y="-198" on="1"/>
        <pt x="868" y="-198" on="1"/>
        <pt x="864" y="-162" on="1"/>
        <pt x="863" y="-131" on="1"/>
        <pt x="864" y="-99" on="1"/>
        <pt x="862" y="-66" on="1"/>
        <pt x="867" y="-35" on="1"/>
        <pt x="869" y="-3" on="1"/>
        <pt x="864" y="30" on="1"/>
        <pt x="862" y="61" on="1"/>
        <pt x="861" y="93" on="1"/>
        <pt x="863" y="126" on="1"/>
        <pt x="867" y="157" on="1"/>
        <pt x="866" y="189" on="1"/>
        <pt x="860" y="223" on="1"/>
        <pt x="865" y="255" on="1"/>
        <pt x="863" y="288" on="1"/>
        <pt x="870" y="319" on="1"/>
        <pt x="860" y="351" on="1"/>
        <pt x="866" y="382" on="1"/>
        <pt x="866" y="414" on="1"/>
        <pt x="868" y="444" on="1"/>
        <pt x="863" y="475" on="1"/>
        <pt x="863" y="505" on="1"/>
        <pt x="866" y="537" on="1"/>
        <pt x="864" y="566" on="1"/>
        <pt x="860" y="599" on="1"/>
        <pt x="862" y="629" on="1"/>
        <pt x="864" y="658" on="1"/>
        <pt x="868" y="690" on="1"/>
        <pt x="868" y="753" on="1"/>
        <pt x="861" y="775" on="1"/>
        <pt x="866" y="798" on="1"/>
        <pt x="798" y="796" on="1"/>
        <pt x="765" y="792" on="1"/>
        <pt x="730" y="791" on="1"/>
        <pt x="698" y="795" on="1"/>
        <pt x="664" y="794" on="1"/>
        <pt x="629" y="792" on="1"/>
        <pt x="596" y="794" on="1"/>
        <pt x="562" y="798" on="1"/>
        <pt x="529" y="795" on="1"/>
        <pt x="495" y="798" on="1"/>
        <pt x="463" y="794" on="1"/>
        <pt x="430" y="800" on="1"/>
        <pt x="398" y="793" on="1"/>
        <pt x="365" y="793" on="1"/>
        <pt x="333" y="798" on="1"/>
        <pt x="300" y="796" on="1"/>
        <pt x="268" y="800" on="1"/>
        <pt x="234" y="798" on="1"/>
        <pt x="201" y="799" on="1"/>
        <pt x="170" y="791" on="1"/>
        <pt x="142" y="799" on="1"/>
        <pt x="110" y="798" on="1"/>
        <pt x="78" y="796" on="1"/>
        <pt x="48" y="797" on="1"/>
        <pt x="26" y="799" on="1"/>
        <pt x="9" y="793" on="1"/>
        <pt x="3" y="762" on="1"/>
        <pt x="5" y="731" on="1"/>
        <pt x="9" y="699" on="1"/>
        <pt x="9" y="666" on="1"/>
        <pt x="2" y="635" on="1"/>
        <pt x="4" y="603" on="1"/>
        <pt x="8" y="570" on="1"/>
        <pt x="1" y="539" on="1"/>
        <pt x="3" y="507" on="1"/>
        <pt x="4" y="474" on="1"/>
        <pt x="0" y="443" on="1"/>
        <pt x="3" y="410" on="1"/>
        <pt x="7" y="376" on="1"/>
        <pt x="9" y="345" on="1"/>
        <pt x="3" y="312" on="1"/>
        <pt x="9" y="281" on="1"/>
        <pt x="6" y="248" on="1"/>
        <pt x="7" y="218" on="1"/>
        <pt x="2" y="186" on="1"/>
        <pt x="4" y="156" on="1"/>
        <pt x="6" y="124" on="1"/>
        <pt x="4" y="95" on="1"/>
        <pt x="4" y="63" on="1"/>
        <pt x="2" y="33" on="1"/>
        <pt x="8" y="1" on="1"/>
        <pt x="6" y="-30" on="1"/>
        <pt x="10" y="-58" on="1"/>
        <pt x="2" y="-91" on="1"/>
        <pt x="1" y="-122" on="1"/>
        <pt x="0" y="-153" on="1"/>
        <pt x="9" y="-175" on="1"/>
      </contour>
      <contour>
        <pt x="438" y="623" on="1"/>
        <pt x="472" y="624" on="1"/>
        <pt x="504" y="614" on="1"/>
        <pt x="535" y="606" on="1"/>
        <pt x="566" y="594" on="1"/>
        <pt x="594" y="580" on="1"/>
        <pt x="622" y="563" on="1"/>
        <pt x="647" y="544" on="1"/>
        <pt x="674" y="526" on="1"/>
        <pt x="696" y="503" on="1"/>
        <pt x="708" y="472" on="1"/>
        <pt x="731" y="449" on="1"/>
        <pt x="738" y="417" on="1"/>
        <pt x="751" y="388" on="1"/>
        <pt x="761" y="358" on="1"/>
        <pt x="768" y="326" on="1"/>
        <pt x="763" y="295" on="1"/>
        <pt x="763" y="261" on="1"/>
        <pt x="756" y="229" on="1"/>
        <pt x="748" y="197" on="1"/>
        <pt x="740" y="165" on="1"/>
        <pt x="727" y="136" on="1"/>
        <pt x="711" y="107" on="1"/>
        <pt x="689" y="83" on="1"/>
        <pt x="670" y="58" on="1"/>
        <pt x="618" y="19" on="1"/>
        <pt x="588" y="8" on="1"/>
        <pt x="562" y="-11" on="1"/>
        <pt x="530" y="-18" on="1"/>
        <pt x="501" y="-33" on="1"/>
        <pt x="467" y="-29" on="1"/>
        <pt x="438" y="-37" on="1"/>
        <pt x="404" y="-29" on="1"/>
        <pt x="371" y="-26" on="1"/>
        <pt x="339" y="-18" on="1"/>
        <pt x="308" y="-7" on="1"/>
        <pt x="278" y="7" on="1"/>
        <pt x="250" y="22" on="1"/>
        <pt x="225" y="43" on="1"/>
        <pt x="200" y="63" on="1"/>
        <pt x="181" y="89" on="1"/>
        <pt x="162" y="115" on="1"/>
        <pt x="145" y="142" on="1"/>
        <pt x="134" y="172" on="1"/>
        <pt x="123" y="202" on="1"/>
        <pt x="112" y="232" on="1"/>
        <pt x="114" y="265" on="1"/>
        <pt x="113" y="295" on="1"/>
        <pt x="109" y="329" on="1"/>
        <pt x="119" y="361" on="1"/>
        <pt x="128" y="393" on="1"/>
        <pt x="139" y="423" on="1"/>
        <pt x="148" y="455" on="1"/>
        <pt x="164" y="483" on="1"/>
        <pt x="188" y="505" on="1"/>
        <pt x="205" y="533" on="1"/>
        <pt x="229" y="555" on="1"/>
        <pt x="256" y="572" on="1"/>
        <pt x="284" y="588" on="1"/>
        <pt x="313" y="601" on="1"/>
        <pt x="344" y="611" on="1"/>
        <pt x="375" y="617" on="1"/>
        <pt x="408" y="619" on="1"/>
      </contour>
      <contour>
        <pt x="438" y="125" on="1"/>
        <pt x="471" y="127" on="1"/>
        <pt x="503" y="136" on="1"/>
        <pt x="531" y="152" on="1"/>
        <pt x="557" y="171" on="1"/>
        <pt x="578" y="195" on="1"/>
        <pt x="594" y="222" on="1"/>
        <pt x="609" y="274" on="1"/>
        <pt x="608" y="295" on="1"/>
        <pt x="606" y="329" on="1"/>
        <pt x="598" y="361" on="1"/>
        <pt x="582" y="389" on="1"/>
        <pt x="562" y="414" on="1"/>
        <pt x="538" y="436" on="1"/>
        <pt x="510" y="451" on="1"/>
        <pt x="485" y="461" on="1"/>
        <pt x="459" y="466" on="1"/>
        <pt x="438" y="466" on="1"/>
        <pt x="404" y="464" on="1"/>
        <pt x="372" y="455" on="1"/>
        <pt x="345" y="438" on="1"/>
        <pt x="320" y="418" on="1"/>
        <pt x="298" y="395" on="1"/>
        <pt x="283" y="367" on="1"/>
        <pt x="274" y="342" on="1"/>
        <pt x="266" y="316" on="1"/>
        <pt x="266" y="295" on="1"/>
        <pt x="269" y="262" on="1"/>
        <pt x="280" y="231" on="1"/>
        <pt x="293" y="201" on="1"/>
        <pt x="314" y="177" on="1"/>
        <pt x="337" y="154" on="1"/>
        <pt x="365" y="140" on="1"/>
        <pt x="390" y="131" on="1"/>
        <pt x="416" y="125" on="1"/>
      </contour>
    </TTGlyph>
    <TTGlyph name="P" xMin="0" yMin="-200" xMax="869" yMax="800">
      <contour>
        <pt x="560" y="382" on="1"/>
        <pt x="549" y="419" on="1"/>
        <pt x="521" y="444" on="1"/>
        <pt x="489" y="452" on="1"/>
        <pt x="456" y="451" on="1"/>
        <pt x="421" y="453" on="1"/>
        <pt x="385" y="452" on="1"/>
        <pt x="357" y="452" on="1"/>
        <pt x="359" y="412" on="1"/>
        <pt x="359" y="372" on="1"/>
        <pt x="358" y="338" on="1"/>
        <pt x="359" y="312" on="1"/>
        <pt x="392" y="312" on="1"/>
        <pt x="429" y="313" on="1"/>
        <pt x="460" y="312" on="1"/>
        <pt x="489" y="313" on="1"/>
        <pt x="526" y="322" on="1"/>
        <pt x="551" y="350" on="1"/>
      </contour>
      <contour>
        <pt x="6" y="-192" on="1"/>
        <pt x="38" y="-195" on="1"/>
        <pt x="71" y="-200" on="1"/>
        <pt x="104" y="-190" on="1"/>
        <pt x="138" y="-199" on="1"/>
        <pt x="171" y="-194" on="1"/>
        <pt x="204" y="-194" on="1"/>
        <pt x="273" y="-197" on="1"/>
        <pt x="307" y="-197" on="1"/>
        <pt x="340" y="-192" on="1"/>
        <pt x="374" y="-194" on="1"/>
        <pt x="406" y="-199" on="1"/>
        <pt x="439" y="-199" on="1"/>
        <pt x="471" y="-197" on="1"/>
        <pt x="504" y="-198" on="1"/>
        <pt x="535" y="-191" on="1"/>
        <pt x="569" y="-200" on="1"/>
        <pt x="601" y="-191" on="1"/>
        <pt x="635" y="-200" on="1"/>
        <pt x="668" y="-200" on="1"/>
        <pt x="698" y="-190" on="1"/>
        <pt x="727" y="-200" on="1"/>
        <pt x="759" y="-192" on="1"/>
        <pt x="791" y="-194" on="1"/>
        <pt x="821" y="-198" on="1"/>
        <pt x="843" y="-196" on="1"/>
        <pt x="861" y="-193" on="1"/>
        <pt x="861" y="-162" on="1"/>
        <pt x="863" y="-131" on="1"/>
        <pt x="866" y="-99" on="1"/>
        <pt x="862" y="-66" on="1"/>
        <pt x="865" y="-35" on="1"/>
        <pt x="867" y="-3" on="1"/>
        <pt x="860" y="30" on="1"/>
        <pt x="865" y="61" on="1"/>
        <pt x="867" y="93" on="1"/>
        <pt x="862" y="157" on="1"/>
        <pt x="865" y="189" on="1"/>
        <pt x="866" y="223" on="1"/>
        <pt x="862" y="255" on="1"/>
        <pt x="864" y="288" on="1"/>
        <pt x="868" y="319" on="1"/>
        <pt x="860" y="352" on="1"/>
        <pt x="864" y="382" on="1"/>
        <pt x="865" y="414" on="1"/>
        <pt x="865" y="444" on="1"/>
        <pt x="861" y="476" on="1"/>
        <pt x="866" y="505" on="1"/>
        <pt x="865" y="537" on="1"/>
        <pt x="866" y="566" on="1"/>
        <pt x="863" y="599" on="1"/>
        <pt x="865" y="630" on="1"/>
        <pt x="868" y="658" on="1"/>
        <pt x="867" y="691" on="1"/>
        <pt x="868" y="722" on="1"/>
        <pt x="861" y="753" on="1"/>
        <pt x="869" y="775" on="1"/>
        <pt x="863" y="793" on="1"/>
        <pt x="830" y="795" on="1"/>
        <pt x="798" y="799" on="1"/>
        <pt x="764" y="793" on="1"/>
        <pt x="730" y="792" on="1"/>
        <pt x="698" y="800" on="1"/>
        <pt x="664" y="799" on="1"/>
        <pt x="629" y="799" on="1"/>
        <pt x="596" y="799" on="1"/>
        <pt x="561" y="798" on="1"/>
        <pt x="529" y="793" on="1"/>
        <pt x="494" y="792" on="1"/>
        <pt x="463" y="795" on="1"/>
        <pt x="429" y="798" on="1"/>
        <pt x="398" y="793" on="1"/>
        <pt x="364" y="794" on="1"/>
        <pt x="333" y="793" on="1"/>
        <pt x="299" y="797" on="1"/>
        <pt x="268" y="794" on="1"/>
        <pt x="233" y="793" on="1"/>
        <pt x="200" y="795" on="1"/>
        <pt x="170" y="800" on="1"/>
        <pt x="142" y="794" on="1"/>
        <pt x="109" y="792" on="1"/>
        <pt x="77" y="800" on="1"/>
        <pt x="25" y="798" on="1"/>
        <pt x="0" y="798" on="1"/>
        <pt x="5" y="762" on="1"/>
        <pt x="1" y="731" on="1"/>
        <pt x="7" y="699" on="1"/>
        <pt x="1" y="666" on="1"/>
        <pt x="0" y="635" on="1"/>
        <pt x="1" y="603" on="1"/>
        <pt x="9" y="570" on="1"/>
        <pt x="5" y="539" on="1"/>
        <pt x="7" y="507" on="1"/>
        <pt x="4" y="474" on="1"/>
        <pt x="7" y="443" on="1"/>
        <pt x="3" y="411" on="1"/>
        <pt x="1" y="377" on="1"/>
        <pt x="1" y="345" on="1"/>
        <pt x="7" y="312" on="1"/>
        <pt x="7" y="281" on="1"/>
        <pt x="2" y="248" on="1"/>
        <pt x="1" y="218" on="1"/>
        <pt x="7" y="186" on="1"/>
        <pt x="4" y="156" on="1"/>
        <pt x="5" y="124" on="1"/>
        <pt x="2" y="95" on="1"/>
        <pt x="8" y="63" on="1"/>
        <pt x="1" y="34" on="1"/>
        <pt x="5" y="1" on="1"/>
        <pt x="6" y="-30" on="1"/>
        <pt x="1" y="-58" on="1"/>
        <pt x="5" y="-91" on="1"/>
        <pt x="3" y="-122" on="1"/>
        <pt x="8" y="-153" on="1"/>
        <pt x="7" y="-175" on="1"/>
      </contour>
      <contour>
        <pt x="203" y="606" on="1"/>
        <pt x="233" y="613" on="1"/>
        <pt x="269" y="609" on="1"/>
        <pt x="302" y="609" on="1"/>
        <pt x="334" y="613" on="1"/>
        <pt x="371" y="606" on="1"/>
        <pt x="407" y="607" on="1"/>
        <pt x="435" y="604" on="1"/>
        <pt x="463" y="607" on="1"/>
        <pt x="489" y="606" on="1"/>
        <pt x="523" y="605" on="1"/>
        <pt x="554" y="595" on="1"/>
        <pt x="585" y="585" on="1"/>
        <pt x="614" y="572" on="1"/>
        <pt x="641" y="554" on="1"/>
        <pt x="659" y="527" on="1"/>
        <pt x="688" y="501" on="1"/>
        <pt x="695" y="469" on="1"/>
        <pt x="708" y="440" on="1"/>
        <pt x="719" y="409" on="1"/>
        <pt x="717" y="382" on="1"/>
        <pt x="715" y="348" on="1"/>
        <pt x="702" y="317" on="1"/>
        <pt x="692" y="287" on="1"/>
        <pt x="675" y="260" on="1"/>
        <pt x="661" y="230" on="1"/>
        <pt x="633" y="205" on="1"/>
        <pt x="604" y="190" on="1"/>
        <pt x="577" y="174" on="1"/>
        <pt x="547" y="164" on="1"/>
        <pt x="516" y="153" on="1"/>
        <pt x="489" y="158" on="1"/>
        <pt x="456" y="156" on="1"/>
        <pt x="421" y="160" on="1"/>
        <pt x="385" y="157" on="1"/>
        <pt x="359" y="155" on="1"/>
        <pt x="361" y="121" on="1"/>
        <pt x="358" y="86" on="1"/>
        <pt x="361" y="55" on="1"/>
        <pt x="363" y="30" on="1"/>
        <pt x="356" y="5" on="1"/>
        <pt x="359" y="-22" on="1"/>
        <pt x="322" y="-15" on="1"/>
        <pt x="286" y="-20" on="1"/>
        <pt x="250" y="-18" on="1"/>
        <pt x="222" y="-21" on="1"/>
        <pt x="197" y="-21" on="1"/>
        <pt x="203" y="15" on="1"/>
        <pt x="201" y="49" on="1"/>
        <pt x="206" y="82" on="1"/>
        <pt x="200" y="116" on="1"/>
        <pt x="204" y="147" on="1"/>
        <pt x="199" y="181" on="1"/>
        <pt x="202" y="212" on="1"/>
        <pt x="205" y="245" on="1"/>
        <pt x="197" y="276" on="1"/>
        <pt x="201" y="310" on="1"/>
        <pt x="202" y="341" on="1"/>
        <pt x="204" y="375" on="1"/>
        <pt x="202" y="407" on="1"/>
        <pt x="202" y="437" on="1"/>
        <pt x="198" y="470" on="1"/>
        <pt x="204" y="503" on="1"/>
        <pt x="202" y="534" on="1"/>
        <pt x="206" y="564" on="1"/>
        <pt x="201" y="594" on="1"/>
      </contour>
    </TTGlyph>
    <TTGlyph name="Q" xMin="0" yMin="-200" xMax="869" yMax="800">
      <contour>
        <pt x="3" y="-197" on="1"/>
        <pt x="39" y="-195" on="1"/>
        <pt x="71" y="-199" on="1"/>
        <pt x="104" y="-196" on="1"/>
        <pt x="139" y="-199" on="1"/>
        <pt x="171" y="-193" on="1"/>
        <pt x="205" y="-197" on="1"/>
        <pt x="240" y="-193" on="1"/>
        <pt x="273" y="-198" on="1"/>
        <pt x="308" y="-200" on="1"/>
        <pt x="340" y="-193" on="1"/>
        <pt x="374" y="-195" on="1"/>
        <pt x="406" y="-191" on="1"/>
        <pt x="440" y="-198" on="1"/>
        <pt x="471" y="-200" on="1"/>
        <pt x="505" y="-196" on="1"/>
        <pt x="536" y="-193" on="1"/>
        <pt x="570" y="-196" on="1"/>
        <pt x="601" y="-196" on="1"/>
        <pt x="636" y="-195" on="1"/>
        <pt x="668" y="-190" on="1"/>
        <pt x="699" y="-192" on="1"/>
        <pt x="727" y="-195" on="1"/>
        <pt x="760" y="-200" on="1"/>
        <pt x="791" y="-196" on="1"/>
        <pt x="822" y="-194" on="1"/>
        <pt x="844" y="-191" on="1"/>
        <pt x="862" y="-194" on="1"/>
        <pt x="868" y="-162" on="1"/>
        <pt x="864" y="-131" on="1"/>
        <pt x="866" y="-99" on="1"/>
        <pt x="865" y="-66" on="1"/>
        <pt x="863" y="-35" on="1"/>
        <pt x="864" y="-3" on="1"/>
        <pt x="860" y="30" on="1"/>
        <pt x="860" y="61" on="1"/>
        <pt x="869" y="93" on="1"/>
        <pt x="861" y="126" on="1"/>
        <pt x="864" y="157" on="1"/>
        <pt x="861" y="189" on="1"/>
        <pt x="867" y="223" on="1"/>
        <pt x="861" y="255" on="1"/>
        <pt x="867" y="288" on="1"/>
        <pt x="867" y="319" on="1"/>
        <pt x="869" y="352" on="1"/>
        <pt x="862" y="382" on="1"/>
        <pt x="861" y="414" on="1"/>
        <pt x="867" y="444" on="1"/>
        <pt x="861" y="476" on="1"/>
        <pt x="861" y="537" on="1"/>
        <pt x="869" y="566" on="1"/>
        <pt x="867" y="630" on="1"/>
        <pt x="861" y="658" on="1"/>
        <pt x="861" y="691" on="1"/>
        <pt x="861" y="722" on="1"/>
        <pt x="864" y="753" on="1"/>
        <pt x="866" y="798" on="1"/>
        <pt x="830" y="794" on="1"/>
        <pt x="765" y="798" on="1"/>
        <pt x="730" y="796" on="1"/>
        <pt x="698" y="793" on="1"/>
        <pt x="664" y="792" on="1"/>
        <pt x="629" y="797" on="1"/>
        <pt x="596" y="794" on="1"/>
        <pt x="562" y="798" on="1"/>
        <pt x="529" y="797" on="1"/>
        <pt x="495" y="794" on="1"/>
        <pt x="463" y="796" on="1"/>
        <pt x="430" y="795" on="1"/>
        <pt x="398" y="795" on="1"/>
        <pt x="365" y="794" on="1"/>
        <pt x="333" y="790" on="1"/>
        <pt x="300" y="793" on="1"/>
        <pt x="268" y="798" on="1"/>
        <pt x="234" y="799" on="1"/>
        <pt x="201" y="794" on="1"/>
        <pt x="170" y="793" on="1"/>
        <pt x="142" y="797" on="1"/>
        <pt x="110" y="797" on="1"/>
        <pt x="78" y="800" on="1"/>
        <pt x="48" y="792" on="1"/>
        <pt x="26" y="792" on="1"/>
        <pt x="3" y="797" on="1"/>
        <pt x="2" y="762" on="1"/>
        <pt x="7" y="731" on="1"/>
        <pt x="1" y="699" on="1"/>
        <pt x="7" y="666" on="1"/>
        <pt x="4" y="635" on="1"/>
        <pt x="6" y="603" on="1"/>
        <pt x="2" y="570" on="1"/>
        <pt x="2" y="539" on="1"/>
        <pt x="8" y="507" on="1"/>
        <pt x="3" y="474" on="1"/>
        <pt x="7" y="443" on="1"/>
        <pt x="6" y="411" on="1"/>
        <pt x="0" y="377" on="1"/>
        <pt x="0" y="345" on="1"/>
        <pt x="6" y="312" on="1"/>
        <pt x="1" y="281" on="1"/>
        <pt x="2" y="248" on="1"/>
        <pt x="1" y="218" on="1"/>
        <pt x="6" y="186" on="1"/>
        <pt x="7" y="156" on="1"/>
        <pt x="1" y="124" on="1"/>
        <pt x="4" y="95" on="1"/>
        <pt x="0" y="63" on="1"/>
        <pt x="6" y="34" on="1"/>
        <pt x="6" y="1" on="1"/>
        <pt x="8" y="-30" on="1"/>
        <pt x="3" y="-58" on="1"/>
        <pt x="4" y="-91" on="1"/>
        <pt x="2" y="-122" on="1"/>
        <pt x="8" y="-153" on="1"/>
        <pt x="10" y="-175" on="1"/>
      </contour>
      <contour>
        <pt x="420" y="620" on="1"/>
        <pt x="454" y="627" on="1"/>
        <pt x="487" y="621" on="1"/>
        <pt x="519" y="609" on="1"/>
        <pt x="548" y="594" on="1"/>
        <pt x="580" y="586" on="1"/>
        <pt x="607" y="568" on="1"/>
        <pt x="632" y="548" on="1"/>
        <pt x="655" y="525" on="1"/>
        <pt x="679" y="503" on="1"/>
        <pt x="695" y="476" on="1"/>
        <pt x="713" y="449" on="1"/>
        <pt x="729" y="421" on="1"/>
        <pt x="736" y="389" on="1"/>
        <pt x="738" y="357" on="1"/>
        <pt x="750" y="326" on="1"/>
        <pt x="747" y="295" on="1"/>
        <pt x="743" y="230" on="1"/>
        <pt x="729" y="201" on="1"/>
        <pt x="726" y="173" on="1"/>
        <pt x="715" y="150" on="1"/>
        <pt x="740" y="126" on="1"/>
        <pt x="763" y="106" on="1"/>
        <pt x="788" y="89" on="1"/>
        <pt x="768" y="58" on="1"/>
        <pt x="745" y="31" on="1"/>
        <pt x="716" y="8" on="1"/>
        <pt x="702" y="-18" on="1"/>
        <pt x="687" y="-29" on="1"/>
        <pt x="661" y="-12" on="1"/>
        <pt x="631" y="11" on="1"/>
        <pt x="613" y="26" on="1"/>
        <pt x="585" y="11" on="1"/>
        <pt x="557" y="-6" on="1"/>
        <pt x="525" y="-13" on="1"/>
        <pt x="500" y="-26" on="1"/>
        <pt x="473" y="-26" on="1"/>
        <pt x="446" y="-30" on="1"/>
        <pt x="420" y="-31" on="1"/>
        <pt x="386" y="-33" on="1"/>
        <pt x="354" y="-22" on="1"/>
        <pt x="319" y="-23" on="1"/>
        <pt x="291" y="-4" on="1"/>
        <pt x="262" y="9" on="1"/>
        <pt x="235" y="27" on="1"/>
        <pt x="208" y="43" on="1"/>
        <pt x="187" y="68" on="1"/>
        <pt x="161" y="87" on="1"/>
        <pt x="145" y="115" on="1"/>
        <pt x="128" y="142" on="1"/>
        <pt x="115" y="172" on="1"/>
        <pt x="101" y="201" on="1"/>
        <pt x="101" y="234" on="1"/>
        <pt x="92" y="265" on="1"/>
        <pt x="93" y="295" on="1"/>
        <pt x="88" y="330" on="1"/>
        <pt x="100" y="362" on="1"/>
        <pt x="105" y="395" on="1"/>
        <pt x="115" y="426" on="1"/>
        <pt x="128" y="456" on="1"/>
        <pt x="148" y="482" on="1"/>
        <pt x="170" y="506" on="1"/>
        <pt x="192" y="529" on="1"/>
        <pt x="240" y="570" on="1"/>
        <pt x="266" y="589" on="1"/>
        <pt x="295" y="603" on="1"/>
        <pt x="327" y="609" on="1"/>
        <pt x="357" y="621" on="1"/>
        <pt x="390" y="620" on="1"/>
      </contour>
      <contour>
        <pt x="420" y="124" on="1"/>
        <pt x="452" y="129" on="1"/>
        <pt x="481" y="137" on="1"/>
        <pt x="452" y="164" on="1"/>
        <pt x="425" y="184" on="1"/>
        <pt x="449" y="212" on="1"/>
        <pt x="472" y="239" on="1"/>
        <pt x="494" y="268" on="1"/>
        <pt x="512" y="289" on="1"/>
        <pt x="525" y="306" on="1"/>
        <pt x="548" y="289" on="1"/>
        <pt x="569" y="270" on="1"/>
        <pt x="586" y="255" on="1"/>
        <pt x="590" y="295" on="1"/>
        <pt x="590" y="329" on="1"/>
        <pt x="579" y="360" on="1"/>
        <pt x="564" y="389" on="1"/>
        <pt x="544" y="414" on="1"/>
        <pt x="520" y="435" on="1"/>
        <pt x="492" y="451" on="1"/>
        <pt x="468" y="462" on="1"/>
        <pt x="441" y="465" on="1"/>
        <pt x="420" y="466" on="1"/>
        <pt x="386" y="464" on="1"/>
        <pt x="354" y="456" on="1"/>
        <pt x="325" y="441" on="1"/>
        <pt x="301" y="420" on="1"/>
        <pt x="281" y="395" on="1"/>
        <pt x="263" y="368" on="1"/>
        <pt x="256" y="342" on="1"/>
        <pt x="250" y="316" on="1"/>
        <pt x="249" y="295" on="1"/>
        <pt x="251" y="262" on="1"/>
        <pt x="260" y="230" on="1"/>
        <pt x="276" y="202" on="1"/>
        <pt x="296" y="177" on="1"/>
        <pt x="320" y="156" on="1"/>
        <pt x="347" y="140" on="1"/>
        <pt x="372" y="130" on="1"/>
        <pt x="399" y="124" on="1"/>
      </contour>
    </TTGlyph>
    <TTGlyph name="R" xMin="0" yMin="-200" xMax="870" yMax="800">
      <contour>
        <pt x="4" y="-198" on="1"/>
        <pt x="39" y="-197" on="1"/>
        <pt x="71" y="-197" on="1"/>
        <pt x="105" y="-197" on="1"/>
        <pt x="139" y="-195" on="1"/>
        <pt x="171" y="-192" on="1"/>
        <pt x="240" y="-194" on="1"/>
        <pt x="273" y="-193" on="1"/>
        <pt x="308" y="-192" on="1"/>
        <pt x="340" y="-199" on="1"/>
        <pt x="375" y="-197" on="1"/>
        <pt x="406" y="-197" on="1"/>
        <pt x="440" y="-197" on="1"/>
        <pt x="472" y="-199" on="1"/>
        <pt x="505" y="-192" on="1"/>
        <pt x="536" y="-193" on="1"/>
        <pt x="570" y="-200" on="1"/>
        <pt x="602" y="-193" on="1"/>
        <pt x="636" y="-193" on="1"/>
        <pt x="669" y="-192" on="1"/>
        <pt x="699" y="-195" on="1"/>
        <pt x="728" y="-198" on="1"/>
        <pt x="760" y="-192" on="1"/>
        <pt x="792" y="-195" on="1"/>
        <pt x="822" y="-197" on="1"/>
        <pt x="844" y="-200" on="1"/>
        <pt x="864" y="-195" on="1"/>
        <pt x="864" y="-162" on="1"/>
        <pt x="869" y="-131" on="1"/>
        <pt x="868" y="-99" on="1"/>
        <pt x="869" y="-66" on="1"/>
        <pt x="870" y="-35" on="1"/>
        <pt x="864" y="-3" on="1"/>
        <pt x="869" y="30" on="1"/>
        <pt x="867" y="61" on="1"/>
        <pt x="863" y="93" on="1"/>
        <pt x="862" y="126" on="1"/>
        <pt x="863" y="157" on="1"/>
        <pt x="865" y="189" on="1"/>
        <pt x="869" y="223" on="1"/>
        <pt x="868" y="255" on="1"/>
        <pt x="863" y="288" on="1"/>
        <pt x="866" y="319" on="1"/>
        <pt x="862" y="352" on="1"/>
        <pt x="866" y="382" on="1"/>
        <pt x="861" y="414" on="1"/>
        <pt x="864" y="444" on="1"/>
        <pt x="861" y="476" on="1"/>
        <pt x="866" y="505" on="1"/>
        <pt x="864" y="537" on="1"/>
        <pt x="867" y="566" on="1"/>
        <pt x="864" y="599" on="1"/>
        <pt x="864" y="630" on="1"/>
        <pt x="861" y="658" on="1"/>
        <pt x="869" y="691" on="1"/>
        <pt x="867" y="722" on="1"/>
        <pt x="863" y="753" on="1"/>
        <pt x="868" y="775" on="1"/>
        <pt x="867" y="798" on="1"/>
        <pt x="831" y="800" on="1"/>
        <pt x="799" y="792" on="1"/>
        <pt x="766" y="791" on="1"/>
        <pt x="731" y="797" on="1"/>
        <pt x="699" y="793" on="1"/>
        <pt x="665" y="792" on="1"/>
        <pt x="630" y="795" on="1"/>
        <pt x="597" y="791" on="1"/>
        <pt x="562" y="794" on="1"/>
        <pt x="530" y="794" on="1"/>
        <pt x="496" y="791" on="1"/>
        <pt x="464" y="799" on="1"/>
        <pt x="430" y="799" on="1"/>
        <pt x="399" y="797" on="1"/>
        <pt x="365" y="799" on="1"/>
        <pt x="300" y="791" on="1"/>
        <pt x="268" y="794" on="1"/>
        <pt x="234" y="791" on="1"/>
        <pt x="201" y="796" on="1"/>
        <pt x="171" y="800" on="1"/>
        <pt x="142" y="797" on="1"/>
        <pt x="110" y="796" on="1"/>
        <pt x="78" y="796" on="1"/>
        <pt x="48" y="800" on="1"/>
        <pt x="26" y="797" on="1"/>
        <pt x="2" y="797" on="1"/>
        <pt x="7" y="762" on="1"/>
        <pt x="8" y="731" on="1"/>
        <pt x="2" y="699" on="1"/>
        <pt x="8" y="666" on="1"/>
        <pt x="8" y="635" on="1"/>
        <pt x="3" y="603" on="1"/>
        <pt x="1" y="570" on="1"/>
        <pt x="6" y="539" on="1"/>
        <pt x="9" y="507" on="1"/>
        <pt x="1" y="474" on="1"/>
        <pt x="4" y="443" on="1"/>
        <pt x="3" y="411" on="1"/>
        <pt x="3" y="377" on="1"/>
        <pt x="4" y="345" on="1"/>
        <pt x="3" y="312" on="1"/>
        <pt x="6" y="281" on="1"/>
        <pt x="3" y="186" on="1"/>
        <pt x="9" y="156" on="1"/>
        <pt x="1" y="124" on="1"/>
        <pt x="6" y="95" on="1"/>
        <pt x="5" y="63" on="1"/>
        <pt x="10" y="33" on="1"/>
        <pt x="5" y="1" on="1"/>
        <pt x="9" y="-30" on="1"/>
        <pt x="0" y="-58" on="1"/>
        <pt x="4" y="-91" on="1"/>
        <pt x="2" y="-122" on="1"/>
        <pt x="8" y="-175" on="1"/>
      </contour>
      <contour>
        <pt x="188" y="608" on="1"/>
        <pt x="209" y="613" on="1"/>
        <pt x="244" y="604" on="1"/>
        <pt x="276" y="607" on="1"/>
        <pt x="306" y="604" on="1"/>
        <pt x="340" y="606" on="1"/>
        <pt x="373" y="611" on="1"/>
        <pt x="405" y="610" on="1"/>
        <pt x="437" y="610" on="1"/>
        <pt x="460" y="606" on="1"/>
        <pt x="476" y="613" on="1"/>
        <pt x="509" y="605" on="1"/>
        <pt x="541" y="595" on="1"/>
        <pt x="575" y="591" on="1"/>
        <pt x="599" y="569" on="1"/>
        <pt x="628" y="553" on="1"/>
        <pt x="672" y="500" on="1"/>
        <pt x="681" y="469" on="1"/>
        <pt x="696" y="440" on="1"/>
        <pt x="700" y="408" on="1"/>
        <pt x="703" y="382" on="1"/>
        <pt x="697" y="349" on="1"/>
        <pt x="689" y="318" on="1"/>
        <pt x="680" y="287" on="1"/>
        <pt x="666" y="258" on="1"/>
        <pt x="643" y="235" on="1"/>
        <pt x="623" y="218" on="1"/>
        <pt x="603" y="199" on="1"/>
        <pt x="623" y="171" on="1"/>
        <pt x="638" y="138" on="1"/>
        <pt x="650" y="105" on="1"/>
        <pt x="671" y="80" on="1"/>
        <pt x="678" y="47" on="1"/>
        <pt x="694" y="26" on="1"/>
        <pt x="703" y="2" on="1"/>
        <pt x="717" y="-21" on="1"/>
        <pt x="684" y="-18" on="1"/>
        <pt x="654" y="-22" on="1"/>
        <pt x="618" y="-19" on="1"/>
        <pt x="590" y="-13" on="1"/>
        <pt x="555" y="-14" on="1"/>
        <pt x="532" y="-23" on="1"/>
        <pt x="521" y="12" on="1"/>
        <pt x="501" y="42" on="1"/>
        <pt x="486" y="72" on="1"/>
        <pt x="471" y="104" on="1"/>
        <pt x="452" y="133" on="1"/>
        <pt x="444" y="152" on="1"/>
        <pt x="404" y="150" on="1"/>
        <pt x="370" y="159" on="1"/>
        <pt x="346" y="152" on="1"/>
        <pt x="347" y="120" on="1"/>
        <pt x="344" y="86" on="1"/>
        <pt x="341" y="55" on="1"/>
        <pt x="342" y="30" on="1"/>
        <pt x="349" y="5" on="1"/>
        <pt x="344" y="-14" on="1"/>
        <pt x="308" y="-21" on="1"/>
        <pt x="273" y="-22" on="1"/>
        <pt x="208" y="-16" on="1"/>
        <pt x="186" y="-19" on="1"/>
        <pt x="192" y="15" on="1"/>
        <pt x="190" y="49" on="1"/>
        <pt x="184" y="81" on="1"/>
        <pt x="189" y="115" on="1"/>
        <pt x="184" y="147" on="1"/>
        <pt x="189" y="181" on="1"/>
        <pt x="187" y="212" on="1"/>
        <pt x="191" y="245" on="1"/>
        <pt x="187" y="276" on="1"/>
        <pt x="183" y="309" on="1"/>
        <pt x="191" y="340" on="1"/>
        <pt x="188" y="375" on="1"/>
        <pt x="187" y="407" on="1"/>
        <pt x="185" y="436" on="1"/>
        <pt x="185" y="470" on="1"/>
        <pt x="193" y="503" on="1"/>
        <pt x="191" y="534" on="1"/>
        <pt x="185" y="564" on="1"/>
        <pt x="191" y="594" on="1"/>
      </contour>
      <contour>
        <pt x="546" y="382" on="1"/>
        <pt x="536" y="419" on="1"/>
        <pt x="508" y="444" on="1"/>
        <pt x="476" y="452" on="1"/>
        <pt x="443" y="451" on="1"/>
        <pt x="408" y="453" on="1"/>
        <pt x="371" y="451" on="1"/>
        <pt x="344" y="452" on="1"/>
        <pt x="344" y="412" on="1"/>
        <pt x="346" y="338" on="1"/>
        <pt x="344" y="312" on="1"/>
        <pt x="379" y="312" on="1"/>
        <pt x="415" y="312" on="1"/>
        <pt x="447" y="313" on="1"/>
        <pt x="476" y="313" on="1"/>
        <pt x="513" y="322" on="1"/>
        <pt x="537" y="350" on="1"/>
      </contour>
    </TTGlyph>
    <TTGlyph name="S" xMin="0" yMin="-200" xMax="869" yMax="800">
      <contour>
        <pt x="7" y="-192" on="1"/>
        <pt x="39" y="-197" on="1"/>
        <pt x="71" y="-195" on="1"/>
        <pt x="104" y="-200" on="1"/>
        <pt x="139" y="-194" on="1"/>
        <pt x="171" y="-192" on="1"/>
        <pt x="205" y="-198" on="1"/>
        <pt x="240" y="-199" on="1"/>
        <pt x="273" y="-192" on="1"/>
        <pt x="308" y="-197" on="1"/>
        <pt x="340" y="-200" on="1"/>
        <pt x="374" y="-199" on="1"/>
        <pt x="406" y="-194" on="1"/>
        <pt x="440" y="-193" on="1"/>
        <pt x="471" y="-200" on="1"/>
        <pt x="505" y="-191" on="1"/>
        <pt x="536" y="-197" on="1"/>
        <pt x="570" y="-191" on="1"/>
        <pt x="601" y="-191" on="1"/>
        <pt x="636" y="-199" on="1"/>
        <pt x="668" y="-198" on="1"/>
        <pt x="699" y="-200" on="1"/>
        <pt x="727" y="-196" on="1"/>
        <pt x="760" y="-199" on="1"/>
        <pt x="791" y="-194" on="1"/>
        <pt x="822" y="-192" on="1"/>
        <pt x="844" y="-193" on="1"/>
        <pt x="861" y="-193" on="1"/>
        <pt x="866" y="-162" on="1"/>
        <pt x="868" y="-131" on="1"/>
        <pt x="864" y="-99" on="1"/>
        <pt x="863" y="-66" on="1"/>
        <pt x="863" y="-35" on="1"/>
        <pt x="869" y="-3" on="1"/>
        <pt x="864" y="30" on="1"/>
        <pt x="864" y="61" on="1"/>
        <pt x="864" y="93" on="1"/>
        <pt x="867" y="126" on="1"/>
        <pt x="864" y="157" on="1"/>
        <pt x="866" y="189" on="1"/>
        <pt x="860" y="223" on="1"/>
        <pt x="865" y="255" on="1"/>
        <pt x="867" y="288" on="1"/>
        <pt x="861" y="319" on="1"/>
        <pt x="860" y="351" on="1"/>
        <pt x="866" y="382" on="1"/>
        <pt x="864" y="414" on="1"/>
        <pt x="863" y="444" on="1"/>
        <pt x="861" y="475" on="1"/>
        <pt x="868" y="505" on="1"/>
        <pt x="868" y="537" on="1"/>
        <pt x="869" y="566" on="1"/>
        <pt x="864" y="599" on="1"/>
        <pt x="868" y="629" on="1"/>
        <pt x="861" y="658" on="1"/>
        <pt x="868" y="690" on="1"/>
        <pt x="863" y="722" on="1"/>
        <pt x="865" y="753" on="1"/>
        <pt x="865" y="775" on="1"/>
        <pt x="867" y="799" on="1"/>
        <pt x="830" y="797" on="1"/>
        <pt x="798" y="790" on="1"/>
        <pt x="765" y="794" on="1"/>
        <pt x="731" y="795" on="1"/>
        <pt x="698" y="796" on="1"/>
        <pt x="629" y="791" on="1"/>
        <pt x="596" y="792" on="1"/>
        <pt x="562" y="792" on="1"/>
        <pt x="529" y="793" on="1"/>
        <pt x="495" y="796" on="1"/>
        <pt x="463" y="794" on="1"/>
        <pt x="430" y="799" on="1"/>
        <pt x="398" y="792" on="1"/>
        <pt x="365" y="800" on="1"/>
        <pt x="333" y="798" on="1"/>
        <pt x="300" y="795" on="1"/>
        <pt x="268" y="797" on="1"/>
        <pt x="234" y="798" on="1"/>
        <pt x="201" y="796" on="1"/>
        <pt x="170" y="798" on="1"/>
        <pt x="142" y="797" on="1"/>
        <pt x="109" y="795" on="1"/>
        <pt x="78" y="797" on="1"/>
        <pt x="47" y="792" on="1"/>
        <pt x="25" y="794" on="1"/>
        <pt x="1" y="797" on="1"/>
        <pt x="2" y="762" on="1"/>
        <pt x="6" y="731" on="1"/>
        <pt x="9" y="699" on="1"/>
        <pt x="7" y="666" on="1"/>
        <pt x="8" y="635" on="1"/>
        <pt x="4" y="603" on="1"/>
        <pt x="8" y="570" on="1"/>
        <pt x="0" y="539" on="1"/>
        <pt x="3" y="507" on="1"/>
        <pt x="3" y="474" on="1"/>
        <pt x="4" y="443" on="1"/>
        <pt x="9" y="410" on="1"/>
        <pt x="7" y="376" on="1"/>
        <pt x="8" y="345" on="1"/>
        <pt x="3" y="312" on="1"/>
        <pt x="4" y="281" on="1"/>
        <pt x="4" y="248" on="1"/>
        <pt x="9" y="218" on="1"/>
        <pt x="8" y="186" on="1"/>
        <pt x="2" y="124" on="1"/>
        <pt x="3" y="95" on="1"/>
        <pt x="3" y="63" on="1"/>
        <pt x="1" y="33" on="1"/>
        <pt x="4" y="1" on="1"/>
        <pt x="8" y="-30" on="1"/>
        <pt x="3" y="-91" on="1"/>
        <pt x="5" y="-122" on="1"/>
        <pt x="5" y="-153" on="1"/>
        <pt x="8" y="-175" on="1"/>
      </contour>
      <contour>
        <pt x="499" y="183" on="1"/>
        <pt x="475" y="202" on="1"/>
        <pt x="443" y="219" on="1"/>
        <pt x="414" y="224" on="1"/>
        <pt x="381" y="235" on="1"/>
        <pt x="363" y="245" on="1"/>
        <pt x="334" y="261" on="1"/>
        <pt x="308" y="282" on="1"/>
        <pt x="284" y="304" on="1"/>
        <pt x="265" y="329" on="1"/>
        <pt x="247" y="357" on="1"/>
        <pt x="244" y="384" on="1"/>
        <pt x="232" y="409" on="1"/>
        <pt x="237" y="433" on="1"/>
        <pt x="242" y="469" on="1"/>
        <pt x="246" y="498" on="1"/>
        <pt x="257" y="531" on="1"/>
        <pt x="280" y="557" on="1"/>
        <pt x="303" y="579" on="1"/>
        <pt x="329" y="596" on="1"/>
        <pt x="354" y="615" on="1"/>
        <pt x="381" y="626" on="1"/>
        <pt x="406" y="623" on="1"/>
        <pt x="438" y="625" on="1"/>
        <pt x="470" y="622" on="1"/>
        <pt x="503" y="623" on="1"/>
        <pt x="529" y="612" on="1"/>
        <pt x="549" y="593" on="1"/>
        <pt x="571" y="582" on="1"/>
        <pt x="595" y="560" on="1"/>
        <pt x="620" y="537" on="1"/>
        <pt x="631" y="506" on="1"/>
        <pt x="641" y="482" on="1"/>
        <pt x="652" y="457" on="1"/>
        <pt x="656" y="433" on="1"/>
        <pt x="663" y="409" on="1"/>
        <pt x="625" y="407" on="1"/>
        <pt x="590" y="397" on="1"/>
        <pt x="553" y="401" on="1"/>
        <pt x="525" y="396" on="1"/>
        <pt x="508" y="394" on="1"/>
        <pt x="499" y="412" on="1"/>
        <pt x="494" y="439" on="1"/>
        <pt x="477" y="459" on="1"/>
        <pt x="446" y="468" on="1"/>
        <pt x="424" y="467" on="1"/>
        <pt x="390" y="450" on="1"/>
        <pt x="394" y="439" on="1"/>
        <pt x="398" y="407" on="1"/>
        <pt x="417" y="390" on="1"/>
        <pt x="451" y="378" on="1"/>
        <pt x="479" y="373" on="1"/>
        <pt x="510" y="357" on="1"/>
        <pt x="531" y="353" on="1"/>
        <pt x="560" y="338" on="1"/>
        <pt x="586" y="318" on="1"/>
        <pt x="612" y="298" on="1"/>
        <pt x="633" y="273" on="1"/>
        <pt x="642" y="249" on="1"/>
        <pt x="655" y="191" on="1"/>
        <pt x="659" y="164" on="1"/>
        <pt x="663" y="139" on="1"/>
        <pt x="643" y="99" on="1"/>
        <pt x="631" y="69" on="1"/>
        <pt x="618" y="38" on="1"/>
        <pt x="594" y="15" on="1"/>
        <pt x="567" y="-3" on="1"/>
        <pt x="543" y="-15" on="1"/>
        <pt x="516" y="-21" on="1"/>
        <pt x="493" y="-28" on="1"/>
        <pt x="493" y="-25" on="1"/>
        <pt x="491" y="-34" on="1"/>
        <pt x="490" y="-26" on="1"/>
        <pt x="461" y="-36" on="1"/>
        <pt x="430" y="-37" on="1"/>
        <pt x="396" y="-29" on="1"/>
        <pt x="367" y="-20" on="1"/>
        <pt x="338" y="-8" on="1"/>
        <pt x="319" y="3" on="1"/>
        <pt x="297" y="28" on="1"/>
        <pt x="269" y="50" on="1"/>
        <pt x="255" y="81" on="1"/>
        <pt x="246" y="109" on="1"/>
        <pt x="233" y="163" on="1"/>
        <pt x="231" y="182" on="1"/>
        <pt x="266" y="184" on="1"/>
        <pt x="301" y="190" on="1"/>
        <pt x="337" y="198" on="1"/>
        <pt x="365" y="198" on="1"/>
        <pt x="387" y="207" on="1"/>
        <pt x="388" y="183" on="1"/>
        <pt x="401" y="153" on="1"/>
        <pt x="413" y="137" on="1"/>
        <pt x="442" y="119" on="1"/>
        <pt x="467" y="129" on="1"/>
        <pt x="502" y="151" on="1"/>
        <pt x="503" y="166" on="1"/>
      </contour>
    </TTGlyph>
    <TTGlyph name="T" xMin="0" yMin="-200" xMax="870" yMax="800">
      <contour>
        <pt x="3" y="-198" on="1"/>
        <pt x="39" y="-197" on="1"/>
        <pt x="71" y="-194" on="1"/>
        <pt x="105" y="-196" on="1"/>
        <pt x="139" y="-195" on="1"/>
        <pt x="171" y="-196" on="1"/>
        <pt x="205" y="-200" on="1"/>
        <pt x="240" y="-196" on="1"/>
        <pt x="273" y="-195" on="1"/>
        <pt x="308" y="-196" on="1"/>
        <pt x="341" y="-192" on="1"/>
        <pt x="375" y="-194" on="1"/>
        <pt x="406" y="-193" on="1"/>
        <pt x="440" y="-196" on="1"/>
        <pt x="472" y="-193" on="1"/>
        <pt x="505" y="-194" on="1"/>
        <pt x="536" y="-198" on="1"/>
        <pt x="570" y="-195" on="1"/>
        <pt x="602" y="-196" on="1"/>
        <pt x="636" y="-194" on="1"/>
        <pt x="669" y="-195" on="1"/>
        <pt x="700" y="-194" on="1"/>
        <pt x="728" y="-198" on="1"/>
        <pt x="760" y="-190" on="1"/>
        <pt x="823" y="-195" on="1"/>
        <pt x="844" y="-199" on="1"/>
        <pt x="867" y="-196" on="1"/>
        <pt x="868" y="-162" on="1"/>
        <pt x="864" y="-131" on="1"/>
        <pt x="868" y="-99" on="1"/>
        <pt x="861" y="-66" on="1"/>
        <pt x="867" y="-35" on="1"/>
        <pt x="862" y="-3" on="1"/>
        <pt x="869" y="30" on="1"/>
        <pt x="862" y="61" on="1"/>
        <pt x="867" y="93" on="1"/>
        <pt x="861" y="126" on="1"/>
        <pt x="861" y="157" on="1"/>
        <pt x="863" y="190" on="1"/>
        <pt x="868" y="224" on="1"/>
        <pt x="862" y="255" on="1"/>
        <pt x="863" y="288" on="1"/>
        <pt x="863" y="319" on="1"/>
        <pt x="865" y="352" on="1"/>
        <pt x="870" y="382" on="1"/>
        <pt x="868" y="414" on="1"/>
        <pt x="868" y="444" on="1"/>
        <pt x="866" y="476" on="1"/>
        <pt x="864" y="505" on="1"/>
        <pt x="862" y="537" on="1"/>
        <pt x="867" y="567" on="1"/>
        <pt x="861" y="600" on="1"/>
        <pt x="867" y="630" on="1"/>
        <pt x="866" y="658" on="1"/>
        <pt x="868" y="691" on="1"/>
        <pt x="861" y="723" on="1"/>
        <pt x="862" y="753" on="1"/>
        <pt x="868" y="775" on="1"/>
        <pt x="864" y="794" on="1"/>
        <pt x="831" y="800" on="1"/>
        <pt x="799" y="800" on="1"/>
        <pt x="766" y="796" on="1"/>
        <pt x="731" y="793" on="1"/>
        <pt x="699" y="800" on="1"/>
        <pt x="665" y="791" on="1"/>
        <pt x="630" y="792" on="1"/>
        <pt x="597" y="791" on="1"/>
        <pt x="562" y="791" on="1"/>
        <pt x="530" y="794" on="1"/>
        <pt x="496" y="797" on="1"/>
        <pt x="464" y="791" on="1"/>
        <pt x="430" y="800" on="1"/>
        <pt x="399" y="794" on="1"/>
        <pt x="365" y="793" on="1"/>
        <pt x="334" y="799" on="1"/>
        <pt x="300" y="793" on="1"/>
        <pt x="269" y="792" on="1"/>
        <pt x="234" y="795" on="1"/>
        <pt x="201" y="795" on="1"/>
        <pt x="171" y="794" on="1"/>
        <pt x="142" y="798" on="1"/>
        <pt x="110" y="800" on="1"/>
        <pt x="78" y="796" on="1"/>
        <pt x="48" y="795" on="1"/>
        <pt x="26" y="799" on="1"/>
        <pt x="4" y="796" on="1"/>
        <pt x="7" y="731" on="1"/>
        <pt x="2" y="699" on="1"/>
        <pt x="9" y="666" on="1"/>
        <pt x="4" y="635" on="1"/>
        <pt x="0" y="604" on="1"/>
        <pt x="2" y="570" on="1"/>
        <pt x="3" y="508" on="1"/>
        <pt x="7" y="474" on="1"/>
        <pt x="0" y="443" on="1"/>
        <pt x="0" y="411" on="1"/>
        <pt x="3" y="377" on="1"/>
        <pt x="3" y="345" on="1"/>
        <pt x="3" y="312" on="1"/>
        <pt x="7" y="281" on="1"/>
        <pt x="8" y="249" on="1"/>
        <pt x="0" y="218" on="1"/>
        <pt x="6" y="186" on="1"/>
        <pt x="3" y="156" on="1"/>
        <pt x="4" y="124" on="1"/>
        <pt x="8" y="95" on="1"/>
        <pt x="2" y="63" on="1"/>
        <pt x="8" y="34" on="1"/>
        <pt x="4" y="1" on="1"/>
        <pt x="1" y="-30" on="1"/>
        <pt x="1" y="-58" on="1"/>
        <pt x="8" y="-91" on="1"/>
        <pt x="7" y="-122" on="1"/>
        <pt x="1" y="-153" on="1"/>
        <pt x="3" y="-175" on="1"/>
      </contour>
      <contour>
        <pt x="174" y="613" on="1"/>
        <pt x="212" y="606" on="1"/>
        <pt x="244" y="608" on="1"/>
        <pt x="279" y="614" on="1"/>
        <pt x="312" y="605" on="1"/>
        <pt x="347" y="613" on="1"/>
        <pt x="380" y="614" on="1"/>
        <pt x="416" y="608" on="1"/>
        <pt x="450" y="610" on="1"/>
        <pt x="481" y="611" on="1"/>
        <pt x="511" y="614" on="1"/>
        <pt x="544" y="605" on="1"/>
        <pt x="576" y="606" on="1"/>
        <pt x="607" y="611" on="1"/>
        <pt x="636" y="610" on="1"/>
        <pt x="664" y="614" on="1"/>
        <pt x="683" y="607" on="1"/>
        <pt x="691" y="572" on="1"/>
        <pt x="683" y="507" on="1"/>
        <pt x="689" y="479" on="1"/>
        <pt x="685" y="456" on="1"/>
        <pt x="653" y="460" on="1"/>
        <pt x="619" y="454" on="1"/>
        <pt x="586" y="456" on="1"/>
        <pt x="560" y="459" on="1"/>
        <pt x="533" y="452" on="1"/>
        <pt x="513" y="452" on="1"/>
        <pt x="506" y="423" on="1"/>
        <pt x="513" y="390" on="1"/>
        <pt x="507" y="356" on="1"/>
        <pt x="510" y="324" on="1"/>
        <pt x="510" y="289" on="1"/>
        <pt x="506" y="252" on="1"/>
        <pt x="510" y="221" on="1"/>
        <pt x="512" y="189" on="1"/>
        <pt x="511" y="120" on="1"/>
        <pt x="508" y="85" on="1"/>
        <pt x="513" y="58" on="1"/>
        <pt x="507" y="31" on="1"/>
        <pt x="512" y="5" on="1"/>
        <pt x="511" y="-24" on="1"/>
        <pt x="474" y="-24" on="1"/>
        <pt x="438" y="-22" on="1"/>
        <pt x="402" y="-23" on="1"/>
        <pt x="373" y="-23" on="1"/>
        <pt x="355" y="-17" on="1"/>
        <pt x="355" y="15" on="1"/>
        <pt x="354" y="51" on="1"/>
        <pt x="350" y="83" on="1"/>
        <pt x="356" y="119" on="1"/>
        <pt x="348" y="152" on="1"/>
        <pt x="353" y="187" on="1"/>
        <pt x="356" y="223" on="1"/>
        <pt x="351" y="284" on="1"/>
        <pt x="355" y="315" on="1"/>
        <pt x="353" y="347" on="1"/>
        <pt x="356" y="409" on="1"/>
        <pt x="354" y="437" on="1"/>
        <pt x="355" y="459" on="1"/>
        <pt x="318" y="453" on="1"/>
        <pt x="284" y="456" on="1"/>
        <pt x="254" y="458" on="1"/>
        <pt x="221" y="458" on="1"/>
        <pt x="196" y="458" on="1"/>
        <pt x="172" y="454" on="1"/>
        <pt x="174" y="492" on="1"/>
        <pt x="180" y="528" on="1"/>
        <pt x="172" y="557" on="1"/>
        <pt x="175" y="585" on="1"/>
      </contour>
    </TTGlyph>
    <TTGlyph name="U" xMin="0" yMin="-200" xMax="870" yMax="800">
      <contour>
        <pt x="3" y="-199" on="1"/>
        <pt x="39" y="-195" on="1"/>
        <pt x="71" y="-196" on="1"/>
        <pt x="104" y="-200" on="1"/>
        <pt x="139" y="-198" on="1"/>
        <pt x="205" y="-198" on="1"/>
        <pt x="240" y="-191" on="1"/>
        <pt x="273" y="-199" on="1"/>
        <pt x="308" y="-194" on="1"/>
        <pt x="340" y="-193" on="1"/>
        <pt x="375" y="-197" on="1"/>
        <pt x="406" y="-199" on="1"/>
        <pt x="440" y="-195" on="1"/>
        <pt x="472" y="-192" on="1"/>
        <pt x="505" y="-192" on="1"/>
        <pt x="536" y="-200" on="1"/>
        <pt x="570" y="-199" on="1"/>
        <pt x="602" y="-191" on="1"/>
        <pt x="636" y="-200" on="1"/>
        <pt x="669" y="-191" on="1"/>
        <pt x="700" y="-194" on="1"/>
        <pt x="728" y="-197" on="1"/>
        <pt x="761" y="-192" on="1"/>
        <pt x="792" y="-195" on="1"/>
        <pt x="823" y="-191" on="1"/>
        <pt x="845" y="-191" on="1"/>
        <pt x="865" y="-195" on="1"/>
        <pt x="862" y="-162" on="1"/>
        <pt x="863" y="-131" on="1"/>
        <pt x="868" y="-99" on="1"/>
        <pt x="866" y="-66" on="1"/>
        <pt x="867" y="-35" on="1"/>
        <pt x="865" y="-3" on="1"/>
        <pt x="868" y="30" on="1"/>
        <pt x="868" y="61" on="1"/>
        <pt x="861" y="93" on="1"/>
        <pt x="868" y="126" on="1"/>
        <pt x="866" y="157" on="1"/>
        <pt x="868" y="189" on="1"/>
        <pt x="863" y="255" on="1"/>
        <pt x="870" y="288" on="1"/>
        <pt x="867" y="319" on="1"/>
        <pt x="861" y="352" on="1"/>
        <pt x="865" y="382" on="1"/>
        <pt x="865" y="414" on="1"/>
        <pt x="864" y="444" on="1"/>
        <pt x="869" y="476" on="1"/>
        <pt x="866" y="505" on="1"/>
        <pt x="865" y="537" on="1"/>
        <pt x="862" y="567" on="1"/>
        <pt x="866" y="599" on="1"/>
        <pt x="864" y="630" on="1"/>
        <pt x="870" y="658" on="1"/>
        <pt x="864" y="691" on="1"/>
        <pt x="869" y="723" on="1"/>
        <pt x="862" y="753" on="1"/>
        <pt x="862" y="775" on="1"/>
        <pt x="863" y="792" on="1"/>
        <pt x="831" y="798" on="1"/>
        <pt x="799" y="792" on="1"/>
        <pt x="766" y="796" on="1"/>
        <pt x="731" y="792" on="1"/>
        <pt x="699" y="799" on="1"/>
        <pt x="665" y="800" on="1"/>
        <pt x="630" y="797" on="1"/>
        <pt x="597" y="793" on="1"/>
        <pt x="562" y="795" on="1"/>
        <pt x="530" y="798" on="1"/>
        <pt x="496" y="798" on="1"/>
        <pt x="464" y="797" on="1"/>
        <pt x="430" y="791" on="1"/>
        <pt x="398" y="795" on="1"/>
        <pt x="365" y="795" on="1"/>
        <pt x="334" y="799" on="1"/>
        <pt x="300" y="798" on="1"/>
        <pt x="268" y="794" on="1"/>
        <pt x="201" y="792" on="1"/>
        <pt x="171" y="793" on="1"/>
        <pt x="142" y="800" on="1"/>
        <pt x="110" y="793" on="1"/>
        <pt x="78" y="792" on="1"/>
        <pt x="47" y="796" on="1"/>
        <pt x="25" y="798" on="1"/>
        <pt x="8" y="793" on="1"/>
        <pt x="4" y="763" on="1"/>
        <pt x="3" y="731" on="1"/>
        <pt x="2" y="699" on="1"/>
        <pt x="8" y="666" on="1"/>
        <pt x="1" y="635" on="1"/>
        <pt x="6" y="604" on="1"/>
        <pt x="1" y="570" on="1"/>
        <pt x="9" y="540" on="1"/>
        <pt x="0" y="508" on="1"/>
        <pt x="7" y="474" on="1"/>
        <pt x="4" y="443" on="1"/>
        <pt x="8" y="411" on="1"/>
        <pt x="8" y="377" on="1"/>
        <pt x="3" y="345" on="1"/>
        <pt x="8" y="312" on="1"/>
        <pt x="8" y="281" on="1"/>
        <pt x="3" y="248" on="1"/>
        <pt x="6" y="218" on="1"/>
        <pt x="4" y="186" on="1"/>
        <pt x="0" y="156" on="1"/>
        <pt x="5" y="124" on="1"/>
        <pt x="1" y="95" on="1"/>
        <pt x="8" y="63" on="1"/>
        <pt x="7" y="33" on="1"/>
        <pt x="7" y="1" on="1"/>
        <pt x="5" y="-30" on="1"/>
        <pt x="6" y="-58" on="1"/>
        <pt x="1" y="-91" on="1"/>
        <pt x="1" y="-122" on="1"/>
        <pt x="2" y="-153" on="1"/>
        <pt x="3" y="-175" on="1"/>
      </contour>
      <contour>
        <pt x="154" y="606" on="1"/>
        <pt x="189" y="605" on="1"/>
        <pt x="224" y="605" on="1"/>
        <pt x="260" y="608" on="1"/>
        <pt x="289" y="609" on="1"/>
        <pt x="307" y="608" on="1"/>
        <pt x="313" y="575" on="1"/>
        <pt x="312" y="538" on="1"/>
        <pt x="306" y="502" on="1"/>
        <pt x="309" y="468" on="1"/>
        <pt x="305" y="436" on="1"/>
        <pt x="313" y="399" on="1"/>
        <pt x="314" y="369" on="1"/>
        <pt x="306" y="334" on="1"/>
        <pt x="309" y="305" on="1"/>
        <pt x="312" y="284" on="1"/>
        <pt x="312" y="247" on="1"/>
        <pt x="316" y="213" on="1"/>
        <pt x="340" y="150" on="1"/>
        <pt x="370" y="135" on="1"/>
        <pt x="401" y="125" on="1"/>
        <pt x="423" y="125" on="1"/>
        <pt x="454" y="131" on="1"/>
        <pt x="487" y="139" on="1"/>
        <pt x="509" y="169" on="1"/>
        <pt x="526" y="196" on="1"/>
        <pt x="528" y="228" on="1"/>
        <pt x="538" y="260" on="1"/>
        <pt x="540" y="284" on="1"/>
        <pt x="536" y="318" on="1"/>
        <pt x="536" y="355" on="1"/>
        <pt x="539" y="391" on="1"/>
        <pt x="534" y="425" on="1"/>
        <pt x="533" y="457" on="1"/>
        <pt x="541" y="494" on="1"/>
        <pt x="539" y="524" on="1"/>
        <pt x="540" y="560" on="1"/>
        <pt x="535" y="588" on="1"/>
        <pt x="537" y="610" on="1"/>
        <pt x="573" y="604" on="1"/>
        <pt x="609" y="611" on="1"/>
        <pt x="645" y="606" on="1"/>
        <pt x="674" y="613" on="1"/>
        <pt x="692" y="608" on="1"/>
        <pt x="690" y="575" on="1"/>
        <pt x="693" y="538" on="1"/>
        <pt x="691" y="502" on="1"/>
        <pt x="691" y="468" on="1"/>
        <pt x="695" y="436" on="1"/>
        <pt x="693" y="399" on="1"/>
        <pt x="694" y="369" on="1"/>
        <pt x="694" y="334" on="1"/>
        <pt x="691" y="305" on="1"/>
        <pt x="696" y="284" on="1"/>
        <pt x="693" y="251" on="1"/>
        <pt x="693" y="219" on="1"/>
        <pt x="681" y="183" on="1"/>
        <pt x="674" y="148" on="1"/>
        <pt x="659" y="117" on="1"/>
        <pt x="648" y="85" on="1"/>
        <pt x="627" y="59" on="1"/>
        <pt x="602" y="39" on="1"/>
        <pt x="581" y="15" on="1"/>
        <pt x="554" y="0" on="1"/>
        <pt x="526" y="-13" on="1"/>
        <pt x="497" y="-25" on="1"/>
        <pt x="470" y="-24" on="1"/>
        <pt x="444" y="-36" on="1"/>
        <pt x="423" y="-31" on="1"/>
        <pt x="389" y="-30" on="1"/>
        <pt x="357" y="-25" on="1"/>
        <pt x="327" y="-15" on="1"/>
        <pt x="296" y="0" on="1"/>
        <pt x="264" y="13" on="1"/>
        <pt x="242" y="38" on="1"/>
        <pt x="214" y="58" on="1"/>
        <pt x="199" y="89" on="1"/>
        <pt x="187" y="120" on="1"/>
        <pt x="172" y="146" on="1"/>
        <pt x="161" y="174" on="1"/>
        <pt x="153" y="205" on="1"/>
        <pt x="155" y="237" on="1"/>
        <pt x="148" y="263" on="1"/>
        <pt x="154" y="284" on="1"/>
        <pt x="148" y="318" on="1"/>
        <pt x="152" y="355" on="1"/>
        <pt x="151" y="391" on="1"/>
        <pt x="154" y="425" on="1"/>
        <pt x="152" y="457" on="1"/>
        <pt x="153" y="494" on="1"/>
        <pt x="155" y="524" on="1"/>
        <pt x="154" y="560" on="1"/>
        <pt x="155" y="588" on="1"/>
      </contour>
    </TTGlyph>
    <TTGlyph name="V" xMin="0" yMin="-200" xMax="868" yMax="800">
      <contour>
        <pt x="1" y="-199" on="1"/>
        <pt x="38" y="-196" on="1"/>
        <pt x="70" y="-196" on="1"/>
        <pt x="103" y="-192" on="1"/>
        <pt x="138" y="-194" on="1"/>
        <pt x="170" y="-200" on="1"/>
        <pt x="204" y="-200" on="1"/>
        <pt x="239" y="-193" on="1"/>
        <pt x="272" y="-191" on="1"/>
        <pt x="307" y="-195" on="1"/>
        <pt x="339" y="-193" on="1"/>
        <pt x="373" y="-193" on="1"/>
        <pt x="405" y="-197" on="1"/>
        <pt x="439" y="-193" on="1"/>
        <pt x="470" y="-192" on="1"/>
        <pt x="503" y="-199" on="1"/>
        <pt x="535" y="-196" on="1"/>
        <pt x="600" y="-197" on="1"/>
        <pt x="634" y="-193" on="1"/>
        <pt x="667" y="-194" on="1"/>
        <pt x="698" y="-200" on="1"/>
        <pt x="726" y="-192" on="1"/>
        <pt x="758" y="-195" on="1"/>
        <pt x="790" y="-194" on="1"/>
        <pt x="820" y="-196" on="1"/>
        <pt x="842" y="-199" on="1"/>
        <pt x="860" y="-193" on="1"/>
        <pt x="860" y="-162" on="1"/>
        <pt x="859" y="-131" on="1"/>
        <pt x="860" y="-99" on="1"/>
        <pt x="859" y="-66" on="1"/>
        <pt x="860" y="-35" on="1"/>
        <pt x="865" y="-3" on="1"/>
        <pt x="861" y="30" on="1"/>
        <pt x="861" y="61" on="1"/>
        <pt x="865" y="93" on="1"/>
        <pt x="868" y="126" on="1"/>
        <pt x="860" y="157" on="1"/>
        <pt x="865" y="190" on="1"/>
        <pt x="859" y="223" on="1"/>
        <pt x="865" y="255" on="1"/>
        <pt x="865" y="288" on="1"/>
        <pt x="860" y="319" on="1"/>
        <pt x="867" y="352" on="1"/>
        <pt x="863" y="382" on="1"/>
        <pt x="867" y="414" on="1"/>
        <pt x="859" y="444" on="1"/>
        <pt x="866" y="476" on="1"/>
        <pt x="868" y="505" on="1"/>
        <pt x="859" y="537" on="1"/>
        <pt x="861" y="566" on="1"/>
        <pt x="859" y="599" on="1"/>
        <pt x="860" y="630" on="1"/>
        <pt x="860" y="658" on="1"/>
        <pt x="868" y="691" on="1"/>
        <pt x="863" y="722" on="1"/>
        <pt x="868" y="753" on="1"/>
        <pt x="867" y="775" on="1"/>
        <pt x="862" y="793" on="1"/>
        <pt x="829" y="793" on="1"/>
        <pt x="797" y="791" on="1"/>
        <pt x="764" y="792" on="1"/>
        <pt x="729" y="795" on="1"/>
        <pt x="697" y="794" on="1"/>
        <pt x="663" y="797" on="1"/>
        <pt x="560" y="795" on="1"/>
        <pt x="528" y="797" on="1"/>
        <pt x="494" y="791" on="1"/>
        <pt x="462" y="796" on="1"/>
        <pt x="428" y="799" on="1"/>
        <pt x="397" y="797" on="1"/>
        <pt x="363" y="792" on="1"/>
        <pt x="332" y="791" on="1"/>
        <pt x="298" y="799" on="1"/>
        <pt x="267" y="790" on="1"/>
        <pt x="232" y="794" on="1"/>
        <pt x="200" y="794" on="1"/>
        <pt x="169" y="792" on="1"/>
        <pt x="141" y="800" on="1"/>
        <pt x="108" y="793" on="1"/>
        <pt x="77" y="800" on="1"/>
        <pt x="46" y="797" on="1"/>
        <pt x="24" y="791" on="1"/>
        <pt x="0" y="797" on="1"/>
        <pt x="1" y="762" on="1"/>
        <pt x="6" y="731" on="1"/>
        <pt x="3" y="699" on="1"/>
        <pt x="2" y="666" on="1"/>
        <pt x="7" y="635" on="1"/>
        <pt x="4" y="603" on="1"/>
        <pt x="4" y="570" on="1"/>
        <pt x="3" y="539" on="1"/>
        <pt x="3" y="507" on="1"/>
        <pt x="1" y="474" on="1"/>
        <pt x="8" y="443" on="1"/>
        <pt x="8" y="411" on="1"/>
        <pt x="1" y="377" on="1"/>
        <pt x="3" y="345" on="1"/>
        <pt x="0" y="312" on="1"/>
        <pt x="1" y="281" on="1"/>
        <pt x="5" y="248" on="1"/>
        <pt x="1" y="218" on="1"/>
        <pt x="8" y="186" on="1"/>
        <pt x="8" y="156" on="1"/>
        <pt x="7" y="124" on="1"/>
        <pt x="4" y="95" on="1"/>
        <pt x="7" y="63" on="1"/>
        <pt x="8" y="34" on="1"/>
        <pt x="2" y="1" on="1"/>
        <pt x="1" y="-30" on="1"/>
        <pt x="5" y="-58" on="1"/>
        <pt x="3" y="-90" on="1"/>
        <pt x="7" y="-122" on="1"/>
        <pt x="3" y="-153" on="1"/>
      </contour>
      <contour>
        <pt x="286" y="612" on="1"/>
        <pt x="298" y="579" on="1"/>
        <pt x="311" y="548" on="1"/>
        <pt x="318" y="513" on="1"/>
        <pt x="330" y="482" on="1"/>
        <pt x="341" y="454" on="1"/>
        <pt x="354" y="425" on="1"/>
        <pt x="355" y="392" on="1"/>
        <pt x="373" y="363" on="1"/>
        <pt x="385" y="332" on="1"/>
        <pt x="396" y="300" on="1"/>
        <pt x="401" y="274" on="1"/>
        <pt x="407" y="249" on="1"/>
        <pt x="415" y="220" on="1"/>
        <pt x="427" y="202" on="1"/>
        <pt x="441" y="234" on="1"/>
        <pt x="446" y="267" on="1"/>
        <pt x="463" y="294" on="1"/>
        <pt x="476" y="325" on="1"/>
        <pt x="483" y="362" on="1"/>
        <pt x="499" y="389" on="1"/>
        <pt x="520" y="451" on="1"/>
        <pt x="533" y="483" on="1"/>
        <pt x="549" y="514" on="1"/>
        <pt x="556" y="541" on="1"/>
        <pt x="567" y="565" on="1"/>
        <pt x="577" y="589" on="1"/>
        <pt x="581" y="611" on="1"/>
        <pt x="617" y="610" on="1"/>
        <pt x="652" y="610" on="1"/>
        <pt x="687" y="605" on="1"/>
        <pt x="714" y="607" on="1"/>
        <pt x="739" y="608" on="1"/>
        <pt x="725" y="578" on="1"/>
        <pt x="719" y="546" on="1"/>
        <pt x="708" y="514" on="1"/>
        <pt x="691" y="482" on="1"/>
        <pt x="679" y="451" on="1"/>
        <pt x="672" y="416" on="1"/>
        <pt x="656" y="386" on="1"/>
        <pt x="642" y="354" on="1"/>
        <pt x="635" y="321" on="1"/>
        <pt x="620" y="293" on="1"/>
        <pt x="608" y="263" on="1"/>
        <pt x="594" y="235" on="1"/>
        <pt x="589" y="201" on="1"/>
        <pt x="572" y="173" on="1"/>
        <pt x="566" y="144" on="1"/>
        <pt x="554" y="113" on="1"/>
        <pt x="538" y="85" on="1"/>
        <pt x="533" y="55" on="1"/>
        <pt x="521" y="29" on="1"/>
        <pt x="507" y="4" on="1"/>
        <pt x="502" y="-21" on="1"/>
        <pt x="465" y="-22" on="1"/>
        <pt x="430" y="-19" on="1"/>
        <pt x="394" y="-22" on="1"/>
        <pt x="365" y="-19" on="1"/>
        <pt x="341" y="-23" on="1"/>
        <pt x="329" y="12" on="1"/>
        <pt x="321" y="44" on="1"/>
        <pt x="309" y="76" on="1"/>
        <pt x="297" y="106" on="1"/>
        <pt x="290" y="139" on="1"/>
        <pt x="279" y="168" on="1"/>
        <pt x="254" y="232" on="1"/>
        <pt x="244" y="264" on="1"/>
        <pt x="236" y="294" on="1"/>
        <pt x="226" y="326" on="1"/>
        <pt x="212" y="354" on="1"/>
        <pt x="192" y="417" on="1"/>
        <pt x="181" y="444" on="1"/>
        <pt x="171" y="476" on="1"/>
        <pt x="157" y="506" on="1"/>
        <pt x="152" y="536" on="1"/>
        <pt x="138" y="563" on="1"/>
        <pt x="133" y="592" on="1"/>
        <pt x="123" y="613" on="1"/>
        <pt x="162" y="609" on="1"/>
        <pt x="197" y="612" on="1"/>
        <pt x="232" y="612" on="1"/>
        <pt x="259" y="611" on="1"/>
      </contour>
    </TTGlyph>
    <TTGlyph name="W" xMin="0" yMin="-200" xMax="870" yMax="800">
      <contour>
        <pt x="5" y="-196" on="1"/>
        <pt x="39" y="-194" on="1"/>
        <pt x="71" y="-198" on="1"/>
        <pt x="104" y="-191" on="1"/>
        <pt x="139" y="-195" on="1"/>
        <pt x="171" y="-194" on="1"/>
        <pt x="205" y="-192" on="1"/>
        <pt x="240" y="-193" on="1"/>
        <pt x="273" y="-193" on="1"/>
        <pt x="308" y="-194" on="1"/>
        <pt x="340" y="-196" on="1"/>
        <pt x="374" y="-195" on="1"/>
        <pt x="406" y="-198" on="1"/>
        <pt x="440" y="-200" on="1"/>
        <pt x="471" y="-197" on="1"/>
        <pt x="505" y="-196" on="1"/>
        <pt x="536" y="-194" on="1"/>
        <pt x="570" y="-196" on="1"/>
        <pt x="601" y="-198" on="1"/>
        <pt x="636" y="-200" on="1"/>
        <pt x="669" y="-199" on="1"/>
        <pt x="699" y="-191" on="1"/>
        <pt x="728" y="-198" on="1"/>
        <pt x="760" y="-194" on="1"/>
        <pt x="792" y="-195" on="1"/>
        <pt x="822" y="-191" on="1"/>
        <pt x="844" y="-193" on="1"/>
        <pt x="861" y="-193" on="1"/>
        <pt x="869" y="-162" on="1"/>
        <pt x="865" y="-131" on="1"/>
        <pt x="865" y="-99" on="1"/>
        <pt x="862" y="-66" on="1"/>
        <pt x="862" y="-35" on="1"/>
        <pt x="861" y="-3" on="1"/>
        <pt x="867" y="30" on="1"/>
        <pt x="861" y="61" on="1"/>
        <pt x="870" y="93" on="1"/>
        <pt x="862" y="126" on="1"/>
        <pt x="861" y="223" on="1"/>
        <pt x="866" y="255" on="1"/>
        <pt x="868" y="288" on="1"/>
        <pt x="864" y="319" on="1"/>
        <pt x="865" y="352" on="1"/>
        <pt x="869" y="382" on="1"/>
        <pt x="863" y="414" on="1"/>
        <pt x="862" y="444" on="1"/>
        <pt x="868" y="476" on="1"/>
        <pt x="862" y="505" on="1"/>
        <pt x="865" y="537" on="1"/>
        <pt x="864" y="567" on="1"/>
        <pt x="868" y="599" on="1"/>
        <pt x="867" y="630" on="1"/>
        <pt x="861" y="658" on="1"/>
        <pt x="863" y="691" on="1"/>
        <pt x="862" y="722" on="1"/>
        <pt x="867" y="753" on="1"/>
        <pt x="864" y="775" on="1"/>
        <pt x="864" y="794" on="1"/>
        <pt x="831" y="794" on="1"/>
        <pt x="799" y="800" on="1"/>
        <pt x="765" y="792" on="1"/>
        <pt x="731" y="791" on="1"/>
        <pt x="699" y="793" on="1"/>
        <pt x="665" y="800" on="1"/>
        <pt x="630" y="798" on="1"/>
        <pt x="597" y="794" on="1"/>
        <pt x="562" y="795" on="1"/>
        <pt x="529" y="798" on="1"/>
        <pt x="495" y="793" on="1"/>
        <pt x="464" y="792" on="1"/>
        <pt x="430" y="798" on="1"/>
        <pt x="398" y="796" on="1"/>
        <pt x="365" y="795" on="1"/>
        <pt x="334" y="795" on="1"/>
        <pt x="300" y="793" on="1"/>
        <pt x="268" y="791" on="1"/>
        <pt x="234" y="793" on="1"/>
        <pt x="201" y="792" on="1"/>
        <pt x="171" y="799" on="1"/>
        <pt x="142" y="796" on="1"/>
        <pt x="110" y="797" on="1"/>
        <pt x="78" y="796" on="1"/>
        <pt x="48" y="792" on="1"/>
        <pt x="26" y="796" on="1"/>
        <pt x="8" y="793" on="1"/>
        <pt x="9" y="762" on="1"/>
        <pt x="1" y="731" on="1"/>
        <pt x="2" y="699" on="1"/>
        <pt x="6" y="666" on="1"/>
        <pt x="3" y="635" on="1"/>
        <pt x="2" y="603" on="1"/>
        <pt x="5" y="570" on="1"/>
        <pt x="1" y="539" on="1"/>
        <pt x="0" y="507" on="1"/>
        <pt x="1" y="474" on="1"/>
        <pt x="8" y="443" on="1"/>
        <pt x="0" y="411" on="1"/>
        <pt x="9" y="377" on="1"/>
        <pt x="3" y="345" on="1"/>
        <pt x="7" y="312" on="1"/>
        <pt x="1" y="281" on="1"/>
        <pt x="4" y="248" on="1"/>
        <pt x="6" y="218" on="1"/>
        <pt x="1" y="186" on="1"/>
        <pt x="3" y="156" on="1"/>
        <pt x="7" y="124" on="1"/>
        <pt x="5" y="95" on="1"/>
        <pt x="5" y="63" on="1"/>
        <pt x="8" y="33" on="1"/>
        <pt x="8" y="1" on="1"/>
        <pt x="1" y="-30" on="1"/>
        <pt x="4" y="-58" on="1"/>
        <pt x="0" y="-91" on="1"/>
        <pt x="3" y="-122" on="1"/>
        <pt x="8" y="-153" on="1"/>
        <pt x="3" y="-175" on="1"/>
      </contour>
      <contour>
        <pt x="200" y="607" on="1"/>
        <pt x="210" y="576" on="1"/>
        <pt x="213" y="542" on="1"/>
        <pt x="223" y="513" on="1"/>
        <pt x="234" y="482" on="1"/>
        <pt x="242" y="447" on="1"/>
        <pt x="254" y="418" on="1"/>
        <pt x="253" y="385" on="1"/>
        <pt x="266" y="354" on="1"/>
        <pt x="272" y="322" on="1"/>
        <pt x="277" y="297" on="1"/>
        <pt x="286" y="267" on="1"/>
        <pt x="291" y="243" on="1"/>
        <pt x="296" y="226" on="1"/>
        <pt x="306" y="256" on="1"/>
        <pt x="314" y="290" on="1"/>
        <pt x="320" y="322" on="1"/>
        <pt x="331" y="356" on="1"/>
        <pt x="336" y="386" on="1"/>
        <pt x="339" y="417" on="1"/>
        <pt x="352" y="448" on="1"/>
        <pt x="353" y="481" on="1"/>
        <pt x="369" y="512" on="1"/>
        <pt x="368" y="539" on="1"/>
        <pt x="379" y="561" on="1"/>
        <pt x="386" y="585" on="1"/>
        <pt x="377" y="609" on="1"/>
        <pt x="412" y="612" on="1"/>
        <pt x="447" y="609" on="1"/>
        <pt x="482" y="612" on="1"/>
        <pt x="502" y="609" on="1"/>
        <pt x="493" y="584" on="1"/>
        <pt x="502" y="553" on="1"/>
        <pt x="511" y="520" on="1"/>
        <pt x="518" y="485" on="1"/>
        <pt x="527" y="453" on="1"/>
        <pt x="529" y="423" on="1"/>
        <pt x="536" y="393" on="1"/>
        <pt x="545" y="363" on="1"/>
        <pt x="553" y="332" on="1"/>
        <pt x="561" y="269" on="1"/>
        <pt x="567" y="246" on="1"/>
        <pt x="572" y="219" on="1"/>
        <pt x="579" y="254" on="1"/>
        <pt x="588" y="287" on="1"/>
        <pt x="600" y="317" on="1"/>
        <pt x="608" y="351" on="1"/>
        <pt x="617" y="380" on="1"/>
        <pt x="618" y="412" on="1"/>
        <pt x="635" y="442" on="1"/>
        <pt x="637" y="477" on="1"/>
        <pt x="656" y="535" on="1"/>
        <pt x="662" y="562" on="1"/>
        <pt x="675" y="585" on="1"/>
        <pt x="678" y="606" on="1"/>
        <pt x="707" y="609" on="1"/>
        <pt x="742" y="610" on="1"/>
        <pt x="770" y="611" on="1"/>
        <pt x="791" y="607" on="1"/>
        <pt x="785" y="579" on="1"/>
        <pt x="774" y="547" on="1"/>
        <pt x="768" y="513" on="1"/>
        <pt x="743" y="417" on="1"/>
        <pt x="728" y="386" on="1"/>
        <pt x="718" y="320" on="1"/>
        <pt x="704" y="291" on="1"/>
        <pt x="695" y="258" on="1"/>
        <pt x="684" y="228" on="1"/>
        <pt x="680" y="198" on="1"/>
        <pt x="674" y="165" on="1"/>
        <pt x="662" y="137" on="1"/>
        <pt x="652" y="110" on="1"/>
        <pt x="645" y="77" on="1"/>
        <pt x="633" y="47" on="1"/>
        <pt x="627" y="24" on="1"/>
        <pt x="626" y="-7" on="1"/>
        <pt x="617" y="-16" on="1"/>
        <pt x="590" y="-18" on="1"/>
        <pt x="554" y="-23" on="1"/>
        <pt x="526" y="-22" on="1"/>
        <pt x="506" y="-16" on="1"/>
        <pt x="493" y="11" on="1"/>
        <pt x="487" y="45" on="1"/>
        <pt x="479" y="79" on="1"/>
        <pt x="472" y="112" on="1"/>
        <pt x="474" y="143" on="1"/>
        <pt x="466" y="172" on="1"/>
        <pt x="463" y="203" on="1"/>
        <pt x="448" y="232" on="1"/>
        <pt x="441" y="291" on="1"/>
        <pt x="435" y="316" on="1"/>
        <pt x="425" y="285" on="1"/>
        <pt x="418" y="249" on="1"/>
        <pt x="408" y="215" on="1"/>
        <pt x="403" y="178" on="1"/>
        <pt x="399" y="146" on="1"/>
        <pt x="388" y="114" on="1"/>
        <pt x="379" y="81" on="1"/>
        <pt x="366" y="29" on="1"/>
        <pt x="366" y="3" on="1"/>
        <pt x="361" y="-24" on="1"/>
        <pt x="330" y="-24" on="1"/>
        <pt x="294" y="-22" on="1"/>
        <pt x="266" y="-17" on="1"/>
        <pt x="245" y="-19" on="1"/>
        <pt x="236" y="11" on="1"/>
        <pt x="227" y="43" on="1"/>
        <pt x="220" y="73" on="1"/>
        <pt x="210" y="104" on="1"/>
        <pt x="205" y="139" on="1"/>
        <pt x="198" y="170" on="1"/>
        <pt x="183" y="202" on="1"/>
        <pt x="182" y="234" on="1"/>
        <pt x="174" y="267" on="1"/>
        <pt x="153" y="325" on="1"/>
        <pt x="149" y="356" on="1"/>
        <pt x="140" y="384" on="1"/>
        <pt x="132" y="416" on="1"/>
        <pt x="130" y="447" on="1"/>
        <pt x="113" y="478" on="1"/>
        <pt x="110" y="511" on="1"/>
        <pt x="99" y="542" on="1"/>
        <pt x="93" y="565" on="1"/>
        <pt x="91" y="595" on="1"/>
        <pt x="84" y="610" on="1"/>
        <pt x="114" y="607" on="1"/>
        <pt x="149" y="613" on="1"/>
        <pt x="177" y="608" on="1"/>
      </contour>
    </TTGlyph>
    <TTGlyph name="X" xMin="0" yMin="-200" xMax="870" yMax="800">
      <contour>
        <pt x="5" y="-195" on="1"/>
        <pt x="39" y="-194" on="1"/>
        <pt x="71" y="-191" on="1"/>
        <pt x="105" y="-193" on="1"/>
        <pt x="139" y="-191" on="1"/>
        <pt x="171" y="-198" on="1"/>
        <pt x="240" y="-196" on="1"/>
        <pt x="273" y="-191" on="1"/>
        <pt x="308" y="-195" on="1"/>
        <pt x="340" y="-192" on="1"/>
        <pt x="375" y="-191" on="1"/>
        <pt x="406" y="-193" on="1"/>
        <pt x="440" y="-199" on="1"/>
        <pt x="471" y="-195" on="1"/>
        <pt x="505" y="-194" on="1"/>
        <pt x="536" y="-200" on="1"/>
        <pt x="570" y="-200" on="1"/>
        <pt x="601" y="-194" on="1"/>
        <pt x="636" y="-197" on="1"/>
        <pt x="669" y="-193" on="1"/>
        <pt x="699" y="-198" on="1"/>
        <pt x="728" y="-196" on="1"/>
        <pt x="760" y="-198" on="1"/>
        <pt x="792" y="-192" on="1"/>
        <pt x="822" y="-195" on="1"/>
        <pt x="844" y="-198" on="1"/>
        <pt x="864" y="-195" on="1"/>
        <pt x="863" y="-162" on="1"/>
        <pt x="866" y="-131" on="1"/>
        <pt x="868" y="-99" on="1"/>
        <pt x="862" y="-35" on="1"/>
        <pt x="867" y="-3" on="1"/>
        <pt x="864" y="30" on="1"/>
        <pt x="869" y="61" on="1"/>
        <pt x="860" y="93" on="1"/>
        <pt x="865" y="126" on="1"/>
        <pt x="862" y="157" on="1"/>
        <pt x="865" y="190" on="1"/>
        <pt x="860" y="223" on="1"/>
        <pt x="862" y="255" on="1"/>
        <pt x="861" y="288" on="1"/>
        <pt x="862" y="319" on="1"/>
        <pt x="861" y="352" on="1"/>
        <pt x="869" y="382" on="1"/>
        <pt x="867" y="414" on="1"/>
        <pt x="870" y="444" on="1"/>
        <pt x="868" y="476" on="1"/>
        <pt x="864" y="505" on="1"/>
        <pt x="863" y="537" on="1"/>
        <pt x="865" y="567" on="1"/>
        <pt x="864" y="599" on="1"/>
        <pt x="865" y="630" on="1"/>
        <pt x="864" y="658" on="1"/>
        <pt x="869" y="691" on="1"/>
        <pt x="862" y="722" on="1"/>
        <pt x="863" y="753" on="1"/>
        <pt x="869" y="775" on="1"/>
        <pt x="864" y="793" on="1"/>
        <pt x="831" y="798" on="1"/>
        <pt x="799" y="793" on="1"/>
        <pt x="731" y="797" on="1"/>
        <pt x="698" y="795" on="1"/>
        <pt x="665" y="800" on="1"/>
        <pt x="629" y="800" on="1"/>
        <pt x="596" y="792" on="1"/>
        <pt x="562" y="798" on="1"/>
        <pt x="529" y="796" on="1"/>
        <pt x="495" y="797" on="1"/>
        <pt x="464" y="791" on="1"/>
        <pt x="430" y="792" on="1"/>
        <pt x="398" y="800" on="1"/>
        <pt x="365" y="795" on="1"/>
        <pt x="334" y="798" on="1"/>
        <pt x="268" y="791" on="1"/>
        <pt x="234" y="794" on="1"/>
        <pt x="201" y="793" on="1"/>
        <pt x="171" y="793" on="1"/>
        <pt x="142" y="795" on="1"/>
        <pt x="110" y="796" on="1"/>
        <pt x="78" y="791" on="1"/>
        <pt x="48" y="799" on="1"/>
        <pt x="26" y="796" on="1"/>
        <pt x="9" y="793" on="1"/>
        <pt x="4" y="762" on="1"/>
        <pt x="7" y="731" on="1"/>
        <pt x="5" y="699" on="1"/>
        <pt x="1" y="666" on="1"/>
        <pt x="1" y="635" on="1"/>
        <pt x="3" y="603" on="1"/>
        <pt x="4" y="570" on="1"/>
        <pt x="1" y="539" on="1"/>
        <pt x="10" y="507" on="1"/>
        <pt x="10" y="474" on="1"/>
        <pt x="8" y="443" on="1"/>
        <pt x="2" y="411" on="1"/>
        <pt x="6" y="377" on="1"/>
        <pt x="5" y="345" on="1"/>
        <pt x="3" y="312" on="1"/>
        <pt x="4" y="281" on="1"/>
        <pt x="4" y="248" on="1"/>
        <pt x="9" y="218" on="1"/>
        <pt x="2" y="186" on="1"/>
        <pt x="0" y="156" on="1"/>
        <pt x="6" y="124" on="1"/>
        <pt x="2" y="63" on="1"/>
        <pt x="1" y="34" on="1"/>
        <pt x="4" y="1" on="1"/>
        <pt x="0" y="-30" on="1"/>
        <pt x="6" y="-58" on="1"/>
        <pt x="7" y="-91" on="1"/>
        <pt x="2" y="-122" on="1"/>
        <pt x="4" y="-153" on="1"/>
        <pt x="2" y="-175" on="1"/>
      </contour>
      <contour>
        <pt x="119" y="609" on="1"/>
        <pt x="151" y="612" on="1"/>
        <pt x="188" y="607" on="1"/>
        <pt x="224" y="605" on="1"/>
        <pt x="252" y="610" on="1"/>
        <pt x="287" y="608" on="1"/>
        <pt x="307" y="610" on="1"/>
        <pt x="325" y="583" on="1"/>
        <pt x="344" y="551" on="1"/>
        <pt x="367" y="522" on="1"/>
        <pt x="386" y="496" on="1"/>
        <pt x="407" y="470" on="1"/>
        <pt x="428" y="447" on="1"/>
        <pt x="438" y="424" on="1"/>
        <pt x="454" y="456" on="1"/>
        <pt x="475" y="480" on="1"/>
        <pt x="494" y="512" on="1"/>
        <pt x="516" y="536" on="1"/>
        <pt x="534" y="564" on="1"/>
        <pt x="568" y="608" on="1"/>
        <pt x="600" y="610" on="1"/>
        <pt x="636" y="612" on="1"/>
        <pt x="672" y="608" on="1"/>
        <pt x="701" y="605" on="1"/>
        <pt x="736" y="610" on="1"/>
        <pt x="756" y="609" on="1"/>
        <pt x="711" y="553" on="1"/>
        <pt x="693" y="522" on="1"/>
        <pt x="673" y="497" on="1"/>
        <pt x="657" y="465" on="1"/>
        <pt x="631" y="439" on="1"/>
        <pt x="614" y="413" on="1"/>
        <pt x="596" y="387" on="1"/>
        <pt x="580" y="360" on="1"/>
        <pt x="556" y="338" on="1"/>
        <pt x="530" y="296" on="1"/>
        <pt x="550" y="267" on="1"/>
        <pt x="569" y="237" on="1"/>
        <pt x="594" y="208" on="1"/>
        <pt x="618" y="183" on="1"/>
        <pt x="636" y="150" on="1"/>
        <pt x="653" y="122" on="1"/>
        <pt x="674" y="97" on="1"/>
        <pt x="693" y="68" on="1"/>
        <pt x="717" y="42" on="1"/>
        <pt x="727" y="17" on="1"/>
        <pt x="741" y="-5" on="1"/>
        <pt x="759" y="-24" on="1"/>
        <pt x="726" y="-24" on="1"/>
        <pt x="690" y="-22" on="1"/>
        <pt x="654" y="-15" on="1"/>
        <pt x="625" y="-20" on="1"/>
        <pt x="590" y="-22" on="1"/>
        <pt x="571" y="-20" on="1"/>
        <pt x="546" y="8" on="1"/>
        <pt x="529" y="35" on="1"/>
        <pt x="506" y="64" on="1"/>
        <pt x="491" y="94" on="1"/>
        <pt x="472" y="121" on="1"/>
        <pt x="456" y="148" on="1"/>
        <pt x="438" y="163" on="1"/>
        <pt x="416" y="140" on="1"/>
        <pt x="398" y="105" on="1"/>
        <pt x="374" y="77" on="1"/>
        <pt x="354" y="52" on="1"/>
        <pt x="332" y="26" on="1"/>
        <pt x="316" y="-2" on="1"/>
        <pt x="304" y="-17" on="1"/>
        <pt x="273" y="-16" on="1"/>
        <pt x="237" y="-18" on="1"/>
        <pt x="200" y="-21" on="1"/>
        <pt x="172" y="-21" on="1"/>
        <pt x="137" y="-19" on="1"/>
        <pt x="115" y="-23" on="1"/>
        <pt x="137" y="11" on="1"/>
        <pt x="156" y="40" on="1"/>
        <pt x="201" y="90" on="1"/>
        <pt x="217" y="122" on="1"/>
        <pt x="239" y="152" on="1"/>
        <pt x="259" y="175" on="1"/>
        <pt x="279" y="199" on="1"/>
        <pt x="290" y="230" on="1"/>
        <pt x="310" y="254" on="1"/>
        <pt x="330" y="277" on="1"/>
        <pt x="347" y="297" on="1"/>
        <pt x="323" y="324" on="1"/>
        <pt x="304" y="355" on="1"/>
        <pt x="279" y="383" on="1"/>
        <pt x="262" y="414" on="1"/>
        <pt x="242" y="446" on="1"/>
        <pt x="223" y="472" on="1"/>
        <pt x="197" y="494" on="1"/>
        <pt x="183" y="527" on="1"/>
        <pt x="166" y="547" on="1"/>
        <pt x="146" y="566" on="1"/>
        <pt x="132" y="587" on="1"/>
      </contour>
    </TTGlyph>
    <TTGlyph name="Y" xMin="0" yMin="-200" xMax="870" yMax="800">
      <contour>
        <pt x="4" y="-197" on="1"/>
        <pt x="39" y="-196" on="1"/>
        <pt x="71" y="-195" on="1"/>
        <pt x="104" y="-196" on="1"/>
        <pt x="139" y="-191" on="1"/>
        <pt x="171" y="-198" on="1"/>
        <pt x="205" y="-194" on="1"/>
        <pt x="240" y="-194" on="1"/>
        <pt x="273" y="-192" on="1"/>
        <pt x="340" y="-197" on="1"/>
        <pt x="374" y="-192" on="1"/>
        <pt x="406" y="-197" on="1"/>
        <pt x="440" y="-200" on="1"/>
        <pt x="471" y="-196" on="1"/>
        <pt x="505" y="-192" on="1"/>
        <pt x="536" y="-195" on="1"/>
        <pt x="570" y="-195" on="1"/>
        <pt x="601" y="-191" on="1"/>
        <pt x="636" y="-191" on="1"/>
        <pt x="669" y="-192" on="1"/>
        <pt x="699" y="-199" on="1"/>
        <pt x="727" y="-196" on="1"/>
        <pt x="760" y="-198" on="1"/>
        <pt x="822" y="-193" on="1"/>
        <pt x="844" y="-199" on="1"/>
        <pt x="866" y="-196" on="1"/>
        <pt x="867" y="-162" on="1"/>
        <pt x="870" y="-131" on="1"/>
        <pt x="862" y="-99" on="1"/>
        <pt x="861" y="-66" on="1"/>
        <pt x="865" y="-35" on="1"/>
        <pt x="864" y="-3" on="1"/>
        <pt x="870" y="30" on="1"/>
        <pt x="867" y="61" on="1"/>
        <pt x="864" y="93" on="1"/>
        <pt x="868" y="126" on="1"/>
        <pt x="861" y="157" on="1"/>
        <pt x="870" y="190" on="1"/>
        <pt x="866" y="224" on="1"/>
        <pt x="868" y="255" on="1"/>
        <pt x="861" y="289" on="1"/>
        <pt x="866" y="319" on="1"/>
        <pt x="863" y="352" on="1"/>
        <pt x="866" y="382" on="1"/>
        <pt x="868" y="414" on="1"/>
        <pt x="865" y="444" on="1"/>
        <pt x="869" y="476" on="1"/>
        <pt x="863" y="505" on="1"/>
        <pt x="862" y="537" on="1"/>
        <pt x="861" y="567" on="1"/>
        <pt x="868" y="599" on="1"/>
        <pt x="865" y="630" on="1"/>
        <pt x="865" y="658" on="1"/>
        <pt x="866" y="691" on="1"/>
        <pt x="860" y="722" on="1"/>
        <pt x="861" y="753" on="1"/>
        <pt x="866" y="775" on="1"/>
        <pt x="864" y="794" on="1"/>
        <pt x="831" y="795" on="1"/>
        <pt x="799" y="796" on="1"/>
        <pt x="765" y="794" on="1"/>
        <pt x="731" y="792" on="1"/>
        <pt x="698" y="798" on="1"/>
        <pt x="665" y="799" on="1"/>
        <pt x="629" y="792" on="1"/>
        <pt x="596" y="792" on="1"/>
        <pt x="562" y="798" on="1"/>
        <pt x="529" y="800" on="1"/>
        <pt x="495" y="794" on="1"/>
        <pt x="463" y="791" on="1"/>
        <pt x="430" y="797" on="1"/>
        <pt x="398" y="798" on="1"/>
        <pt x="365" y="800" on="1"/>
        <pt x="334" y="792" on="1"/>
        <pt x="268" y="792" on="1"/>
        <pt x="234" y="794" on="1"/>
        <pt x="201" y="800" on="1"/>
        <pt x="171" y="793" on="1"/>
        <pt x="142" y="799" on="1"/>
        <pt x="110" y="791" on="1"/>
        <pt x="78" y="795" on="1"/>
        <pt x="26" y="797" on="1"/>
        <pt x="2" y="797" on="1"/>
        <pt x="6" y="762" on="1"/>
        <pt x="3" y="731" on="1"/>
        <pt x="9" y="699" on="1"/>
        <pt x="4" y="666" on="1"/>
        <pt x="7" y="635" on="1"/>
        <pt x="9" y="604" on="1"/>
        <pt x="8" y="570" on="1"/>
        <pt x="3" y="540" on="1"/>
        <pt x="4" y="508" on="1"/>
        <pt x="8" y="474" on="1"/>
        <pt x="7" y="443" on="1"/>
        <pt x="3" y="411" on="1"/>
        <pt x="9" y="377" on="1"/>
        <pt x="5" y="345" on="1"/>
        <pt x="2" y="312" on="1"/>
        <pt x="8" y="281" on="1"/>
        <pt x="0" y="249" on="1"/>
        <pt x="9" y="218" on="1"/>
        <pt x="6" y="186" on="1"/>
        <pt x="10" y="157" on="1"/>
        <pt x="6" y="125" on="1"/>
        <pt x="0" y="95" on="1"/>
        <pt x="1" y="63" on="1"/>
        <pt x="1" y="34" on="1"/>
        <pt x="3" y="1" on="1"/>
        <pt x="5" y="-29" on="1"/>
        <pt x="4" y="-58" on="1"/>
        <pt x="2" y="-90" on="1"/>
        <pt x="8" y="-122" on="1"/>
        <pt x="5" y="-153" on="1"/>
        <pt x="8" y="-175" on="1"/>
      </contour>
      <contour>
        <pt x="312" y="608" on="1"/>
        <pt x="333" y="584" on="1"/>
        <pt x="353" y="553" on="1"/>
        <pt x="376" y="524" on="1"/>
        <pt x="392" y="496" on="1"/>
        <pt x="411" y="469" on="1"/>
        <pt x="427" y="442" on="1"/>
        <pt x="443" y="429" on="1"/>
        <pt x="465" y="453" on="1"/>
        <pt x="484" y="479" on="1"/>
        <pt x="503" y="510" on="1"/>
        <pt x="525" y="534" on="1"/>
        <pt x="541" y="563" on="1"/>
        <pt x="563" y="588" on="1"/>
        <pt x="575" y="608" on="1"/>
        <pt x="606" y="611" on="1"/>
        <pt x="642" y="611" on="1"/>
        <pt x="678" y="614" on="1"/>
        <pt x="707" y="611" on="1"/>
        <pt x="742" y="611" on="1"/>
        <pt x="763" y="610" on="1"/>
        <pt x="743" y="579" on="1"/>
        <pt x="723" y="551" on="1"/>
        <pt x="701" y="523" on="1"/>
        <pt x="682" y="496" on="1"/>
        <pt x="664" y="466" on="1"/>
        <pt x="638" y="447" on="1"/>
        <pt x="626" y="417" on="1"/>
        <pt x="608" y="390" on="1"/>
        <pt x="586" y="364" on="1"/>
        <pt x="564" y="339" on="1"/>
        <pt x="549" y="309" on="1"/>
        <pt x="533" y="291" on="1"/>
        <pt x="520" y="275" on="1"/>
        <pt x="518" y="238" on="1"/>
        <pt x="523" y="204" on="1"/>
        <pt x="518" y="170" on="1"/>
        <pt x="514" y="101" on="1"/>
        <pt x="518" y="67" on="1"/>
        <pt x="523" y="33" on="1"/>
        <pt x="514" y="0" on="1"/>
        <pt x="519" y="-20" on="1"/>
        <pt x="482" y="-24" on="1"/>
        <pt x="447" y="-19" on="1"/>
        <pt x="411" y="-22" on="1"/>
        <pt x="382" y="-17" on="1"/>
        <pt x="361" y="-21" on="1"/>
        <pt x="360" y="15" on="1"/>
        <pt x="364" y="48" on="1"/>
        <pt x="365" y="80" on="1"/>
        <pt x="362" y="145" on="1"/>
        <pt x="363" y="177" on="1"/>
        <pt x="365" y="209" on="1"/>
        <pt x="363" y="234" on="1"/>
        <pt x="366" y="258" on="1"/>
        <pt x="358" y="279" on="1"/>
        <pt x="345" y="308" on="1"/>
        <pt x="324" y="336" on="1"/>
        <pt x="298" y="362" on="1"/>
        <pt x="279" y="390" on="1"/>
        <pt x="259" y="421" on="1"/>
        <pt x="239" y="445" on="1"/>
        <pt x="224" y="474" on="1"/>
        <pt x="203" y="501" on="1"/>
        <pt x="183" y="529" on="1"/>
        <pt x="167" y="551" on="1"/>
        <pt x="150" y="571" on="1"/>
        <pt x="136" y="593" on="1"/>
        <pt x="126" y="609" on="1"/>
        <pt x="157" y="614" on="1"/>
        <pt x="194" y="607" on="1"/>
        <pt x="230" y="609" on="1"/>
        <pt x="258" y="610" on="1"/>
        <pt x="293" y="607" on="1"/>
      </contour>
    </TTGlyph>
</ttFont>
